<?xml version="1.0" encoding="UTF-8"?>
<!-- Generator: CustomSymbols v2.5.1.36 by @serious_bret https://bretlester.com/app_content/CustomSymbols/ -->
<!-- Guides: Left/Right 0.204/0.208 Cap/Base 0.2/0.2 -->
<!-- Settings: RefScale 1.0 Min/Max Stroke Scales 0.5/2.21 -->
<!DOCTYPE svg
PUBLIC "-//W3C//DTD SVG 1.1//EN"
       "http://www.w3.org/Graphics/SVG/1.1/DTD/svg11.dtd">
<svg version="1.1" xmlns="http://www.w3.org/2000/svg" xmlns:xlink="http://www.w3.org/1999/xlink" width="3300" height="2200">
<![CDATA[<?xml version="1.0" encoding="UTF-8" standalone="no"?><!DOCTYPE svg PUBLIC "-//W3C//DTD SVG 1.1//EN" "http://www.w3.org/Graphics/SVG/1.1/DTD/svg11.dtd"><svg width="100%" height="100%" viewBox="0 0 1280 1280" version="1.1" xmlns="http://www.w3.org/2000/svg" xmlns:xlink="http://www.w3.org/1999/xlink" xml:space="preserve" xmlns:serif="http://www.serif.com/" style="fill-rule:evenodd;clip-rule:evenodd;stroke-linejoin:round;stroke-miterlimit:2;"><path d="M356,826l-97,96c0,0 -67.034,-78.589 -148,-12c0,0 -111.338,93.417 12,175c0,0 46.711,13.163 67,57c0,0 19.792,111.576 154,53c0,0 108.599,-84.609 12,-172c0,0 97.863,-103.271 99,-101c1.137,2.271 -99,-96 -99,-96Z"/><path d="M369,654c0,0 128.046,-118.56 147,-302c0,0 18.164,-179.522 197,-258c0,0 196.842,-94.575 388,68c0,0 173.705,146.669 86,397c0,0 -61.592,169.825 -339,224c0,0 -171.061,36.267 -215,127l-264,-256Z"/></svg>]]>
 <g id="Notes">
  <rect height="2200" id="artboard" style="fill:white;opacity:1" width="3300" x="0" y="0"/>
  <line id="" style="fill:none;stroke:black;opacity:1;stroke-width:0.5;" x1="263" x2="3036" y1="292" y2="292"/>
  <text id="reftext1" style="stroke:none;fill:black;font-family:-apple-system,&quot;SF Pro Display&quot;,&quot;SF Pro Text&quot;,Helvetica,sans-serif;font-weight:bold;" transform="matrix(1 0 0 1 263 322)">Weight/Scale Variations</text>
  <text id="reftext2" style="stroke:none;fill:black;font-family:-apple-system,&quot;SF Pro Display&quot;,&quot;SF Pro Text&quot;,Helvetica,sans-serif;text-anchor:middle;" transform="matrix(1 0 0 1 559.711 322)">Ultralight</text>
  <text style="stroke:none;fill:black;font-family:-apple-system,&quot;SF Pro Display&quot;,&quot;SF Pro Text&quot;,Helvetica,sans-serif;text-anchor:middle;" transform="matrix(1 0 0 1 856.422 322)">Thin</text>
  <text style="stroke:none;fill:black;font-family:-apple-system,&quot;SF Pro Display&quot;,&quot;SF Pro Text&quot;,Helvetica,sans-serif;text-anchor:middle;" transform="matrix(1 0 0 1 1153.13 322)">Light</text>
  <text style="stroke:none;fill:black;font-family:-apple-system,&quot;SF Pro Display&quot;,&quot;SF Pro Text&quot;,Helvetica,sans-serif;text-anchor:middle;" transform="matrix(1 0 0 1 1449.84 322)">Regular</text>
  <text style="stroke:none;fill:black;font-family:-apple-system,&quot;SF Pro Display&quot;,&quot;SF Pro Text&quot;,Helvetica,sans-serif;text-anchor:middle;" transform="matrix(1 0 0 1 1746.56 322)">Medium</text>
  <text style="stroke:none;fill:black;font-family:-apple-system,&quot;SF Pro Display&quot;,&quot;SF Pro Text&quot;,Helvetica,sans-serif;text-anchor:middle;" transform="matrix(1 0 0 1 2043.27 322)">Semibold</text>
  <text style="stroke:none;fill:black;font-family:-apple-system,&quot;SF Pro Display&quot;,&quot;SF Pro Text&quot;,Helvetica,sans-serif;text-anchor:middle;" transform="matrix(1 0 0 1 2339.98 322)">Bold</text>
  <text style="stroke:none;fill:black;font-family:-apple-system,&quot;SF Pro Display&quot;,&quot;SF Pro Text&quot;,Helvetica,sans-serif;text-anchor:middle;" transform="matrix(1 0 0 1 2636.69 322)">Heavy</text>
  <text style="stroke:none;fill:black;font-family:-apple-system,&quot;SF Pro Display&quot;,&quot;SF Pro Text&quot;,Helvetica,sans-serif;text-anchor:middle;" transform="matrix(1 0 0 1 2933.4 322)">Black</text>
  <line id="" style="fill:none;stroke:black;opacity:1;stroke-width:0.5;" x1="263" x2="3036" y1="1903" y2="1903"/>
  <g id="" transform="matrix(1 0 0 1 263 1933)">
   <path d="M9.24805 0.830078C13.5547 0.830078 17.1387-2.74414 17.1387-7.05078C17.1387-11.3574 13.5449-14.9316 9.23828-14.9316C4.94141-14.9316 1.36719-11.3574 1.36719-7.05078C1.36719-2.74414 4.95117 0.830078 9.24805 0.830078ZM9.24805-0.654297C5.70312-0.654297 2.87109-3.49609 2.87109-7.05078C2.87109-10.6055 5.69336-13.4473 9.23828-13.4473C12.793-13.4473 15.6348-10.6055 15.6445-7.05078C15.6543-3.49609 12.8027-0.654297 9.24805-0.654297ZM6.39648-6.31836L8.50586-6.31836L8.50586-4.19922C8.50586-3.75977 8.79883-3.45703 9.22852-3.45703C9.67773-3.45703 9.9707-3.75977 9.9707-4.19922L9.9707-6.31836L12.0996-6.31836C12.5391-6.31836 12.8418-6.61133 12.8418-7.04102C12.8418-7.48047 12.5391-7.7832 12.0996-7.7832L9.9707-7.7832L9.9707-9.89258C9.9707-10.3418 9.67773-10.6445 9.22852-10.6445C8.79883-10.6445 8.50586-10.3418 8.50586-9.89258L8.50586-7.7832L6.39648-7.7832C5.94727-7.7832 5.64453-7.48047 5.64453-7.04102C5.64453-6.61133 5.94727-6.31836 6.39648-6.31836Z"/>
  </g>
  <g id="" transform="matrix(1 0 0 1 281.506 1933)">
   <path d="M11.709 2.91016C17.1582 2.91016 21.6699-1.61133 21.6699-7.05078C21.6699-12.5 17.1484-17.0117 11.6992-17.0117C6.25977-17.0117 1.74805-12.5 1.74805-7.05078C1.74805-1.61133 6.26953 2.91016 11.709 2.91016ZM11.709 1.25C7.09961 1.25 3.41797-2.44141 3.41797-7.05078C3.41797-11.6602 7.08984-15.3516 11.6992-15.3516C16.3086-15.3516 20-11.6602 20.0098-7.05078C20.0195-2.44141 16.3184 1.25 11.709 1.25ZM7.98828-6.23047L10.8789-6.23047L10.8789-3.32031C10.8789-2.83203 11.2109-2.5 11.6895-2.5C12.1777-2.5 12.5195-2.83203 12.5195-3.32031L12.5195-6.23047L15.4297-6.23047C15.918-6.23047 16.25-6.5625 16.25-7.04102C16.25-7.5293 15.918-7.87109 15.4297-7.87109L12.5195-7.87109L12.5195-10.7617C12.5195-11.2695 12.1777-11.6016 11.6895-11.6016C11.2109-11.6016 10.8789-11.2598 10.8789-10.7617L10.8789-7.87109L7.98828-7.87109C7.48047-7.87109 7.14844-7.5293 7.14844-7.04102C7.14844-6.5625 7.49023-6.23047 7.98828-6.23047Z"/>
  </g>
  <g id="" transform="matrix(1 0 0 1 304.924 1933)">
   <path d="M14.9707 5.66406C21.9336 5.66406 27.6953-0.0976562 27.6953-7.05078C27.6953-14.0137 21.9238-19.7754 14.9609-19.7754C8.00781-19.7754 2.25586-14.0137 2.25586-7.05078C2.25586-0.0976562 8.01758 5.66406 14.9707 5.66406ZM14.9707 3.84766C8.93555 3.84766 4.08203-1.01562 4.08203-7.05078C4.08203-13.0957 8.92578-17.9492 14.9609-17.9492C21.0059-17.9492 25.8594-13.0957 25.8691-7.05078C25.8789-1.01562 21.0156 3.84766 14.9707 3.84766ZM10.0586-6.14258L14.0625-6.14258L14.0625-2.12891C14.0625-1.5918 14.4336-1.2207 14.9512-1.2207C15.4883-1.2207 15.8594-1.5918 15.8594-2.12891L15.8594-6.14258L19.8828-6.14258C20.4102-6.14258 20.791-6.51367 20.791-7.03125C20.791-7.56836 20.4199-7.94922 19.8828-7.94922L15.8594-7.94922L15.8594-11.9531C15.8594-12.5098 15.4883-12.8809 14.9512-12.8809C14.4336-12.8809 14.0625-12.5 14.0625-11.9531L14.0625-7.94922L10.0586-7.94922C9.50195-7.94922 9.13086-7.56836 9.13086-7.03125C9.13086-6.51367 9.51172-6.14258 10.0586-6.14258Z"/>
  </g>
  <text style="stroke:none;fill:black;font-family:-apple-system,&quot;SF Pro Display&quot;,&quot;SF Pro Text&quot;,Helvetica,sans-serif;font-weight:bold;" transform="matrix(1 0 0 1 263 1953)">Design Variations</text>
  <text style="stroke:none;fill:black;font-family:-apple-system,&quot;SF Pro Display&quot;,&quot;SF Pro Text&quot;,Helvetica,sans-serif;" transform="matrix(1 0 0 1 263 1971)">Symbols are supported in up to nine weights and three scales.</text>
  <text style="stroke:none;fill:black;font-family:-apple-system,&quot;SF Pro Display&quot;,&quot;SF Pro Text&quot;,Helvetica,sans-serif;" transform="matrix(1 0 0 1 263 1989)">For optimal layout with text and other symbols, vertically align</text>
  <text style="stroke:none;fill:black;font-family:-apple-system,&quot;SF Pro Display&quot;,&quot;SF Pro Text&quot;,Helvetica,sans-serif;" transform="matrix(1 0 0 1 263 2007)">symbols with the adjacent text.</text>
  <line id="" style="fill:none;stroke:#00AEEF;stroke-width:0.5;opacity:1.0;" x1="776" x2="776" y1="1919" y2="1933"/>
  <g id="" transform="matrix(1 0 0 1 776 1933)">
   <path d="M3.31055 0.126953C3.82812 0.126953 4.08203-0.0683594 4.26758-0.605469L5.52734-4.0625L11.2891-4.0625L12.5488-0.605469C12.7344-0.0683594 12.9883 0.126953 13.4961 0.126953C14.0137 0.126953 14.3457-0.185547 14.3457-0.673828C14.3457-0.839844 14.3164-0.986328 14.2383-1.20117L9.6582-13.3887C9.43359-13.9941 9.0332-14.2871 8.4082-14.2871C7.80273-14.2871 7.39258-13.9941 7.17773-13.3984L2.59766-1.19141C2.51953-0.976562 2.49023-0.830078 2.49023-0.664062C2.49023-0.175781 2.80273 0.126953 3.31055 0.126953ZM6.00586-5.53711L8.37891-12.1094L8.42773-12.1094L10.8008-5.53711Z"/>
  </g>
  <line id="" style="fill:none;stroke:#00AEEF;stroke-width:0.5;opacity:1.0;" x1="792.836" x2="792.836" y1="1919" y2="1933"/>
  <text style="stroke:none;fill:black;font-family:-apple-system,&quot;SF Pro Display&quot;,&quot;SF Pro Text&quot;,Helvetica,sans-serif;font-weight:bold;" transform="matrix(1 0 0 1 776 1953)">Margins</text>
  <text style="stroke:none;fill:black;font-family:-apple-system,&quot;SF Pro Display&quot;,&quot;SF Pro Text&quot;,Helvetica,sans-serif;" transform="matrix(1 0 0 1 776 1971)">Leading and trailing margins on the left and right side of each symbol</text>
  <text style="stroke:none;fill:black;font-family:-apple-system,&quot;SF Pro Display&quot;,&quot;SF Pro Text&quot;,Helvetica,sans-serif;" transform="matrix(1 0 0 1 776 1989)">can be adjusted by modifying the x-location of the margin guidelines.</text>
  <text style="stroke:none;fill:black;font-family:-apple-system,&quot;SF Pro Display&quot;,&quot;SF Pro Text&quot;,Helvetica,sans-serif;" transform="matrix(1 0 0 1 776 2007)">Modifications are automatically applied proportionally to all</text>
  <text style="stroke:none;fill:black;font-family:-apple-system,&quot;SF Pro Display&quot;,&quot;SF Pro Text&quot;,Helvetica,sans-serif;" transform="matrix(1 0 0 1 776 2025)">scales and weights.</text>
  <g id="" transform="matrix(1 0 0 1 1289 1933)">
   <path d="M2.8418 1.86523L4.54102 3.57422C5.40039 4.44336 6.38672 4.38477 7.31445 3.35938L17.4902-7.85156C17.7539-7.76367 18.0273-7.7832 18.3398-7.8418L19.4043-8.03711L20.0684-7.36328L20.0293-6.80664C19.9902-6.30859 20.1172-5.92773 20.6055-5.44922L21.3672-4.70703C21.8457-4.22852 22.4609-4.19922 22.9297-4.66797L25.8398-7.58789C26.3086-8.05664 26.2891-8.65234 25.8105-9.13086L25.0391-9.89258C24.5605-10.3711 24.1895-10.5273 23.7109-10.4883L23.1348-10.4395L22.4902-11.0742L22.7344-12.1973C22.8613-12.7637 22.7051-13.2031 22.1191-13.7891L19.9219-15.9766C16.582-19.2969 12.1484-19.2188 9.25781-16.3281C8.83789-15.918 8.80859-15.3418 9.04297-14.9512C9.27734-14.5898 9.73633-14.3555 10.3809-14.5215C11.8457-14.8633 13.3691-14.9219 14.7949-13.9844L14.209-12.5293C14.0137-12.0508 13.9844-11.6504 14.1113-11.2891L3.04688-0.898438C2.06055 0.0195312 1.98242 0.996094 2.8418 1.86523ZM10.752-15.957C13.1836-17.7344 16.4746-17.4316 18.7012-15.2051L21.1328-12.793C21.3672-12.5586 21.4062-12.373 21.3379-12.0312L21.0156-10.5469L22.5195-9.0625L23.5059-9.12109C23.7598-9.13086 23.8379-9.11133 24.0332-8.91602L24.6094-8.33984L22.168-5.89844L21.5918-6.47461C21.3965-6.66992 21.3672-6.74805 21.377-7.01172L21.4453-7.98828L19.9512-9.47266L18.4277-9.21875C18.1055-9.15039 17.959-9.17969 17.7148-9.41406L15.7129-11.416C15.459-11.6504 15.4297-11.8164 15.5859-12.1875L16.4648-14.2773C14.9023-15.7324 12.8711-16.3574 10.8398-15.7617C10.6836-15.7227 10.625-15.8496 10.752-15.957ZM5.27344 2.30469L4.10156 1.14258C3.63281 0.683594 3.74023 0.341797 4.14062-0.0195312L14.9512-10.1953L16.416-8.71094L6.42578 2.27539C6.07422 2.67578 5.74219 2.77344 5.27344 2.30469Z"/>
  </g>
  <text style="stroke:none;fill:black;font-family:-apple-system,&quot;SF Pro Display&quot;,&quot;SF Pro Text&quot;,Helvetica,sans-serif;font-weight:bold;" transform="matrix(1 0 0 1 1289 1953)">Exporting</text>
  <text style="stroke:none;fill:black;font-family:-apple-system,&quot;SF Pro Display&quot;,&quot;SF Pro Text&quot;,Helvetica,sans-serif;" transform="matrix(1 0 0 1 1289 1971)">Symbols should be outlined when exporting to ensure the</text>
  <text style="stroke:none;fill:black;font-family:-apple-system,&quot;SF Pro Display&quot;,&quot;SF Pro Text&quot;,Helvetica,sans-serif;" transform="matrix(1 0 0 1 1289 1989)">design is preserved when submitting to Xcode.</text>
  <text id="template-version" style="stroke:none;fill:black;font-family:-apple-system,&quot;SF Pro Display&quot;,&quot;SF Pro Text&quot;,Helvetica,sans-serif;text-anchor:end;" transform="matrix(1 0 0 1 3036 1933)">Template v.2.0</text>
  <text style="stroke:none;fill:black;font-family:-apple-system,&quot;SF Pro Display&quot;,&quot;SF Pro Text&quot;,Helvetica,sans-serif;text-anchor:end;" transform="matrix(1 0 0 1 3036 1951)">Requires Xcode 12 or greater</text>
  <text style="stroke:none;fill:black;font-family:-apple-system,&quot;SF Pro Display&quot;,&quot;SF Pro Text&quot;,Helvetica,sans-serif;" transform="matrix(1 0 0 1 263 726)">Small</text>
  <text style="stroke:none;fill:black;font-family:-apple-system,&quot;SF Pro Display&quot;,&quot;SF Pro Text&quot;,Helvetica,sans-serif;" transform="matrix(1 0 0 1 263 1156)">Medium</text>
  <text style="stroke:none;fill:black;font-family:-apple-system,&quot;SF Pro Display&quot;,&quot;SF Pro Text&quot;,Helvetica,sans-serif;" transform="matrix(1 0 0 1 263 1586)">Large</text>
 </g>
 <g id="Guides">
  <g id="H-reference" style="fill:#27AAE1;stroke:none;" transform="matrix(1 0 0 1 339 696)">
   <path d="M0.976562 0L3.66211 0L12.9883-24.4629L45.752-24.4629L55.127 0L57.7637 0L30.6152-70.459L28.125-70.459ZM29.3457-67.1387L29.4434-67.1387L44.873-26.709L13.8672-26.709Z"/>
  </g>
  <line id="Baseline-S" style="fill:none;stroke:#27AAE1;opacity:1;stroke-width:0.5;" x1="263" x2="3036" y1="696" y2="696"/>
  <line id="Capline-S" style="fill:none;stroke:#27AAE1;opacity:1;stroke-width:0.5;" x1="263" x2="3036" y1="625.541" y2="625.541"/>
  <g id="H-reference" style="fill:#27AAE1;stroke:none;" transform="matrix(1 0 0 1 339 1126)">
   <path d="M0.976562 0L3.66211 0L12.9883-24.4629L45.752-24.4629L55.127 0L57.7637 0L30.6152-70.459L28.125-70.459ZM29.3457-67.1387L29.4434-67.1387L44.873-26.709L13.8672-26.709Z"/>
  </g>
  <line id="Baseline-M" style="fill:none;stroke:#27AAE1;opacity:1;stroke-width:0.5;" x1="263" x2="3036" y1="1126" y2="1126"/>
  <line id="Capline-M" style="fill:none;stroke:#27AAE1;opacity:1;stroke-width:0.5;" x1="263" x2="3036" y1="1055.54" y2="1055.54"/>
  <g id="H-reference" style="fill:#27AAE1;stroke:none;" transform="matrix(1 0 0 1 339 1556)">
   <path d="M0.976562 0L3.66211 0L12.9883-24.4629L45.752-24.4629L55.127 0L57.7637 0L30.6152-70.459L28.125-70.459ZM29.3457-67.1387L29.4434-67.1387L44.873-26.709L13.8672-26.709Z"/>
  </g>
  <line id="Baseline-L" style="fill:none;stroke:#27AAE1;opacity:1;stroke-width:0.5;" x1="263" x2="3036" y1="1556" y2="1556"/>
  <line id="Capline-L" style="fill:none;stroke:#27AAE1;opacity:1;stroke-width:0.5;" x1="263" x2="3036" y1="1485.54" y2="1485.54"/>
  <line id="left-margin" x1="1416.3697526041667" x2="1416.3697526041667" y1="1030.79" y2="1150.12" style="fill:none;stroke:#00AEEF;stroke-width:0.5;opacity:1.0;"/>
  <line id="right-margin" x1="1485.4205143229165" x2="1485.4205143229165" y1="1030.79" y2="1150.12" style="fill:none;stroke:#00AEEF;stroke-width:0.5;opacity:1.0;"/>
 </g>
 <g id="Symbols">
  <g id="Black-L" transform="matrix(1.0,0.0,0.0,1.0,2858.935541992187,1445.0255615234375)">  <path xmlns:serif="http://www.serif.com/" xml:space="preserve" fill-rule="evenodd" fill="#000000" stroke-miterlimit="2" xmlns:xlink="http://www.w3.org/1999/xlink" fill-opacity="1" clip-rule="evenodd" stroke-width="1px" stroke-linejoin="round" version="1.1" stroke-opacity="1" stroke-linecap="butt" stroke="none" stroke-dasharray="none" d="M42.133,97.758L30.653,109.119C30.653,109.119,22.719,99.818,13.137,107.699C13.137,107.699,-0.04,118.755,14.557,128.411C14.557,128.411,20.085,129.968,22.487,135.157C22.487,135.157,24.829,148.362,40.713,141.429C40.713,141.429,53.565,131.416,42.133,121.073C42.133,121.073,53.715,108.851,53.85,109.119C53.984,109.388,42.133,97.758,42.133,97.758ZM42.133,97.758"/>
  <path clip-rule="evenodd" stroke-opacity="1" version="1.1" fill="#000000" stroke-linecap="butt" stroke="none" fill-rule="evenodd" xml:space="preserve" stroke-width="1px" xmlns:xlink="http://www.w3.org/1999/xlink" xmlns:serif="http://www.serif.com/" stroke-linejoin="round" stroke-dasharray="none" fill-opacity="1" stroke-miterlimit="2" d="M43.671,77.401C43.671,77.401,58.826,63.37,61.069,41.659C61.069,41.659,63.219,20.413,84.384,11.125C84.384,11.125,107.68,-0.068,130.304,19.173C130.304,19.173,150.862,36.531,140.482,66.158C140.482,66.158,133.193,86.257,100.361,92.669C100.361,92.669,80.116,96.961,74.916,107.699L43.671,77.401ZM43.671,77.401"/>
</g>
  <g id="Heavy-L" transform="matrix(1.0,0.0,0.0,1.0,2562.225541992187,1445.0255615234375)">  <path stroke="none" xmlns:serif="http://www.serif.com/" stroke-width="1px" xml:space="preserve" clip-rule="evenodd" stroke-miterlimit="2" version="1.1" fill="#000000" stroke-linecap="butt" stroke-dasharray="none" fill-rule="evenodd" stroke-linejoin="round" stroke-opacity="1" xmlns:xlink="http://www.w3.org/1999/xlink" fill-opacity="1" d="M42.133,97.758L30.653,109.119C30.653,109.119,22.719,99.818,13.137,107.699C13.137,107.699,-0.04,118.755,14.557,128.411C14.557,128.411,20.085,129.968,22.487,135.157C22.487,135.157,24.829,148.362,40.713,141.429C40.713,141.429,53.565,131.416,42.133,121.073C42.133,121.073,53.715,108.851,53.85,109.119C53.984,109.388,42.133,97.758,42.133,97.758ZM42.133,97.758"/>
  <path xml:space="preserve" stroke-miterlimit="2" version="1.1" stroke-opacity="1" stroke-linecap="butt" fill="#000000" xmlns:serif="http://www.serif.com/" clip-rule="evenodd" xmlns:xlink="http://www.w3.org/1999/xlink" fill-opacity="1" stroke-linejoin="round" fill-rule="evenodd" stroke="none" stroke-dasharray="none" stroke-width="1px" d="M43.671,77.401C43.671,77.401,58.826,63.37,61.069,41.659C61.069,41.659,63.219,20.413,84.384,11.125C84.384,11.125,107.68,-0.068,130.304,19.173C130.304,19.173,150.862,36.531,140.482,66.158C140.482,66.158,133.193,86.257,100.361,92.669C100.361,92.669,80.116,96.961,74.916,107.699L43.671,77.401ZM43.671,77.401"/>
</g>
  <g id="Bold-L" transform="matrix(1.0,0.0,0.0,1.0,2265.515541992187,1445.0255615234375)">  <path stroke-linecap="butt" stroke="none" stroke-dasharray="none" version="1.1" fill-rule="evenodd" xmlns:serif="http://www.serif.com/" clip-rule="evenodd" stroke-miterlimit="2" stroke-opacity="1" xmlns:xlink="http://www.w3.org/1999/xlink" fill="#000000" stroke-linejoin="round" fill-opacity="1" stroke-width="1px" xml:space="preserve" d="M42.133,97.758L30.653,109.119C30.653,109.119,22.719,99.818,13.137,107.699C13.137,107.699,-0.04,118.755,14.557,128.411C14.557,128.411,20.085,129.968,22.487,135.157C22.487,135.157,24.829,148.362,40.713,141.429C40.713,141.429,53.565,131.416,42.133,121.073C42.133,121.073,53.715,108.851,53.85,109.119C53.984,109.388,42.133,97.758,42.133,97.758ZM42.133,97.758"/>
  <path clip-rule="evenodd" fill-opacity="1" stroke="none" stroke-width="1px" version="1.1" stroke-opacity="1" stroke-linejoin="round" stroke-linecap="butt" stroke-miterlimit="2" xml:space="preserve" xmlns:xlink="http://www.w3.org/1999/xlink" fill-rule="evenodd" xmlns:serif="http://www.serif.com/" fill="#000000" stroke-dasharray="none" d="M43.671,77.401C43.671,77.401,58.826,63.37,61.069,41.659C61.069,41.659,63.219,20.413,84.384,11.125C84.384,11.125,107.68,-0.068,130.304,19.173C130.304,19.173,150.862,36.531,140.482,66.158C140.482,66.158,133.193,86.257,100.361,92.669C100.361,92.669,80.116,96.961,74.916,107.699L43.671,77.401ZM43.671,77.401"/>
</g>
  <g id="Semibold-L" transform="matrix(1.0,0.0,0.0,1.0,1968.8055419921875,1445.0255615234375)">  <path stroke-linejoin="round" stroke-dasharray="none" xml:space="preserve" version="1.1" fill-rule="evenodd" xmlns:serif="http://www.serif.com/" clip-rule="evenodd" xmlns:xlink="http://www.w3.org/1999/xlink" stroke-opacity="1" stroke-miterlimit="2" stroke-width="1px" stroke="none" fill-opacity="1" fill="#000000" stroke-linecap="butt" d="M42.133,97.758L30.653,109.119C30.653,109.119,22.719,99.818,13.137,107.699C13.137,107.699,-0.04,118.755,14.557,128.411C14.557,128.411,20.085,129.968,22.487,135.157C22.487,135.157,24.829,148.362,40.713,141.429C40.713,141.429,53.565,131.416,42.133,121.073C42.133,121.073,53.715,108.851,53.85,109.119C53.984,109.388,42.133,97.758,42.133,97.758ZM42.133,97.758"/>
  <path xml:space="preserve" clip-rule="evenodd" fill-rule="evenodd" fill-opacity="1" xmlns:serif="http://www.serif.com/" stroke="none" version="1.1" stroke-opacity="1" stroke-linejoin="round" xmlns:xlink="http://www.w3.org/1999/xlink" stroke-linecap="butt" stroke-width="1px" fill="#000000" stroke-miterlimit="2" stroke-dasharray="none" d="M43.671,77.401C43.671,77.401,58.826,63.37,61.069,41.659C61.069,41.659,63.219,20.413,84.384,11.125C84.384,11.125,107.68,-0.068,130.304,19.173C130.304,19.173,150.862,36.531,140.482,66.158C140.482,66.158,133.193,86.257,100.361,92.669C100.361,92.669,80.116,96.961,74.916,107.699L43.671,77.401ZM43.671,77.401"/>
</g>
  <g id="Medium-L" transform="matrix(1.0,0.0,0.0,1.0,1672.0955419921875,1445.0255615234375)">  <path stroke-opacity="1" xml:space="preserve" xmlns:xlink="http://www.w3.org/1999/xlink" stroke="none" stroke-linejoin="round" stroke-width="1px" stroke-miterlimit="2" fill-opacity="1" fill="#000000" version="1.1" clip-rule="evenodd" stroke-linecap="butt" fill-rule="evenodd" stroke-dasharray="none" xmlns:serif="http://www.serif.com/" d="M42.133,97.758L30.653,109.119C30.653,109.119,22.719,99.818,13.137,107.699C13.137,107.699,-0.04,118.755,14.557,128.411C14.557,128.411,20.085,129.968,22.487,135.157C22.487,135.157,24.829,148.362,40.713,141.429C40.713,141.429,53.565,131.416,42.133,121.073C42.133,121.073,53.715,108.851,53.85,109.119C53.984,109.388,42.133,97.758,42.133,97.758ZM42.133,97.758"/>
  <path stroke-miterlimit="2" stroke-width="1px" xmlns:xlink="http://www.w3.org/1999/xlink" stroke-dasharray="none" xml:space="preserve" fill="#000000" stroke-linecap="butt" xmlns:serif="http://www.serif.com/" version="1.1" stroke-opacity="1" clip-rule="evenodd" fill-rule="evenodd" stroke-linejoin="round" fill-opacity="1" stroke="none" d="M43.671,77.401C43.671,77.401,58.826,63.37,61.069,41.659C61.069,41.659,63.219,20.413,84.384,11.125C84.384,11.125,107.68,-0.068,130.304,19.173C130.304,19.173,150.862,36.531,140.482,66.158C140.482,66.158,133.193,86.257,100.361,92.669C100.361,92.669,80.116,96.961,74.916,107.699L43.671,77.401ZM43.671,77.401"/>
</g>
  <g id="Regular-L" transform="matrix(1.0,0.0,0.0,1.0,1375.3855419921874,1445.0255615234375)">  <path fill="#000000" xmlns:xlink="http://www.w3.org/1999/xlink" xml:space="preserve" xmlns:serif="http://www.serif.com/" stroke-dasharray="none" stroke-width="1px" clip-rule="evenodd" stroke-opacity="1" fill-rule="evenodd" fill-opacity="1" stroke-miterlimit="2" stroke="none" stroke-linecap="butt" stroke-linejoin="round" version="1.1" d="M42.133,97.758L30.653,109.119C30.653,109.119,22.719,99.818,13.137,107.699C13.137,107.699,-0.04,118.755,14.557,128.411C14.557,128.411,20.085,129.968,22.487,135.157C22.487,135.157,24.829,148.362,40.713,141.429C40.713,141.429,53.565,131.416,42.133,121.073C42.133,121.073,53.715,108.851,53.85,109.119C53.984,109.388,42.133,97.758,42.133,97.758ZM42.133,97.758"/>
  <path stroke-linejoin="round" xmlns:xlink="http://www.w3.org/1999/xlink" xmlns:serif="http://www.serif.com/" fill-rule="evenodd" stroke-miterlimit="2" stroke="none" fill="#000000" stroke-opacity="1" stroke-dasharray="none" xml:space="preserve" clip-rule="evenodd" version="1.1" fill-opacity="1" stroke-linecap="butt" stroke-width="1px" d="M43.671,77.401C43.671,77.401,58.826,63.37,61.069,41.659C61.069,41.659,63.219,20.413,84.384,11.125C84.384,11.125,107.68,-0.068,130.304,19.173C130.304,19.173,150.862,36.531,140.482,66.158C140.482,66.158,133.193,86.257,100.361,92.669C100.361,92.669,80.116,96.961,74.916,107.699L43.671,77.401ZM43.671,77.401"/>
</g>
  <g id="Light-L" transform="matrix(1.0,0.0,0.0,1.0,1078.6755419921876,1445.0255615234375)">  <path stroke-opacity="1" stroke-width="1px" xmlns:serif="http://www.serif.com/" stroke-linejoin="round" fill-rule="evenodd" stroke-dasharray="none" fill="#000000" stroke="none" stroke-linecap="butt" clip-rule="evenodd" fill-opacity="1" xmlns:xlink="http://www.w3.org/1999/xlink" version="1.1" xml:space="preserve" stroke-miterlimit="2" d="M42.133,97.758L30.653,109.119C30.653,109.119,22.719,99.818,13.137,107.699C13.137,107.699,-0.04,118.755,14.557,128.411C14.557,128.411,20.085,129.968,22.487,135.157C22.487,135.157,24.829,148.362,40.713,141.429C40.713,141.429,53.565,131.416,42.133,121.073C42.133,121.073,53.715,108.851,53.85,109.119C53.984,109.388,42.133,97.758,42.133,97.758ZM42.133,97.758"/>
  <path xmlns:xlink="http://www.w3.org/1999/xlink" stroke-opacity="1" stroke="none" stroke-miterlimit="2" stroke-width="1px" clip-rule="evenodd" fill-opacity="1" xmlns:serif="http://www.serif.com/" stroke-linejoin="round" xml:space="preserve" stroke-dasharray="none" version="1.1" stroke-linecap="butt" fill="#000000" fill-rule="evenodd" d="M43.671,77.401C43.671,77.401,58.826,63.37,61.069,41.659C61.069,41.659,63.219,20.413,84.384,11.125C84.384,11.125,107.68,-0.068,130.304,19.173C130.304,19.173,150.862,36.531,140.482,66.158C140.482,66.158,133.193,86.257,100.361,92.669C100.361,92.669,80.116,96.961,74.916,107.699L43.671,77.401ZM43.671,77.401"/>
</g>
  <g id="Thin-L" transform="matrix(1.0,0.0,0.0,1.0,781.9655419921876,1445.0255615234375)">  <path stroke-dasharray="none" fill="#000000" stroke-miterlimit="2" stroke-width="1px" fill-opacity="1" stroke-opacity="1" stroke-linecap="butt" clip-rule="evenodd" fill-rule="evenodd" stroke="none" stroke-linejoin="round" version="1.1" xmlns:xlink="http://www.w3.org/1999/xlink" xml:space="preserve" xmlns:serif="http://www.serif.com/" d="M42.133,97.758L30.653,109.119C30.653,109.119,22.719,99.818,13.137,107.699C13.137,107.699,-0.04,118.755,14.557,128.411C14.557,128.411,20.085,129.968,22.487,135.157C22.487,135.157,24.829,148.362,40.713,141.429C40.713,141.429,53.565,131.416,42.133,121.073C42.133,121.073,53.715,108.851,53.85,109.119C53.984,109.388,42.133,97.758,42.133,97.758ZM42.133,97.758"/>
  <path fill-opacity="1" stroke="none" fill="#000000" xmlns:serif="http://www.serif.com/" version="1.1" stroke-miterlimit="2" stroke-linejoin="round" xmlns:xlink="http://www.w3.org/1999/xlink" stroke-opacity="1" stroke-width="1px" stroke-linecap="butt" stroke-dasharray="none" xml:space="preserve" fill-rule="evenodd" clip-rule="evenodd" d="M43.671,77.401C43.671,77.401,58.826,63.37,61.069,41.659C61.069,41.659,63.219,20.413,84.384,11.125C84.384,11.125,107.68,-0.068,130.304,19.173C130.304,19.173,150.862,36.531,140.482,66.158C140.482,66.158,133.193,86.257,100.361,92.669C100.361,92.669,80.116,96.961,74.916,107.699L43.671,77.401ZM43.671,77.401"/>
</g>
  <g id="Ultralight-L" transform="matrix(1.0,0.0,0.0,1.0,485.2555419921875,1445.0255615234375)">  <path xmlns:serif="http://www.serif.com/" fill="#000000" stroke-opacity="1" version="1.1" stroke-linejoin="round" fill-rule="evenodd" stroke-miterlimit="2" xmlns:xlink="http://www.w3.org/1999/xlink" stroke-linecap="butt" stroke="none" clip-rule="evenodd" fill-opacity="1" stroke-width="1px" xml:space="preserve" stroke-dasharray="none" d="M42.133,97.758L30.653,109.119C30.653,109.119,22.719,99.818,13.137,107.699C13.137,107.699,-0.04,118.755,14.557,128.411C14.557,128.411,20.085,129.968,22.487,135.157C22.487,135.157,24.829,148.362,40.713,141.429C40.713,141.429,53.565,131.416,42.133,121.073C42.133,121.073,53.715,108.851,53.85,109.119C53.984,109.388,42.133,97.758,42.133,97.758ZM42.133,97.758"/>
  <path xmlns:xlink="http://www.w3.org/1999/xlink" stroke-opacity="1" stroke-dasharray="none" xml:space="preserve" stroke-width="1px" fill-rule="evenodd" stroke-linecap="butt" stroke="none" xmlns:serif="http://www.serif.com/" fill="#000000" clip-rule="evenodd" stroke-miterlimit="2" stroke-linejoin="round" version="1.1" fill-opacity="1" d="M43.671,77.401C43.671,77.401,58.826,63.37,61.069,41.659C61.069,41.659,63.219,20.413,84.384,11.125C84.384,11.125,107.68,-0.068,130.304,19.173C130.304,19.173,150.862,36.531,140.482,66.158C140.482,66.158,133.193,86.257,100.361,92.669C100.361,92.669,80.116,96.961,74.916,107.699L43.671,77.401ZM43.671,77.401"/>
</g>
  <g id="Black-M" transform="matrix(1.0,0.0,0.0,1.0,2875.9633658854164,1032.0533854166667)">  <path xmlns:serif="http://www.serif.com/" xml:space="preserve" fill-rule="evenodd" fill="#000000" stroke-miterlimit="2" xmlns:xlink="http://www.w3.org/1999/xlink" fill-opacity="1" clip-rule="evenodd" stroke-width="1px" stroke-linejoin="round" version="1.1" stroke-opacity="1" stroke-linecap="butt" stroke="none" stroke-dasharray="none" d="M32.661,75.781L23.762,84.589C23.762,84.589,17.612,77.379,10.184,83.488C10.184,83.488,-0.031,92.058,11.285,99.543C11.285,99.543,15.57,100.751,17.432,104.772C17.432,104.772,19.247,115.009,31.56,109.635C31.56,109.635,41.524,101.873,32.661,93.855C32.661,93.855,41.64,84.38,41.744,84.589C41.848,84.797,32.661,75.781,32.661,75.781ZM32.661,75.781"/>
  <path clip-rule="evenodd" stroke-opacity="1" version="1.1" fill="#000000" stroke-linecap="butt" stroke="none" fill-rule="evenodd" xml:space="preserve" stroke-width="1px" xmlns:xlink="http://www.w3.org/1999/xlink" xmlns:serif="http://www.serif.com/" stroke-linejoin="round" stroke-dasharray="none" fill-opacity="1" stroke-miterlimit="2" d="M33.854,60.001C33.854,60.001,45.601,49.124,47.34,32.294C47.34,32.294,49.007,15.824,65.414,8.624C65.414,8.624,83.473,-0.053,101.011,14.863C101.011,14.863,116.947,28.319,108.901,51.285C108.901,51.285,103.25,66.866,77.8,71.836C77.8,71.836,62.106,75.163,58.074,83.488L33.854,60.001ZM33.854,60.001"/>
</g>
  <g id="Heavy-M" transform="matrix(1.0,0.0,0.0,1.0,2579.2533658854163,1032.0533854166667)">  <path stroke="none" xmlns:serif="http://www.serif.com/" stroke-width="1px" xml:space="preserve" clip-rule="evenodd" stroke-miterlimit="2" version="1.1" fill="#000000" stroke-linecap="butt" stroke-dasharray="none" fill-rule="evenodd" stroke-linejoin="round" stroke-opacity="1" xmlns:xlink="http://www.w3.org/1999/xlink" fill-opacity="1" d="M32.661,75.781L23.762,84.589C23.762,84.589,17.612,77.379,10.184,83.488C10.184,83.488,-0.031,92.058,11.285,99.543C11.285,99.543,15.57,100.751,17.432,104.772C17.432,104.772,19.247,115.009,31.56,109.635C31.56,109.635,41.524,101.873,32.661,93.855C32.661,93.855,41.64,84.38,41.744,84.589C41.848,84.797,32.661,75.781,32.661,75.781ZM32.661,75.781"/>
  <path xml:space="preserve" stroke-miterlimit="2" version="1.1" stroke-opacity="1" stroke-linecap="butt" fill="#000000" xmlns:serif="http://www.serif.com/" clip-rule="evenodd" xmlns:xlink="http://www.w3.org/1999/xlink" fill-opacity="1" stroke-linejoin="round" fill-rule="evenodd" stroke="none" stroke-dasharray="none" stroke-width="1px" d="M33.854,60.001C33.854,60.001,45.601,49.124,47.34,32.294C47.34,32.294,49.007,15.824,65.414,8.624C65.414,8.624,83.473,-0.053,101.011,14.863C101.011,14.863,116.947,28.319,108.901,51.285C108.901,51.285,103.25,66.866,77.8,71.836C77.8,71.836,62.106,75.163,58.074,83.488L33.854,60.001ZM33.854,60.001"/>
</g>
  <g id="Bold-M" transform="matrix(1.0,0.0,0.0,1.0,2282.5433658854163,1032.0533854166667)">  <path stroke-linecap="butt" stroke="none" stroke-dasharray="none" version="1.1" fill-rule="evenodd" xmlns:serif="http://www.serif.com/" clip-rule="evenodd" stroke-miterlimit="2" stroke-opacity="1" xmlns:xlink="http://www.w3.org/1999/xlink" fill="#000000" stroke-linejoin="round" fill-opacity="1" stroke-width="1px" xml:space="preserve" d="M32.661,75.781L23.762,84.589C23.762,84.589,17.612,77.379,10.184,83.488C10.184,83.488,-0.031,92.058,11.285,99.543C11.285,99.543,15.57,100.751,17.432,104.772C17.432,104.772,19.247,115.009,31.56,109.635C31.56,109.635,41.524,101.873,32.661,93.855C32.661,93.855,41.64,84.38,41.744,84.589C41.848,84.797,32.661,75.781,32.661,75.781ZM32.661,75.781"/>
  <path clip-rule="evenodd" fill-opacity="1" stroke="none" stroke-width="1px" version="1.1" stroke-opacity="1" stroke-linejoin="round" stroke-linecap="butt" stroke-miterlimit="2" xml:space="preserve" xmlns:xlink="http://www.w3.org/1999/xlink" fill-rule="evenodd" xmlns:serif="http://www.serif.com/" fill="#000000" stroke-dasharray="none" d="M33.854,60.001C33.854,60.001,45.601,49.124,47.34,32.294C47.34,32.294,49.007,15.824,65.414,8.624C65.414,8.624,83.473,-0.053,101.011,14.863C101.011,14.863,116.947,28.319,108.901,51.285C108.901,51.285,103.25,66.866,77.8,71.836C77.8,71.836,62.106,75.163,58.074,83.488L33.854,60.001ZM33.854,60.001"/>
</g>
  <g id="Semibold-M" transform="matrix(1.0,0.0,0.0,1.0,1985.8333658854167,1032.0533854166667)">  <path stroke-linejoin="round" stroke-dasharray="none" xml:space="preserve" version="1.1" fill-rule="evenodd" xmlns:serif="http://www.serif.com/" clip-rule="evenodd" xmlns:xlink="http://www.w3.org/1999/xlink" stroke-opacity="1" stroke-miterlimit="2" stroke-width="1px" stroke="none" fill-opacity="1" fill="#000000" stroke-linecap="butt" d="M32.661,75.781L23.762,84.589C23.762,84.589,17.612,77.379,10.184,83.488C10.184,83.488,-0.031,92.058,11.285,99.543C11.285,99.543,15.57,100.751,17.432,104.772C17.432,104.772,19.247,115.009,31.56,109.635C31.56,109.635,41.524,101.873,32.661,93.855C32.661,93.855,41.64,84.38,41.744,84.589C41.848,84.797,32.661,75.781,32.661,75.781ZM32.661,75.781"/>
  <path xml:space="preserve" clip-rule="evenodd" fill-rule="evenodd" fill-opacity="1" xmlns:serif="http://www.serif.com/" stroke="none" version="1.1" stroke-opacity="1" stroke-linejoin="round" xmlns:xlink="http://www.w3.org/1999/xlink" stroke-linecap="butt" stroke-width="1px" fill="#000000" stroke-miterlimit="2" stroke-dasharray="none" d="M33.854,60.001C33.854,60.001,45.601,49.124,47.34,32.294C47.34,32.294,49.007,15.824,65.414,8.624C65.414,8.624,83.473,-0.053,101.011,14.863C101.011,14.863,116.947,28.319,108.901,51.285C108.901,51.285,103.25,66.866,77.8,71.836C77.8,71.836,62.106,75.163,58.074,83.488L33.854,60.001ZM33.854,60.001"/>
</g>
  <g id="Medium-M" transform="matrix(1.0,0.0,0.0,1.0,1689.1233658854167,1032.0533854166667)">  <path stroke-opacity="1" xml:space="preserve" xmlns:xlink="http://www.w3.org/1999/xlink" stroke="none" stroke-linejoin="round" stroke-width="1px" stroke-miterlimit="2" fill-opacity="1" fill="#000000" version="1.1" clip-rule="evenodd" stroke-linecap="butt" fill-rule="evenodd" stroke-dasharray="none" xmlns:serif="http://www.serif.com/" d="M32.661,75.781L23.762,84.589C23.762,84.589,17.612,77.379,10.184,83.488C10.184,83.488,-0.031,92.058,11.285,99.543C11.285,99.543,15.57,100.751,17.432,104.772C17.432,104.772,19.247,115.009,31.56,109.635C31.56,109.635,41.524,101.873,32.661,93.855C32.661,93.855,41.64,84.38,41.744,84.589C41.848,84.797,32.661,75.781,32.661,75.781ZM32.661,75.781"/>
  <path stroke-miterlimit="2" stroke-width="1px" xmlns:xlink="http://www.w3.org/1999/xlink" stroke-dasharray="none" xml:space="preserve" fill="#000000" stroke-linecap="butt" xmlns:serif="http://www.serif.com/" version="1.1" stroke-opacity="1" clip-rule="evenodd" fill-rule="evenodd" stroke-linejoin="round" fill-opacity="1" stroke="none" d="M33.854,60.001C33.854,60.001,45.601,49.124,47.34,32.294C47.34,32.294,49.007,15.824,65.414,8.624C65.414,8.624,83.473,-0.053,101.011,14.863C101.011,14.863,116.947,28.319,108.901,51.285C108.901,51.285,103.25,66.866,77.8,71.836C77.8,71.836,62.106,75.163,58.074,83.488L33.854,60.001ZM33.854,60.001"/>
</g>
  <g id="Regular-M" transform="matrix(1.0,0.0,0.0,1.0,1392.4133658854166,1032.0533854166667)">  <path fill="#000000" xmlns:xlink="http://www.w3.org/1999/xlink" xml:space="preserve" xmlns:serif="http://www.serif.com/" stroke-dasharray="none" stroke-width="1px" clip-rule="evenodd" stroke-opacity="1" fill-rule="evenodd" fill-opacity="1" stroke-miterlimit="2" stroke="none" stroke-linecap="butt" stroke-linejoin="round" version="1.1" d="M32.661,75.781L23.762,84.589C23.762,84.589,17.612,77.379,10.184,83.488C10.184,83.488,-0.031,92.058,11.285,99.543C11.285,99.543,15.57,100.751,17.432,104.772C17.432,104.772,19.247,115.009,31.56,109.635C31.56,109.635,41.524,101.873,32.661,93.855C32.661,93.855,41.64,84.38,41.744,84.589C41.848,84.797,32.661,75.781,32.661,75.781ZM32.661,75.781"/>
  <path stroke-linejoin="round" xmlns:xlink="http://www.w3.org/1999/xlink" xmlns:serif="http://www.serif.com/" fill-rule="evenodd" stroke-miterlimit="2" stroke="none" fill="#000000" stroke-opacity="1" stroke-dasharray="none" xml:space="preserve" clip-rule="evenodd" version="1.1" fill-opacity="1" stroke-linecap="butt" stroke-width="1px" d="M33.854,60.001C33.854,60.001,45.601,49.124,47.34,32.294C47.34,32.294,49.007,15.824,65.414,8.624C65.414,8.624,83.473,-0.053,101.011,14.863C101.011,14.863,116.947,28.319,108.901,51.285C108.901,51.285,103.25,66.866,77.8,71.836C77.8,71.836,62.106,75.163,58.074,83.488L33.854,60.001ZM33.854,60.001"/>
</g>
  <g id="Light-M" transform="matrix(1.0,0.0,0.0,1.0,1095.7033658854168,1032.0533854166667)">  <path stroke-opacity="1" stroke-width="1px" xmlns:serif="http://www.serif.com/" stroke-linejoin="round" fill-rule="evenodd" stroke-dasharray="none" fill="#000000" stroke="none" stroke-linecap="butt" clip-rule="evenodd" fill-opacity="1" xmlns:xlink="http://www.w3.org/1999/xlink" version="1.1" xml:space="preserve" stroke-miterlimit="2" d="M32.661,75.781L23.762,84.589C23.762,84.589,17.612,77.379,10.184,83.488C10.184,83.488,-0.031,92.058,11.285,99.543C11.285,99.543,15.57,100.751,17.432,104.772C17.432,104.772,19.247,115.009,31.56,109.635C31.56,109.635,41.524,101.873,32.661,93.855C32.661,93.855,41.64,84.38,41.744,84.589C41.848,84.797,32.661,75.781,32.661,75.781ZM32.661,75.781"/>
  <path xmlns:xlink="http://www.w3.org/1999/xlink" stroke-opacity="1" stroke="none" stroke-miterlimit="2" stroke-width="1px" clip-rule="evenodd" fill-opacity="1" xmlns:serif="http://www.serif.com/" stroke-linejoin="round" xml:space="preserve" stroke-dasharray="none" version="1.1" stroke-linecap="butt" fill="#000000" fill-rule="evenodd" d="M33.854,60.001C33.854,60.001,45.601,49.124,47.34,32.294C47.34,32.294,49.007,15.824,65.414,8.624C65.414,8.624,83.473,-0.053,101.011,14.863C101.011,14.863,116.947,28.319,108.901,51.285C108.901,51.285,103.25,66.866,77.8,71.836C77.8,71.836,62.106,75.163,58.074,83.488L33.854,60.001ZM33.854,60.001"/>
</g>
  <g id="Thin-M" transform="matrix(1.0,0.0,0.0,1.0,798.9933658854167,1032.0533854166667)">  <path stroke-dasharray="none" fill="#000000" stroke-miterlimit="2" stroke-width="1px" fill-opacity="1" stroke-opacity="1" stroke-linecap="butt" clip-rule="evenodd" fill-rule="evenodd" stroke="none" stroke-linejoin="round" version="1.1" xmlns:xlink="http://www.w3.org/1999/xlink" xml:space="preserve" xmlns:serif="http://www.serif.com/" d="M32.661,75.781L23.762,84.589C23.762,84.589,17.612,77.379,10.184,83.488C10.184,83.488,-0.031,92.058,11.285,99.543C11.285,99.543,15.57,100.751,17.432,104.772C17.432,104.772,19.247,115.009,31.56,109.635C31.56,109.635,41.524,101.873,32.661,93.855C32.661,93.855,41.64,84.38,41.744,84.589C41.848,84.797,32.661,75.781,32.661,75.781ZM32.661,75.781"/>
  <path fill-opacity="1" stroke="none" fill="#000000" xmlns:serif="http://www.serif.com/" version="1.1" stroke-miterlimit="2" stroke-linejoin="round" xmlns:xlink="http://www.w3.org/1999/xlink" stroke-opacity="1" stroke-width="1px" stroke-linecap="butt" stroke-dasharray="none" xml:space="preserve" fill-rule="evenodd" clip-rule="evenodd" d="M33.854,60.001C33.854,60.001,45.601,49.124,47.34,32.294C47.34,32.294,49.007,15.824,65.414,8.624C65.414,8.624,83.473,-0.053,101.011,14.863C101.011,14.863,116.947,28.319,108.901,51.285C108.901,51.285,103.25,66.866,77.8,71.836C77.8,71.836,62.106,75.163,58.074,83.488L33.854,60.001ZM33.854,60.001"/>
</g>
  <g id="Ultralight-M" transform="matrix(1.0,0.0,0.0,1.0,502.28336588541663,1032.0533854166667)">  <path xmlns:serif="http://www.serif.com/" fill="#000000" stroke-opacity="1" version="1.1" stroke-linejoin="round" fill-rule="evenodd" stroke-miterlimit="2" xmlns:xlink="http://www.w3.org/1999/xlink" stroke-linecap="butt" stroke="none" clip-rule="evenodd" fill-opacity="1" stroke-width="1px" xml:space="preserve" stroke-dasharray="none" d="M32.661,75.781L23.762,84.589C23.762,84.589,17.612,77.379,10.184,83.488C10.184,83.488,-0.031,92.058,11.285,99.543C11.285,99.543,15.57,100.751,17.432,104.772C17.432,104.772,19.247,115.009,31.56,109.635C31.56,109.635,41.524,101.873,32.661,93.855C32.661,93.855,41.64,84.38,41.744,84.589C41.848,84.797,32.661,75.781,32.661,75.781ZM32.661,75.781"/>
  <path xmlns:xlink="http://www.w3.org/1999/xlink" stroke-opacity="1" stroke-dasharray="none" xml:space="preserve" stroke-width="1px" fill-rule="evenodd" stroke-linecap="butt" stroke="none" xmlns:serif="http://www.serif.com/" fill="#000000" clip-rule="evenodd" stroke-miterlimit="2" stroke-linejoin="round" version="1.1" fill-opacity="1" d="M33.854,60.001C33.854,60.001,45.601,49.124,47.34,32.294C47.34,32.294,49.007,15.824,65.414,8.624C65.414,8.624,83.473,-0.053,101.011,14.863C101.011,14.863,116.947,28.319,108.901,51.285C108.901,51.285,103.25,66.866,77.8,71.836C77.8,71.836,62.106,75.163,58.074,83.488L33.854,60.001ZM33.854,60.001"/>
</g>
  <g id="Black-S" transform="matrix(1.0,0.0,0.0,1.0,2888.7048754882812,614.7948950195313)">  <path xmlns:serif="http://www.serif.com/" xml:space="preserve" fill-rule="evenodd" fill="#000000" stroke-miterlimit="2" xmlns:xlink="http://www.w3.org/1999/xlink" fill-opacity="1" clip-rule="evenodd" stroke-width="1px" stroke-linejoin="round" version="1.1" stroke-opacity="1" stroke-linecap="butt" stroke="none" stroke-dasharray="none" d="M25.574,59.337L18.606,66.233C18.606,66.233,13.79,60.587,7.974,65.371C7.974,65.371,-0.024,72.082,8.836,77.942C8.836,77.942,12.191,78.888,13.649,82.037C13.649,82.037,15.071,90.052,24.712,85.844C24.712,85.844,32.513,79.766,25.574,73.488C25.574,73.488,32.604,66.07,32.685,66.233C32.767,66.396,25.574,59.337,25.574,59.337ZM25.574,59.337"/>
  <path clip-rule="evenodd" stroke-opacity="1" version="1.1" fill="#000000" stroke-linecap="butt" stroke="none" fill-rule="evenodd" xml:space="preserve" stroke-width="1px" xmlns:xlink="http://www.w3.org/1999/xlink" xmlns:serif="http://www.serif.com/" stroke-linejoin="round" stroke-dasharray="none" fill-opacity="1" stroke-miterlimit="2" d="M26.508,46.981C26.508,46.981,35.706,38.464,37.067,25.286C37.067,25.286,38.372,12.39,51.219,6.753C51.219,6.753,65.36,-0.041,79.092,11.637C79.092,11.637,91.57,22.174,85.269,40.156C85.269,40.156,80.845,52.356,60.917,56.248C60.917,56.248,48.629,58.853,45.472,65.371L26.508,46.981ZM26.508,46.981"/>
</g>
  <g id="Heavy-S" transform="matrix(1.0,0.0,0.0,1.0,2591.994875488281,614.7948950195313)">  <path stroke="none" xmlns:serif="http://www.serif.com/" stroke-width="1px" xml:space="preserve" clip-rule="evenodd" stroke-miterlimit="2" version="1.1" fill="#000000" stroke-linecap="butt" stroke-dasharray="none" fill-rule="evenodd" stroke-linejoin="round" stroke-opacity="1" xmlns:xlink="http://www.w3.org/1999/xlink" fill-opacity="1" d="M25.574,59.337L18.606,66.233C18.606,66.233,13.79,60.587,7.974,65.371C7.974,65.371,-0.024,72.082,8.836,77.942C8.836,77.942,12.191,78.888,13.649,82.037C13.649,82.037,15.071,90.052,24.712,85.844C24.712,85.844,32.513,79.766,25.574,73.488C25.574,73.488,32.604,66.07,32.685,66.233C32.767,66.396,25.574,59.337,25.574,59.337ZM25.574,59.337"/>
  <path xml:space="preserve" stroke-miterlimit="2" version="1.1" stroke-opacity="1" stroke-linecap="butt" fill="#000000" xmlns:serif="http://www.serif.com/" clip-rule="evenodd" xmlns:xlink="http://www.w3.org/1999/xlink" fill-opacity="1" stroke-linejoin="round" fill-rule="evenodd" stroke="none" stroke-dasharray="none" stroke-width="1px" d="M26.508,46.981C26.508,46.981,35.706,38.464,37.067,25.286C37.067,25.286,38.372,12.39,51.219,6.753C51.219,6.753,65.36,-0.041,79.092,11.637C79.092,11.637,91.57,22.174,85.269,40.156C85.269,40.156,80.845,52.356,60.917,56.248C60.917,56.248,48.629,58.853,45.472,65.371L26.508,46.981ZM26.508,46.981"/>
</g>
  <g id="Bold-S" transform="matrix(1.0,0.0,0.0,1.0,2295.284875488281,614.7948950195313)">  <path stroke-linecap="butt" stroke="none" stroke-dasharray="none" version="1.1" fill-rule="evenodd" xmlns:serif="http://www.serif.com/" clip-rule="evenodd" stroke-miterlimit="2" stroke-opacity="1" xmlns:xlink="http://www.w3.org/1999/xlink" fill="#000000" stroke-linejoin="round" fill-opacity="1" stroke-width="1px" xml:space="preserve" d="M25.574,59.337L18.606,66.233C18.606,66.233,13.79,60.587,7.974,65.371C7.974,65.371,-0.024,72.082,8.836,77.942C8.836,77.942,12.191,78.888,13.649,82.037C13.649,82.037,15.071,90.052,24.712,85.844C24.712,85.844,32.513,79.766,25.574,73.488C25.574,73.488,32.604,66.07,32.685,66.233C32.767,66.396,25.574,59.337,25.574,59.337ZM25.574,59.337"/>
  <path clip-rule="evenodd" fill-opacity="1" stroke="none" stroke-width="1px" version="1.1" stroke-opacity="1" stroke-linejoin="round" stroke-linecap="butt" stroke-miterlimit="2" xml:space="preserve" xmlns:xlink="http://www.w3.org/1999/xlink" fill-rule="evenodd" xmlns:serif="http://www.serif.com/" fill="#000000" stroke-dasharray="none" d="M26.508,46.981C26.508,46.981,35.706,38.464,37.067,25.286C37.067,25.286,38.372,12.39,51.219,6.753C51.219,6.753,65.36,-0.041,79.092,11.637C79.092,11.637,91.57,22.174,85.269,40.156C85.269,40.156,80.845,52.356,60.917,56.248C60.917,56.248,48.629,58.853,45.472,65.371L26.508,46.981ZM26.508,46.981"/>
</g>
  <g id="Semibold-S" transform="matrix(1.0,0.0,0.0,1.0,1998.5748754882811,614.7948950195313)">  <path stroke-linejoin="round" stroke-dasharray="none" xml:space="preserve" version="1.1" fill-rule="evenodd" xmlns:serif="http://www.serif.com/" clip-rule="evenodd" xmlns:xlink="http://www.w3.org/1999/xlink" stroke-opacity="1" stroke-miterlimit="2" stroke-width="1px" stroke="none" fill-opacity="1" fill="#000000" stroke-linecap="butt" d="M25.574,59.337L18.606,66.233C18.606,66.233,13.79,60.587,7.974,65.371C7.974,65.371,-0.024,72.082,8.836,77.942C8.836,77.942,12.191,78.888,13.649,82.037C13.649,82.037,15.071,90.052,24.712,85.844C24.712,85.844,32.513,79.766,25.574,73.488C25.574,73.488,32.604,66.07,32.685,66.233C32.767,66.396,25.574,59.337,25.574,59.337ZM25.574,59.337"/>
  <path xml:space="preserve" clip-rule="evenodd" fill-rule="evenodd" fill-opacity="1" xmlns:serif="http://www.serif.com/" stroke="none" version="1.1" stroke-opacity="1" stroke-linejoin="round" xmlns:xlink="http://www.w3.org/1999/xlink" stroke-linecap="butt" stroke-width="1px" fill="#000000" stroke-miterlimit="2" stroke-dasharray="none" d="M26.508,46.981C26.508,46.981,35.706,38.464,37.067,25.286C37.067,25.286,38.372,12.39,51.219,6.753C51.219,6.753,65.36,-0.041,79.092,11.637C79.092,11.637,91.57,22.174,85.269,40.156C85.269,40.156,80.845,52.356,60.917,56.248C60.917,56.248,48.629,58.853,45.472,65.371L26.508,46.981ZM26.508,46.981"/>
</g>
  <g id="Medium-S" transform="matrix(1.0,0.0,0.0,1.0,1701.864875488281,614.7948950195313)">  <path stroke-opacity="1" xml:space="preserve" xmlns:xlink="http://www.w3.org/1999/xlink" stroke="none" stroke-linejoin="round" stroke-width="1px" stroke-miterlimit="2" fill-opacity="1" fill="#000000" version="1.1" clip-rule="evenodd" stroke-linecap="butt" fill-rule="evenodd" stroke-dasharray="none" xmlns:serif="http://www.serif.com/" d="M25.574,59.337L18.606,66.233C18.606,66.233,13.79,60.587,7.974,65.371C7.974,65.371,-0.024,72.082,8.836,77.942C8.836,77.942,12.191,78.888,13.649,82.037C13.649,82.037,15.071,90.052,24.712,85.844C24.712,85.844,32.513,79.766,25.574,73.488C25.574,73.488,32.604,66.07,32.685,66.233C32.767,66.396,25.574,59.337,25.574,59.337ZM25.574,59.337"/>
  <path stroke-miterlimit="2" stroke-width="1px" xmlns:xlink="http://www.w3.org/1999/xlink" stroke-dasharray="none" xml:space="preserve" fill="#000000" stroke-linecap="butt" xmlns:serif="http://www.serif.com/" version="1.1" stroke-opacity="1" clip-rule="evenodd" fill-rule="evenodd" stroke-linejoin="round" fill-opacity="1" stroke="none" d="M26.508,46.981C26.508,46.981,35.706,38.464,37.067,25.286C37.067,25.286,38.372,12.39,51.219,6.753C51.219,6.753,65.36,-0.041,79.092,11.637C79.092,11.637,91.57,22.174,85.269,40.156C85.269,40.156,80.845,52.356,60.917,56.248C60.917,56.248,48.629,58.853,45.472,65.371L26.508,46.981ZM26.508,46.981"/>
</g>
  <g id="Regular-S" transform="matrix(1.0,0.0,0.0,1.0,1405.154875488281,614.7948950195313)">  <path fill="#000000" xmlns:xlink="http://www.w3.org/1999/xlink" xml:space="preserve" xmlns:serif="http://www.serif.com/" stroke-dasharray="none" stroke-width="1px" clip-rule="evenodd" stroke-opacity="1" fill-rule="evenodd" fill-opacity="1" stroke-miterlimit="2" stroke="none" stroke-linecap="butt" stroke-linejoin="round" version="1.1" d="M25.574,59.337L18.606,66.233C18.606,66.233,13.79,60.587,7.974,65.371C7.974,65.371,-0.024,72.082,8.836,77.942C8.836,77.942,12.191,78.888,13.649,82.037C13.649,82.037,15.071,90.052,24.712,85.844C24.712,85.844,32.513,79.766,25.574,73.488C25.574,73.488,32.604,66.07,32.685,66.233C32.767,66.396,25.574,59.337,25.574,59.337ZM25.574,59.337"/>
  <path stroke-linejoin="round" xmlns:xlink="http://www.w3.org/1999/xlink" xmlns:serif="http://www.serif.com/" fill-rule="evenodd" stroke-miterlimit="2" stroke="none" fill="#000000" stroke-opacity="1" stroke-dasharray="none" xml:space="preserve" clip-rule="evenodd" version="1.1" fill-opacity="1" stroke-linecap="butt" stroke-width="1px" d="M26.508,46.981C26.508,46.981,35.706,38.464,37.067,25.286C37.067,25.286,38.372,12.39,51.219,6.753C51.219,6.753,65.36,-0.041,79.092,11.637C79.092,11.637,91.57,22.174,85.269,40.156C85.269,40.156,80.845,52.356,60.917,56.248C60.917,56.248,48.629,58.853,45.472,65.371L26.508,46.981ZM26.508,46.981"/>
</g>
  <g id="Light-S" transform="matrix(1.0,0.0,0.0,1.0,1108.4448754882812,614.7948950195313)">  <path stroke-opacity="1" stroke-width="1px" xmlns:serif="http://www.serif.com/" stroke-linejoin="round" fill-rule="evenodd" stroke-dasharray="none" fill="#000000" stroke="none" stroke-linecap="butt" clip-rule="evenodd" fill-opacity="1" xmlns:xlink="http://www.w3.org/1999/xlink" version="1.1" xml:space="preserve" stroke-miterlimit="2" d="M25.574,59.337L18.606,66.233C18.606,66.233,13.79,60.587,7.974,65.371C7.974,65.371,-0.024,72.082,8.836,77.942C8.836,77.942,12.191,78.888,13.649,82.037C13.649,82.037,15.071,90.052,24.712,85.844C24.712,85.844,32.513,79.766,25.574,73.488C25.574,73.488,32.604,66.07,32.685,66.233C32.767,66.396,25.574,59.337,25.574,59.337ZM25.574,59.337"/>
  <path xmlns:xlink="http://www.w3.org/1999/xlink" stroke-opacity="1" stroke="none" stroke-miterlimit="2" stroke-width="1px" clip-rule="evenodd" fill-opacity="1" xmlns:serif="http://www.serif.com/" stroke-linejoin="round" xml:space="preserve" stroke-dasharray="none" version="1.1" stroke-linecap="butt" fill="#000000" fill-rule="evenodd" d="M26.508,46.981C26.508,46.981,35.706,38.464,37.067,25.286C37.067,25.286,38.372,12.39,51.219,6.753C51.219,6.753,65.36,-0.041,79.092,11.637C79.092,11.637,91.57,22.174,85.269,40.156C85.269,40.156,80.845,52.356,60.917,56.248C60.917,56.248,48.629,58.853,45.472,65.371L26.508,46.981ZM26.508,46.981"/>
</g>
  <g id="Thin-S" transform="matrix(1.0,0.0,0.0,1.0,811.7348754882813,614.7948950195313)">  <path stroke-dasharray="none" fill="#000000" stroke-miterlimit="2" stroke-width="1px" fill-opacity="1" stroke-opacity="1" stroke-linecap="butt" clip-rule="evenodd" fill-rule="evenodd" stroke="none" stroke-linejoin="round" version="1.1" xmlns:xlink="http://www.w3.org/1999/xlink" xml:space="preserve" xmlns:serif="http://www.serif.com/" d="M25.574,59.337L18.606,66.233C18.606,66.233,13.79,60.587,7.974,65.371C7.974,65.371,-0.024,72.082,8.836,77.942C8.836,77.942,12.191,78.888,13.649,82.037C13.649,82.037,15.071,90.052,24.712,85.844C24.712,85.844,32.513,79.766,25.574,73.488C25.574,73.488,32.604,66.07,32.685,66.233C32.767,66.396,25.574,59.337,25.574,59.337ZM25.574,59.337"/>
  <path fill-opacity="1" stroke="none" fill="#000000" xmlns:serif="http://www.serif.com/" version="1.1" stroke-miterlimit="2" stroke-linejoin="round" xmlns:xlink="http://www.w3.org/1999/xlink" stroke-opacity="1" stroke-width="1px" stroke-linecap="butt" stroke-dasharray="none" xml:space="preserve" fill-rule="evenodd" clip-rule="evenodd" d="M26.508,46.981C26.508,46.981,35.706,38.464,37.067,25.286C37.067,25.286,38.372,12.39,51.219,6.753C51.219,6.753,65.36,-0.041,79.092,11.637C79.092,11.637,91.57,22.174,85.269,40.156C85.269,40.156,80.845,52.356,60.917,56.248C60.917,56.248,48.629,58.853,45.472,65.371L26.508,46.981ZM26.508,46.981"/>
</g>
  <g id="Ultralight-S" transform="matrix(1.0,0.0,0.0,1.0,515.0248754882813,614.7948950195313)">  <path xmlns:serif="http://www.serif.com/" fill="#000000" stroke-opacity="1" version="1.1" stroke-linejoin="round" fill-rule="evenodd" stroke-miterlimit="2" xmlns:xlink="http://www.w3.org/1999/xlink" stroke-linecap="butt" stroke="none" clip-rule="evenodd" fill-opacity="1" stroke-width="1px" xml:space="preserve" stroke-dasharray="none" d="M25.574,59.337L18.606,66.233C18.606,66.233,13.79,60.587,7.974,65.371C7.974,65.371,-0.024,72.082,8.836,77.942C8.836,77.942,12.191,78.888,13.649,82.037C13.649,82.037,15.071,90.052,24.712,85.844C24.712,85.844,32.513,79.766,25.574,73.488C25.574,73.488,32.604,66.07,32.685,66.233C32.767,66.396,25.574,59.337,25.574,59.337ZM25.574,59.337"/>
  <path xmlns:xlink="http://www.w3.org/1999/xlink" stroke-opacity="1" stroke-dasharray="none" xml:space="preserve" stroke-width="1px" fill-rule="evenodd" stroke-linecap="butt" stroke="none" xmlns:serif="http://www.serif.com/" fill="#000000" clip-rule="evenodd" stroke-miterlimit="2" stroke-linejoin="round" version="1.1" fill-opacity="1" d="M26.508,46.981C26.508,46.981,35.706,38.464,37.067,25.286C37.067,25.286,38.372,12.39,51.219,6.753C51.219,6.753,65.36,-0.041,79.092,11.637C79.092,11.637,91.57,22.174,85.269,40.156C85.269,40.156,80.845,52.356,60.917,56.248C60.917,56.248,48.629,58.853,45.472,65.371L26.508,46.981ZM26.508,46.981"/>
</g>
 </g>
</svg>
