<?xml version="1.0" encoding="utf-8"?>
<!-- Generator: Adobe Illustrator 24.1.1, SVG Export Plug-In . SVG Version: 6.00 Build 0)  -->
<svg version="1.1" id="Layer_1" xmlns="http://www.w3.org/2000/svg" xmlns:xlink="http://www.w3.org/1999/xlink" x="0px" y="0px"
	 viewBox="0 0 3300 2200" style="enable-background:new 0 0 3300 2200;" xml:space="preserve">
<style type="text/css">
	.st0{fill:#FFFFFF;}
	.st1{fill:none;stroke:#000000;stroke-width:0.5;}
	.st2{font-family:'Arial-BoldMT';}
	.st3{font-size:13px;}
	.st4{font-family:'ArialMT';}
	.st5{fill:none;stroke:#00AEEF;stroke-width:0.5;}
	.st6{fill:#27AAE1;}
	.st7{fill:none;stroke:#27AAE1;stroke-width:0.5;}
</style>
<g id="Notes">
	<rect id="artboard" class="st0" width="3300" height="2200"/>
	<line class="st1" x1="263" y1="292" x2="3036" y2="292"/>
	<text transform="matrix(1 0 0 1 263 322)" class="st2 st3">Weight/Scale Variations</text>
	<text transform="matrix(1 0 0 1 534.0632 322)" class="st4 st3">Ultralight</text>
	<text transform="matrix(1 0 0 1 843.7776 322)" class="st4 st3">Thin</text>
	<text transform="matrix(1 0 0 1 1139.035 322)" class="st4 st3">Light</text>
	<text transform="matrix(1 0 0 1 1427.0773 322)" class="st4 st3">Regular</text>
	<text transform="matrix(1 0 0 1 1723.4419 322)" class="st4 st3">Medium</text>
	<text transform="matrix(1 0 0 1 2016.1719 322)" class="st4 st3">Semibold</text>
	<text transform="matrix(1 0 0 1 2326.9705 322)" class="st4 st3">Bold</text>
	<text transform="matrix(1 0 0 1 2618.2659 322)" class="st4 st3">Heavy</text>
	<text transform="matrix(1 0 0 1 2917.5054 322)" class="st4 st3">Black</text>
	<line class="st1" x1="263" y1="1903" x2="3036" y2="1903"/>
	<g transform="matrix(1 0 0 1 263 1933)">
		<path d="M9.2,0.8c4.3,0,7.9-3.6,7.9-7.9S13.5-15,9.2-15s-7.9,3.6-7.9,7.9C1.4-2.7,5,0.8,9.2,0.8z M9.2-0.7C5.7-0.7,2.9-3.5,2.9-7
			c0-3.6,2.8-6.4,6.4-6.4s6.4,2.8,6.4,6.4C15.6-3.5,12.8-0.7,9.2-0.7z M5.7-7.1c0,0.4,0.3,0.7,0.8,0.7h2.1v2.1
			c0,0.4,0.3,0.7,0.7,0.7S10-3.9,10-4.3v-2.1h2.1c0.4,0,0.7-0.3,0.7-0.7c0-0.4-0.3-0.7-0.7-0.7H10v-2.1c0-0.4-0.3-0.8-0.7-0.8
			s-0.7,0.3-0.7,0.8v2.1H6.4C6-7.8,5.7-7.5,5.7-7.1z"/>
	</g>
	<g transform="matrix(1 0 0 1 281.867 1933)">
		<path d="M11.7,2.9c5.4,0,10-4.5,10-10c0-5.4-4.5-10-10-10c-5.4,0-10,4.5-10,10C1.7-1.6,6.3,2.9,11.7,2.9z M11.7,1.3
			C7.1,1.3,3.4-2.4,3.4-7s3.7-8.3,8.3-8.3S20-11.7,20-7.1C20-2.4,16.3,1.3,11.7,1.3z M7.2-7.1c0,0.5,0.3,0.8,0.8,0.8h2.9v2.9
			c0,0.5,0.3,0.8,0.8,0.8s0.8-0.3,0.8-0.8v-2.9h2.9c0.5,0,0.8-0.3,0.8-0.8s-0.3-0.8-0.8-0.8h-2.9v-2.9c0-0.5-0.3-0.8-0.8-0.8
			s-0.8,0.3-0.8,0.8v2.9H8C7.5-7.9,7.2-7.5,7.2-7.1z"/>
	</g>
	<g transform="matrix(1 0 0 1 305.646 1933)">
		<path d="M15,5.7c7,0,12.7-5.8,12.7-12.7c0-7-5.8-12.7-12.7-12.7C8-19.8,2.3-14,2.3-7.1C2.3-0.1,8,5.7,15,5.7z M15,3.8
			C8.9,3.8,4.1-1,4.1-7S8.9-17.9,15-17.9c6,0,10.9,4.9,10.9,10.9S21,3.8,15,3.8z M9.2-7.1c0,0.5,0.4,0.9,0.9,0.9H14v4
			c0,0.5,0.4,0.9,0.9,0.9s0.9-0.4,0.9-0.9v-4h4c0.5,0,0.9-0.4,0.9-0.9S20.3-8,19.8-8h-4v-3.9c0-0.5-0.4-0.9-0.9-0.9S14-12.4,14-11.9
			V-8h-3.9C9.6-8,9.2-7.6,9.2-7.1z"/>
	</g>
	<text transform="matrix(1 0 0 1 263 1953)" class="st2 st3">Design Variations</text>
	<text transform="matrix(1 0 0 1 263 1971)" class="st4 st3">Symbols are supported in up to nine weights and three scales.</text>
	<text transform="matrix(1 0 0 1 263 1989)" class="st4 st3">For optimal layout with text and other symbols, vertically align</text>
	<text transform="matrix(1 0 0 1 263 2007)" class="st4 st3">symbols with the adjacent text.</text>
	<line class="st5" x1="776" y1="1919" x2="776" y2="1933"/>
	<g transform="matrix(1 0 0 1 776 1933)">
		<path d="M3.3,0.2c0.5,0,0.8-0.2,1-0.7L5.5-4h5.8l1.3,3.4C12.7,0,13,0.2,13.5,0.2s0.9-0.3,0.9-0.8c0-0.2,0-0.3-0.1-0.5L9.7-13.4
			C9.4-14,9-14.3,8.4-14.3s-1,0.3-1.2,0.9L2.6-1.2C2.5-1,2.5-0.8,2.5-0.6C2.5-0.1,2.8,0.2,3.3,0.2z M6-5.5l2.4-6.6l0,0l2.4,6.6
			C10.8-5.5,6-5.5,6-5.5z"/>
	</g>
	<line class="st5" x1="793.2" y1="1919" x2="793.2" y2="1933"/>
	<text transform="matrix(1 0 0 1 776 1953)" class="st2 st3">Margins</text>
	<text transform="matrix(1 0 0 1 776 1971)" class="st4 st3">Leading and trailing margins on the left and right side of each symbol</text>
	<text transform="matrix(1 0 0 1 776 1989)" class="st4 st3">can be adjusted by modifying the x-location of the margin guidelines.</text>
	<text transform="matrix(1 0 0 1 776 2007)" class="st4 st3">Modifications are automatically applied proportionally to all</text>
	<text transform="matrix(1 0 0 1 776 2025)" class="st4 st3">scales and weights.</text>
	<g transform="matrix(1 0 0 1 1289 1933)">
		<path d="M2.8,1.9l1.7,1.7c0.9,0.9,1.8,0.8,2.8-0.2L18-8.4l-1-1L6.4,2.3C6,2.7,5.7,2.8,5.2,2.3L4.1,1.1C3.6,0.7,3.7,0.3,4.1,0
			l11.5-10.8l-1-1L3-0.9C2.1,0,2,1,2.8,1.9z M9.3-16.3c-0.4,0.4-0.4,1-0.2,1.4s0.7,0.6,1.3,0.4c1.5-0.3,3-0.4,4.4,0.5l-0.6,1.5
			c-0.3,0.8-0.2,1.4,0.4,2l2.3,2.3c0.5,0.5,0.9,0.5,1.5,0.4l1-0.2l0.7,0.7v0.6c0,0.5,0.1,0.9,0.6,1.4l0.8,0.7c0.5,0.5,1.1,0.5,1.6,0
			L26-7.5C26.5-8,26.4-8.6,26-9l-1-0.9c-0.5-0.5-0.9-0.6-1.3-0.6h-0.6l-0.6-0.6l0.2-1.1c0.1-0.6,0-1-0.6-1.6L19.9-16
			C16.6-19.3,12.1-19.2,9.3-16.3z M10.8-16c2.4-1.8,5.7-1.5,7.9,0.8l2.4,2.4c0.2,0.2,0.3,0.4,0.2,0.8L21-10.5L22.5-9l1-0.1
			c0.3,0,0.3,0,0.5,0.2l0.6,0.6l-2.4,2.4l-0.6-0.6c-0.2-0.2-0.2-0.3-0.2-0.5l0.1-1L20-9.5l-1.5,0.3c-0.3,0.1-0.5,0-0.7-0.2l-2-2
			c-0.3-0.2-0.3-0.4-0.1-0.8l0.9-2.1C15-15.8,13-16.4,11-15.8C10.7-15.7,10.6-15.9,10.8-16z"/>
	</g>
	<text transform="matrix(1 0 0 1 1289 1953)" class="st2 st3">Exporting</text>
	<text transform="matrix(1 0 0 1 1289 1971)" class="st4 st3">Symbols should be outlined when exporting to ensure the</text>
	<text transform="matrix(1 0 0 1 1289 1989)" class="st4 st3">design is preserved when submitting to Xcode.</text>
	<text id="template-version" transform="matrix(1 0 0 1 2952.4204 1933)" class="st4 st3">Template v.4.0</text>
	<text transform="matrix(1 0 0 1 2865.4575 1951)" class="st4 st3">Requires Xcode 14 or greater</text>
	<text id="descriptive-name" transform="matrix(1 0 0 1 2910.272 1969)" class="st4 st3">Generated from chest</text>
	<text transform="matrix(1 0 0 1 2912.4175 1987)" class="st4 st3">Typeset at 100 points</text>
	<text transform="matrix(1 0 0 1 263 726)" class="st4 st3">Small</text>
	<text transform="matrix(1 0 0 1 263 1156)" class="st4 st3">Medium</text>
	<text transform="matrix(1 0 0 1 263 1586)" class="st4 st3">Large</text>
</g>
<g id="Guides">
	<g id="H-reference" transform="matrix(1 0 0 1 339 696)">
		<path class="st6" d="M1,0h2.6l25.7-67.1H30v-3.3h-1.9L1,0z M11.7-24.5H47l-0.8-2.2H12.4L11.7-24.5z M55.1,0h2.6L30.6-70.5h-1.2
			v3.3L55.1,0z"/>
	</g>
	<line id="Baseline-S" class="st7" x1="263" y1="696" x2="3036" y2="696"/>
	<line id="Capline-S" class="st7" x1="263" y1="625.5" x2="3036" y2="625.5"/>
	<g id="H-reference_1_" transform="matrix(1 0 0 1 339 1126)">
		<path class="st6" d="M1,0h2.6l25.7-67.1H30v-3.3h-1.9L1,0z M11.7-24.5H47l-0.8-2.2H12.4L11.7-24.5z M55.1,0h2.6L30.6-70.5h-1.2
			v3.3L55.1,0z"/>
	</g>
	<line id="Baseline-M" class="st7" x1="263" y1="1126" x2="3036" y2="1126"/>
	<line id="Capline-M" class="st7" x1="263" y1="1055.5" x2="3036" y2="1055.5"/>
	<g id="H-reference_2_" transform="matrix(1 0 0 1 339 1556)">
		<path class="st6" d="M1,0h2.6l25.7-67.1H30v-3.3h-1.9L1,0z M11.7-24.5H47l-0.8-2.2H12.4L11.7-24.5z M55.1,0h2.6L30.6-70.5h-1.2
			v3.3L55.1,0z"/>
	</g>
	<line id="Baseline-L" class="st7" x1="263" y1="1556" x2="3036" y2="1556"/>
	<line id="Capline-L" class="st7" x1="263" y1="1485.5" x2="3036" y2="1485.5"/>
	<line id="left-margin-Regular-M" class="st5" x1="1391.3" y1="1030.8" x2="1391.3" y2="1150.1"/>
	<line id="right-margin-Regular-M" class="st5" x1="1508.4" y1="1030.8" x2="1508.4" y2="1150.1"/>
</g>
<g id="Symbols">
	<g id="Black-L" transform="matrix(1 0 0 1 2854.19 1556)">
		<path d="M-3.515-88.62c0,0,7.276-15.189,32.397-11.249c0,0,5.09-13.303,33.445-12.748h32.696c0,0,23.021-2.043,33.896,12.748
			c0,0,23.201-5.758,32.696,11.249c2.865,0.704-18.733,90.595-26.247,102.138l-6.449,31.795H28.882l-5.999-31.795
			C9.021-21.512,0.93-55.235-3.515-88.62z M138.819-50.044c-2.165-0.995-4.723-0.046-5.716,2.117
			c-3.333,7.255-14.207,14.298-33.891,10.262c-16.129-3.307-15.728-15.953-15.626-17.413c0.188-2.36-1.565-4.433-3.927-4.636
			c-0.305-0.027-0.606-0.02-0.898,0.016c-0.025,0.001-0.048-0.004-0.072-0.002c-2.36,0.184-4.129,2.255-3.962,4.617
			c0.101,1.434,0.523,14.108-15.626,17.418c-19.677,4.033-30.559-3.008-33.892-10.263c-0.995-2.163-3.552-3.11-5.716-2.116
			c-2.163,0.994-3.11,3.554-2.116,5.716c3.796,8.259,13.925,16.456,30.901,16.456c3.833-0.001,8.018-0.419,12.555-1.348
			c9.274-1.901,14.973-6.406,18.324-11.397c3.351,4.992,9.05,9.496,18.325,11.397c4.538,0.93,8.721,1.348,12.555,1.348
			c16.974-0.001,27.105-8.197,30.9-16.456C141.93-46.491,140.983-49.05,138.819-50.044z M89.378-1.714h11.902
			c2.38,0,4.31-1.93,4.31-4.31s-1.93-4.31-4.31-4.31H89.378c-2.079,0-4.122-0.432-6.019-1.243v-5.698c0-2.38-1.93-4.31-4.31-4.31
			c-2.38,0-4.31,1.93-4.31,4.31v5.763c-1.867,0.78-3.869,1.203-5.908,1.203H56.929c-2.38,0-4.31,1.93-4.31,4.31s1.93,4.31,4.31,4.31
			h11.902c2.004,0,3.986-0.264,5.908-0.754v13.306c-1.867,0.78-3.869,1.203-5.908,1.203H56.929c-2.38,0-4.31,1.93-4.31,4.31
			s1.93,4.31,4.31,4.31h11.902c2.004,0,3.986-0.264,5.908-0.754v8.521c0,2.38,1.93,4.31,4.31,4.31c2.38,0,4.31-1.93,4.31-4.31
			v-8.575c1.957,0.508,3.976,0.781,6.019,0.781h11.902c2.38,0,4.31-1.93,4.31-4.31s-1.93-4.31-4.31-4.31H89.378
			c-2.079,0-4.122-0.432-6.019-1.243V-2.495C85.316-1.987,87.335-1.714,89.378-1.714z"/>
	</g>
	<g id="Heavy-L" transform="matrix(1 0 0 1 2558.42 1556)">
		<path d="M-2.697-87.499c0,0,7.128-14.879,31.736-11.019c0,0,4.986-13.031,32.763-12.488H93.83c0,0,22.552-2.001,33.205,12.488
			c0,0,22.728-5.64,32.028,11.019c2.806,0.69-18.351,88.746-25.711,100.053L127.034,43.7H29.038l-5.877-31.146
			C9.583-21.761,1.657-54.795-2.697-87.499z M136.732-49.711c-2.121-0.974-4.627-0.045-5.599,2.074
			c-3.265,7.106-13.917,14.006-33.2,10.053c-15.8-3.239-15.407-15.628-15.307-17.058c0.184-2.312-1.533-4.343-3.847-4.541
			c-0.299-0.026-0.593-0.019-0.88,0.015c-0.024,0.001-0.047-0.003-0.071-0.002c-2.312,0.181-4.045,2.209-3.881,4.523
			c0.099,1.405,0.512,13.82-15.307,17.063c-19.276,3.951-29.935-2.946-33.2-10.054c-0.974-2.118-3.479-3.046-5.6-2.073
			c-2.118,0.974-3.047,3.481-2.073,5.6c3.719,8.09,13.641,16.12,30.27,16.12c3.755-0.001,7.854-0.41,12.299-1.321
			c9.085-1.862,14.667-6.275,17.95-11.165c3.283,4.89,8.865,9.303,17.951,11.165c4.446,0.911,8.543,1.321,12.299,1.321
			c16.628-0.001,26.552-8.03,30.27-16.12C139.78-46.23,138.851-48.737,136.732-49.711z M88.3-2.367h11.66
			c2.331,0,4.222-1.89,4.222-4.222s-1.89-4.222-4.222-4.222H88.3c-2.037,0-4.038-0.424-5.896-1.217v-5.581
			c0-2.331-1.89-4.222-4.222-4.222s-4.222,1.89-4.222,4.222v5.646c-1.829,0.764-3.79,1.178-5.788,1.178h-11.66
			c-2.331,0-4.222,1.89-4.222,4.222s1.89,4.222,4.222,4.222h11.66c1.963,0,3.904-0.259,5.788-0.739V9.954
			c-1.829,0.764-3.79,1.178-5.788,1.178h-11.66c-2.331,0-4.222,1.89-4.222,4.222s1.89,4.222,4.222,4.222h11.66
			c1.963,0,3.904-0.259,5.788-0.739v8.347c0,2.331,1.89,4.222,4.222,4.222s4.222-1.89,4.222-4.222v-8.4
			c1.917,0.498,3.895,0.765,5.896,0.765h11.66c2.331,0,4.222-1.89,4.222-4.222s-1.89-4.222-4.222-4.222H88.3
			c-2.037,0-4.038-0.424-5.896-1.217V-3.132C84.32-2.634,86.299-2.367,88.3-2.367z"/>
	</g>
	<g id="Bold-L" transform="matrix(1 0 0 1 2262.89 1556)">
		<path d="M-2.249-86.378c0,0,6.979-14.569,31.074-10.789c0,0,4.882-12.76,32.08-12.228h31.361c0,0,22.082-1.959,32.513,12.228
			c0,0,22.254-5.523,31.361,10.789c2.748,0.675-17.969,86.897-25.175,97.969l-6.186,30.497H28.825L23.071,11.59
			C9.775-22.01,2.014-54.356-2.249-86.378z M134.275-49.377c-2.077-0.954-4.53-0.044-5.482,2.031
			c-3.197,6.958-13.628,13.714-32.508,9.844c-15.471-3.172-15.086-15.302-14.988-16.702c0.18-2.264-1.501-4.252-3.767-4.447
			c-0.293-0.026-0.581-0.019-0.861,0.015c-0.024,0.001-0.046-0.003-0.069-0.002c-2.264,0.177-3.96,2.163-3.8,4.429
			c0.097,1.375,0.501,13.532-14.988,16.707c-18.874,3.869-29.311-2.885-32.509-9.844c-0.954-2.074-3.407-2.983-5.483-2.03
			c-2.074,0.953-2.983,3.409-2.03,5.483c3.641,7.922,13.357,15.785,29.64,15.784c3.677-0.001,7.69-0.402,12.042-1.293
			c8.896-1.823,14.362-6.144,17.576-10.932c3.214,4.788,8.681,9.109,17.577,10.932c4.353,0.892,8.365,1.293,12.042,1.293
			c16.281-0.001,25.999-7.863,29.639-15.785C137.259-45.969,136.35-48.424,134.275-49.377z M86.852-3.02h11.417
			c2.283,0,4.134-1.851,4.134-4.134s-1.851-4.134-4.134-4.134H86.852c-1.994,0-3.954-0.415-5.774-1.192v-5.465
			c0-2.283-1.851-4.134-4.134-4.134c-2.283,0-4.134,1.851-4.134,4.134v5.528c-1.791,0.749-3.711,1.154-5.667,1.154H55.727
			c-2.283,0-4.134,1.851-4.134,4.134s1.851,4.134,4.134,4.134h11.417c1.922,0,3.823-0.254,5.667-0.723V9.045
			c-1.791,0.749-3.711,1.154-5.667,1.154H55.727c-2.283,0-4.134,1.851-4.134,4.134s1.851,4.134,4.134,4.134h11.417
			c1.922,0,3.823-0.254,5.667-0.723v8.173c0,2.283,1.851,4.134,4.134,4.134c2.283,0,4.134-1.851,4.134-4.134v-8.225
			c1.877,0.487,3.814,0.749,5.774,0.749h11.417c2.283,0,4.134-1.851,4.134-4.134s-1.851-4.134-4.134-4.134H86.852
			c-1.994,0-3.954-0.415-5.774-1.192V-3.769C82.955-3.282,84.893-3.02,86.852-3.02z"/>
	</g>
	<g id="Semibold-L" transform="matrix(1 0 0 1 1966.99 1556)">
		<path d="M-1.332-85.257c0,0,6.831-14.259,30.413-10.56c0,0,4.778-12.488,31.398-11.968h30.694c0,0,21.612-1.918,31.821,11.968
			c0,0,21.781-5.405,30.694,10.56c2.689,0.661-17.586,85.048-24.64,95.884l-6.054,29.848H29.081L23.45,10.627
			C10.437-22.258,2.841-53.916-1.332-85.257z M132.288-49.044c-2.033-0.934-4.434-0.043-5.366,1.987
			c-3.129,6.81-13.338,13.423-31.816,9.634c-15.142-3.104-14.765-14.977-14.669-16.347c0.176-2.216-1.469-4.162-3.687-4.352
			c-0.287-0.025-0.568-0.018-0.843,0.015c-0.023,0.001-0.045-0.003-0.068-0.002c-2.216,0.173-3.876,2.117-3.719,4.334
			c0.095,1.346,0.491,13.244-14.669,16.352c-18.473,3.786-28.688-2.824-31.817-9.635c-0.934-2.03-3.334-2.919-5.366-1.987
			c-2.03,0.933-2.92,3.336-1.987,5.366c3.564,7.753,13.073,15.449,29.009,15.448c3.599-0.001,7.527-0.393,11.786-1.266
			c8.707-1.785,14.056-6.014,17.202-10.7c3.146,4.686,8.496,8.915,17.203,10.7c4.261,0.873,8.187,1.266,11.786,1.266
			c15.935-0.001,25.446-7.695,29.008-15.449C135.209-45.708,134.319-48.111,132.288-49.044z M85.874-3.673h11.174
			c2.234,0,4.046-1.812,4.046-4.046s-1.812-4.046-4.046-4.046H85.874c-1.952,0-3.87-0.406-5.651-1.167v-5.349
			c0-2.234-1.812-4.046-4.046-4.046s-4.046,1.812-4.046,4.046v5.41c-1.753,0.733-3.632,1.129-5.547,1.129H55.411
			c-2.234,0-4.046,1.812-4.046,4.046s1.812,4.046,4.046,4.046h11.174c1.881,0,3.742-0.248,5.547-0.708V8.135
			c-1.753,0.733-3.632,1.129-5.547,1.129H55.411c-2.234,0-4.046,1.812-4.046,4.046s1.812,4.046,4.046,4.046h11.174
			c1.881,0,3.742-0.248,5.547-0.708v7.999c0,2.234,1.812,4.046,4.046,4.046s4.046-1.812,4.046-4.046v-8.05
			c1.837,0.477,3.733,0.733,5.651,0.733h11.174c2.234,0,4.046-1.812,4.046-4.046s-1.812-4.046-4.046-4.046H85.874
			c-1.952,0-3.87-0.406-5.651-1.167V-4.406C82.06-3.929,83.956-3.673,85.874-3.673z"/>
	</g>
	<g id="Medium-L" transform="matrix(1 0 0 1 1670.9 1556)">
		<path d="M-0.214-84.137c0,0,6.682-13.949,29.752-10.33c0,0,4.674-12.217,30.715-11.708H90.28c0,0,21.142-1.876,31.129,11.708
			c0,0,21.307-5.288,30.027,10.33c2.631,0.646-17.204,83.199-24.104,93.8l-5.922,29.199H29.538l-5.51-29.199
			C11.298-22.507,3.868-53.477-0.214-84.137z M130.501-48.71c-1.989-0.913-4.337-0.042-5.249,1.944
			c-3.061,6.662-13.048,13.131-31.125,9.425c-14.813-3.037-14.444-14.651-14.35-15.992c0.173-2.168-1.437-4.071-3.607-4.258
			c-0.281-0.025-0.556-0.018-0.825,0.014c-0.023,0.001-0.044-0.003-0.066-0.002c-2.168,0.169-3.792,2.071-3.638,4.24
			c0.093,1.317,0.48,12.956-14.35,15.996c-18.071,3.704-28.064-2.762-31.125-9.425c-0.913-1.986-3.262-2.856-5.25-1.944
			c-1.986,0.913-2.856,3.264-1.944,5.25c3.486,7.585,12.789,15.113,28.378,15.112c3.521-0.001,7.363-0.385,11.53-1.238
			c8.517-1.746,13.75-5.883,16.828-10.467c3.078,4.584,8.311,8.721,16.829,10.467c4.168,0.854,8.009,1.238,11.53,1.238
			c15.588-0.001,24.893-7.528,28.378-15.113C133.358-45.447,132.488-47.797,130.501-48.71z M85.096-4.325h10.931
			c2.186,0,3.958-1.772,3.958-3.958s-1.772-3.958-3.958-3.958H85.096c-1.909,0-3.786-0.397-5.528-1.141v-5.233
			c0-2.186-1.772-3.958-3.958-3.958s-3.958,1.772-3.958,3.958v5.293c-1.715,0.717-3.553,1.105-5.426,1.105H55.295
			c-2.186,0-3.958,1.772-3.958,3.958s1.772,3.958,3.958,3.958h10.931c1.84,0,3.66-0.243,5.426-0.693v12.22
			c-1.715,0.717-3.553,1.105-5.426,1.105H55.295c-2.186,0-3.958,1.772-3.958,3.958s1.772,3.958,3.958,3.958h10.931
			c1.84,0,3.66-0.243,5.426-0.693v7.825c0,2.186,1.772,3.958,3.958,3.958s3.958-1.772,3.958-3.958v-7.875
			c1.797,0.467,3.652,0.717,5.528,0.717h10.931c2.186,0,3.958-1.772,3.958-3.958s-1.772-3.958-3.958-3.958H85.096
			c-1.909,0-3.786-0.397-5.528-1.141V-5.043C81.365-4.576,83.219-4.325,85.096-4.325z"/>
	</g>
	<g id="Regular-L" transform="matrix(1 0 0 1 1374.99 1556)">
		<path d="M0.604-83.016c0,0,6.534-13.639,29.091-10.101c0,0,4.57-11.945,30.032-11.447h29.359c0,0,20.672-1.834,30.438,11.447
			c0,0,20.834-5.17,29.359,10.101c2.572,0.632-16.822,81.35-23.568,91.715l-5.791,28.55H29.695l-5.387-28.55
			C11.86-22.756,4.595-53.037,0.604-83.016z M128.414-48.377c-1.944-0.893-4.241-0.041-5.132,1.901
			c-2.993,6.514-12.758,12.839-30.433,9.215C78.365-40.23,78.725-51.586,78.817-52.897c0.169-2.12-1.405-3.981-3.527-4.163
			c-0.274-0.024-0.544-0.018-0.806,0.014c-0.022,0.001-0.043-0.003-0.065-0.002c-2.12,0.166-3.707,2.025-3.558,4.146
			c0.091,1.287,0.469,12.668-14.031,15.641c-17.669,3.622-27.44-2.701-30.433-9.216c-0.893-1.942-3.189-2.792-5.133-1.9
			c-1.942,0.893-2.793,3.191-1.9,5.133c3.409,7.416,12.504,14.777,27.748,14.776c3.442-0.001,7.2-0.376,11.274-1.211
			c8.328-1.707,13.445-5.752,16.454-10.234c3.009,4.482,8.126,8.527,16.455,10.234c4.075,0.835,7.831,1.211,11.274,1.211
			c15.242-0.001,24.339-7.361,27.747-14.777C131.207-45.186,130.356-47.484,128.414-48.377z M84.018-4.978h10.688
			c2.137,0,3.87-1.733,3.87-3.87s-1.733-3.87-3.87-3.87H84.018c-1.867,0-3.702-0.388-5.405-1.116v-5.116
			c0-2.137-1.733-3.87-3.87-3.87s-3.87,1.733-3.87,3.87v5.175c-1.676,0.701-3.474,1.08-5.306,1.08H54.879
			c-2.137,0-3.87,1.733-3.87,3.87s1.733,3.87,3.87,3.87h10.688c1.8,0,3.579-0.237,5.306-0.677V6.316
			c-1.676,0.701-3.474,1.08-5.306,1.08H54.879c-2.137,0-3.87,1.733-3.87,3.87s1.733,3.87,3.87,3.87h10.688
			c1.8,0,3.579-0.237,5.306-0.677v7.651c0,2.137,1.733,3.87,3.87,3.87s3.87-1.733,3.87-3.87v-7.7
			c1.757,0.456,3.57,0.701,5.405,0.701h10.688c2.137,0,3.87-1.733,3.87-3.87s-1.733-3.87-3.87-3.87H84.018
			c-1.867,0-3.702-0.388-5.405-1.116V-5.68C80.37-5.223,82.183-4.978,84.018-4.978z"/>
	</g>
	<g id="Light-L" transform="matrix(1 0 0 1 1079.2 1556)">
		<path d="M1.291-81.895c0,0,6.385-13.329,28.43-9.871c0,0,4.467-11.674,29.35-11.187h28.692c0,0,20.203-1.793,29.746,11.187
			c0,0,20.36-5.053,28.692,9.871c2.514,0.618-16.439,79.501-23.033,89.631l-5.659,27.902H29.721L24.456,7.736
			C12.292-23.005,5.192-52.598,1.291-81.895z M126.197-48.043c-1.9-0.873-4.145-0.04-5.016,1.858
			c-2.925,6.366-12.468,12.547-29.741,9.006c-14.154-2.902-13.802-14-13.712-15.281c0.165-2.071-1.373-3.89-3.447-4.068
			c-0.268-0.024-0.531-0.017-0.788,0.014c-0.022,0.001-0.042-0.003-0.063-0.002c-2.071,0.162-3.623,1.979-3.477,4.052
			c0.089,1.258,0.459,12.38-13.712,15.285c-17.268,3.54-26.817-2.64-29.742-9.006c-0.873-1.898-3.117-2.729-5.016-1.857
			c-1.898,0.872-2.729,3.118-1.857,5.016c3.331,7.248,12.22,14.441,27.117,14.441c3.364-0.001,7.036-0.367,11.017-1.183
			c8.139-1.668,13.139-5.621,16.08-10.002c2.941,4.38,7.942,8.334,16.081,10.002c3.983,0.816,7.653,1.183,11.017,1.183
			c14.896-0.001,23.786-7.194,27.116-14.441C128.927-44.925,128.095-47.171,126.197-48.043z M82.809-5.631h10.445
			c2.089,0,3.782-1.693,3.782-3.782s-1.693-3.782-3.782-3.782H82.809c-1.825,0-3.617-0.379-5.282-1.09v-5
			c0-2.089-1.693-3.782-3.782-3.782c-2.089,0-3.782,1.693-3.782,3.782v5.058c-1.638,0.685-3.395,1.056-5.185,1.056H54.333
			c-2.089,0-3.782,1.693-3.782,3.782s1.693,3.782,3.782,3.782h10.445c1.759,0,3.498-0.232,5.185-0.662V5.407
			c-1.638,0.685-3.395,1.056-5.185,1.056H54.333c-2.089,0-3.782,1.693-3.782,3.782s1.693,3.782,3.782,3.782h10.445
			c1.759,0,3.498-0.232,5.185-0.662v7.477c0,2.089,1.693,3.782,3.782,3.782c2.089,0,3.782-1.693,3.782-3.782v-7.525
			c1.717,0.446,3.489,0.685,5.282,0.685h10.445c2.089,0,3.782-1.693,3.782-3.782s-1.693-3.782-3.782-3.782H82.809
			c-1.825,0-3.617-0.379-5.282-1.09V-6.316C79.244-5.87,81.017-5.631,82.809-5.631z"/>
	</g>
	<g id="Thin-L" transform="matrix(1 0 0 1 783.716 1556)">
		<path d="M1.759-80.774c0,0,6.237-13.019,27.769-9.642c0,0,4.363-11.402,28.667-10.927H86.22c0,0,19.733-1.751,29.054,10.927
			c0,0,19.887-4.935,28.025,9.642c2.455,0.603-16.057,77.653-22.497,87.547l-5.528,27.253H29.527L24.385,6.772
			C12.504-23.253,5.569-52.158,1.759-80.774z M123.76-47.709c-1.856-0.853-4.048-0.039-4.899,1.815
			c-2.857,6.218-12.178,12.255-29.05,8.796C75.986-39.933,76.33-50.773,76.417-52.024c0.161-2.023-1.341-3.8-3.366-3.974
			c-0.262-0.023-0.519-0.017-0.77,0.014c-0.021,0.001-0.041-0.003-0.062-0.002c-2.023,0.158-3.539,1.933-3.396,3.957
			c0.087,1.229,0.448,12.092-13.394,14.93c-16.866,3.457-26.193-2.578-29.05-8.797c-0.853-1.854-3.044-2.665-4.9-1.814
			c-1.854,0.852-2.666,3.046-1.814,4.9c3.254,7.079,11.936,14.105,26.486,14.105c3.286-0.001,6.872-0.359,10.761-1.156
			c7.949-1.629,12.834-5.491,15.706-9.769c2.872,4.279,7.757,8.14,15.707,9.769c3.89,0.797,7.475,1.156,10.761,1.156
			c14.549-0.001,23.233-7.026,26.486-14.105C126.426-44.664,125.614-46.857,123.76-47.709z M81.381-6.284h10.202
			c2.04,0,3.694-1.654,3.694-3.694s-1.654-3.694-3.694-3.694H81.381c-1.782,0-3.533-0.371-5.159-1.065v-4.884
			c0-2.04-1.654-3.694-3.694-3.694s-3.694,1.654-3.694,3.694v4.94c-1.6,0.669-3.317,1.031-5.064,1.031H53.567
			c-2.04,0-3.694,1.654-3.694,3.694s1.654,3.694,3.694,3.694h10.202c1.718,0,3.416-0.227,5.064-0.646V4.497
			c-1.6,0.669-3.317,1.031-5.064,1.031H53.567c-2.04,0-3.694,1.654-3.694,3.694s1.654,3.694,3.694,3.694h10.202
			c1.718,0,3.416-0.227,5.064-0.646v7.303c0,2.04,1.654,3.694,3.694,3.694s3.694-1.654,3.694-3.694v-7.35
			c1.677,0.436,3.408,0.669,5.159,0.669h10.202c2.04,0,3.694-1.654,3.694-3.694s-1.654-3.694-3.694-3.694H81.381
			c-1.782,0-3.533-0.371-5.159-1.065V-6.953C77.899-6.518,79.63-6.284,81.381-6.284z"/>
	</g>
	<g id="Ultralight-L" transform="matrix(1 0 0 1 487.631 1556)">
		<path d="M2.875-79.653c0,0,6.088-12.709,27.107-9.412c0,0,4.259-11.131,27.985-10.667h27.357c0,0,19.263-1.709,28.362,10.667
			c0,0,19.413-4.818,27.357,9.412c2.397,0.589-15.675,75.804-21.961,85.462l-5.396,26.604H29.983l-5.02-26.604
			C13.365-23.502,6.595-51.719,2.875-79.653z M121.971-47.376c-1.812-0.832-3.952-0.038-4.782,1.771
			c-2.789,6.07-11.888,11.964-28.358,8.587c-13.496-2.767-13.16-13.349-13.075-14.57c0.157-1.975-1.309-3.709-3.286-3.879
			c-0.256-0.023-0.507-0.016-0.751,0.013c-0.021,0.001-0.04-0.003-0.06-0.001c-1.975,0.154-3.455,1.887-3.315,3.863
			c0.085,1.2,0.437,11.805-13.075,14.574c-16.465,3.375-25.569-2.517-28.359-8.587c-0.832-1.81-2.972-2.602-4.783-1.771
			c-1.81,0.832-2.602,2.973-1.771,4.783c3.177,6.911,11.652,13.77,25.856,13.769c3.208-0.001,6.709-0.35,10.505-1.128
			c7.76-1.591,12.528-5.36,15.332-9.537c2.804,4.177,7.572,7.946,15.333,9.537c3.797,0.778,7.297,1.128,10.505,1.128
			c14.203-0.001,22.68-6.859,25.855-13.77C124.574-44.403,123.782-46.544,121.971-47.376z M80.602-6.936h9.959
			c1.991,0,3.606-1.615,3.606-3.606s-1.615-3.606-3.606-3.606h-9.959c-1.74,0-3.449-0.362-5.037-1.04v-4.767
			c0-1.991-1.615-3.606-3.606-3.606c-1.991,0-3.606,1.615-3.606,3.606v4.822c-1.562,0.653-3.238,1.007-4.944,1.007H53.45
			c-1.991,0-3.606,1.615-3.606,3.606s1.615,3.606,3.606,3.606h9.959c1.677,0,3.335-0.221,4.944-0.631V3.588
			c-1.562,0.653-3.238,1.007-4.944,1.007H53.45c-1.991,0-3.606,1.615-3.606,3.606s1.615,3.606,3.606,3.606h9.959
			c1.677,0,3.335-0.221,4.944-0.631v7.13c0,1.991,1.615,3.606,3.606,3.606c1.991,0,3.606-1.615,3.606-3.606V11.13
			c1.637,0.425,3.327,0.654,5.037,0.654h9.959c1.991,0,3.606-1.615,3.606-3.606s-1.615-3.606-3.606-3.606h-9.959
			c-1.74,0-3.449-0.362-5.037-1.04V-7.59C77.203-7.165,78.893-6.936,80.602-6.936z"/>
	</g>
	<g id="Black-M" transform="matrix(1 0 0 1 2871.36 1126)">
		<path d="M-2.095-77.674c0,0,5.641-11.775,25.114-8.72c0,0,3.946-10.312,25.927-9.882h25.345c0,0,17.846-1.584,26.276,9.882
			c0,0,17.985-4.463,25.345,8.72c2.221,0.546-14.522,70.228-20.346,79.176l-4.999,24.647H23.019L18.368,1.503
			C7.623-25.652,1.351-51.794-2.095-77.674z M108.242-47.77c-1.679-0.771-3.661-0.035-4.431,1.641
			c-2.584,5.624-11.014,11.084-26.272,7.955c-12.503-2.563-12.192-12.367-12.113-13.499c0.146-1.83-1.213-3.437-3.045-3.594
			c-0.237-0.021-0.469-0.015-0.696,0.012c-0.019,0.001-0.037-0.003-0.056-0.001c-1.83,0.143-3.201,1.748-3.071,3.579
			c0.078,1.111,0.405,10.936-12.113,13.502c-15.254,3.127-23.689-2.332-26.273-7.956c-0.771-1.676-2.753-2.411-4.431-1.641
			c-1.676,0.771-2.411,2.755-1.641,4.431c2.943,6.402,10.795,12.757,23.954,12.756c2.972-0.001,6.215-0.325,9.732-1.045
			c7.189-1.474,11.607-4.966,14.205-8.835c2.598,3.869,7.015,7.362,14.205,8.835c3.518,0.721,6.76,1.045,9.732,1.045
			c13.158-0.001,21.012-6.354,23.954-12.757C110.654-45.016,109.919-47,108.242-47.77z M69.915-10.305h9.227
			c1.845,0,3.341-1.496,3.341-3.341s-1.496-3.341-3.341-3.341h-9.227c-1.612,0-3.195-0.335-4.666-0.963v-4.417
			c0-1.845-1.496-3.341-3.341-3.341c-1.845,0-3.341,1.496-3.341,3.341v4.468c-1.447,0.605-2.999,0.933-4.58,0.933h-9.227
			c-1.845,0-3.341,1.496-3.341,3.341s1.496,3.341,3.341,3.341h9.227c1.554,0,3.09-0.205,4.58-0.585v10.315
			c-1.447,0.605-2.999,0.933-4.58,0.933h-9.227c-1.845,0-3.341,1.496-3.341,3.341s1.496,3.341,3.341,3.341h9.227
			c1.554,0,3.09-0.205,4.58-0.585v6.605c0,1.845,1.496,3.341,3.341,3.341c1.845,0,3.341-1.496,3.341-3.341V6.433
			c1.517,0.394,3.082,0.605,4.666,0.605h9.227c1.845,0,3.341-1.496,3.341-3.341s-1.496-3.341-3.341-3.341h-9.227
			c-1.612,0-3.195-0.335-4.666-0.963V-10.91C66.766-10.516,68.332-10.305,69.915-10.305z"/>
	</g>
	<g id="Heavy-M" transform="matrix(1 0 0 1 2575.48 1126)">
		<path d="M-1.546-76.805c0,0,5.525-11.534,24.601-8.542c0,0,3.865-10.102,25.398-9.681h24.828c0,0,17.482-1.551,25.74,9.681
			c0,0,17.618-4.372,24.828,8.542c2.175,0.535-14.226,68.795-19.931,77.561L99.021,24.9H23.055L18.499,0.756
			C7.973-25.845,1.829-51.453-1.546-76.805z M106.539-47.511c-1.644-0.755-3.586-0.035-4.34,1.608
			c-2.531,5.509-10.789,10.857-25.736,7.793c-12.248-2.511-11.944-12.115-11.866-13.223c0.143-1.792-1.188-3.366-2.982-3.52
			c-0.232-0.021-0.46-0.015-0.682,0.012c-0.019,0.001-0.036-0.003-0.055-0.001c-1.792,0.14-3.135,1.713-3.009,3.506
			c0.077,1.089,0.397,10.713-11.866,13.227c-14.943,3.063-23.205-2.284-25.737-7.794c-0.755-1.642-2.697-2.361-4.341-1.607
			c-1.642,0.755-2.362,2.699-1.607,4.341c2.883,6.272,10.575,12.496,23.465,12.496c2.911-0.001,6.088-0.318,9.534-1.024
			c7.043-1.444,11.37-4.864,13.915-8.655c2.545,3.79,6.872,7.211,13.915,8.655c3.446,0.706,6.622,1.024,9.534,1.024
			c12.89-0.001,20.583-6.225,23.465-12.496C108.901-44.813,108.181-46.757,106.539-47.511z M68.994-10.811h9.038
			c1.807,0,3.273-1.465,3.273-3.273s-1.465-3.273-3.273-3.273h-9.038c-1.579,0-3.13-0.328-4.571-0.944v-4.327
			c0-1.807-1.465-3.273-3.273-3.273c-1.807,0-3.273,1.465-3.273,3.273v4.376c-1.418,0.593-2.938,0.914-4.487,0.914h-9.038
			c-1.807,0-3.273,1.465-3.273,3.273s1.465,3.273,3.273,3.273h9.038c1.522,0,3.027-0.201,4.487-0.573V-1.26
			c-1.418,0.593-2.938,0.914-4.487,0.914h-9.038c-1.807,0-3.273,1.465-3.273,3.273s1.465,3.273,3.273,3.273h9.038
			c1.522,0,3.027-0.201,4.487-0.573v6.47c0,1.807,1.465,3.273,3.273,3.273c1.807,0,3.273-1.465,3.273-3.273V5.586
			c1.486,0.386,3.019,0.593,4.571,0.593h9.038c1.807,0,3.273-1.465,3.273-3.273s-1.465-3.273-3.273-3.273h-9.038
			c-1.579,0-3.13-0.328-4.571-0.944v-10.094C65.909-11.018,67.443-10.811,68.994-10.811z"/>
	</g>
	<g id="Bold-M" transform="matrix(1 0 0 1 2279.69 1126)">
		<path d="M-1.218-75.936c0,0,5.41-11.294,24.089-8.364c0,0,3.785-9.891,24.868-9.479H72.05c0,0,17.118-1.519,25.204,9.479
			c0,0,17.251-4.281,24.311,8.364c2.13,0.523-13.929,67.362-19.516,75.945L97.254,23.65H22.871L18.41,0.009
			C8.103-26.038,2.087-51.112-1.218-75.936z M104.615-47.253c-1.61-0.74-3.512-0.034-4.25,1.574
			c-2.479,5.394-10.564,10.631-25.2,7.631C63.172-40.507,63.471-49.91,63.547-50.996c0.14-1.755-1.164-3.296-2.92-3.447
			c-0.227-0.02-0.45-0.015-0.668,0.012c-0.018,0.001-0.035-0.003-0.054-0.001c-1.755,0.137-3.07,1.677-2.946,3.433
			c0.075,1.066,0.389,10.49-11.619,12.951c-14.631,2.999-22.722-2.237-25.2-7.631c-0.74-1.608-2.641-2.312-4.25-1.574
			c-1.608,0.739-2.313,2.642-1.574,4.25c2.823,6.141,10.354,12.236,22.976,12.236c2.85-0.001,5.962-0.311,9.335-1.002
			c6.896-1.413,11.133-4.763,13.625-8.475c2.492,3.712,6.729,7.061,13.625,8.475c3.375,0.692,6.484,1.002,9.335,1.002
			c12.621-0.001,20.154-6.095,22.976-12.236C106.928-44.611,106.224-46.514,104.615-47.253z M67.853-11.317h8.85
			c1.77,0,3.205-1.435,3.205-3.205s-1.435-3.205-3.205-3.205h-8.85c-1.546,0-3.065-0.322-4.476-0.924v-4.236
			c0-1.77-1.435-3.205-3.205-3.205s-3.205,1.435-3.205,3.205v4.285c-1.388,0.58-2.877,0.895-4.393,0.895h-8.85
			c-1.77,0-3.205,1.435-3.205,3.205s1.435,3.205,3.205,3.205h8.85c1.49,0,2.964-0.197,4.393-0.561v9.894
			c-1.388,0.58-2.877,0.895-4.393,0.895h-8.85c-1.77,0-3.205,1.435-3.205,3.205s1.435,3.205,3.205,3.205h8.85
			c1.49,0,2.964-0.197,4.393-0.561v6.336c0,1.77,1.435,3.205,3.205,3.205s3.205-1.435,3.205-3.205V4.738
			c1.455,0.378,2.957,0.581,4.476,0.581h8.85c1.77,0,3.205-1.435,3.205-3.205S78.473-1.09,76.703-1.09h-8.85
			c-1.546,0-3.065-0.322-4.476-0.924v-9.883C64.832-11.52,66.334-11.317,67.853-11.317z"/>
	</g>
	<g id="Semibold-M" transform="matrix(1 0 0 1 1983.62 1126)">
		<path d="M-0.51-75.067c0,0,5.295-11.054,23.576-8.186c0,0,3.704-9.681,24.339-9.277h23.794c0,0,16.753-1.487,24.668,9.277
			c0,0,16.884-4.19,23.794,8.186c2.085,0.512-13.633,65.929-19.101,74.329L95.867,22.4h-72.8L18.701-0.738
			C8.613-26.231,2.725-50.772-0.51-75.067z M103.072-46.994c-1.576-0.724-3.437-0.033-4.159,1.541
			c-2.426,5.279-10.339,10.405-24.664,7.468c-11.738-2.406-11.446-11.61-11.371-12.672c0.137-1.718-1.139-3.226-2.858-3.374
			c-0.222-0.02-0.441-0.014-0.653,0.011c-0.018,0.001-0.035-0.003-0.053-0.001c-1.718,0.134-3.005,1.641-2.883,3.36
			c0.074,1.043,0.38,10.267-11.371,12.676c-14.32,2.935-22.238-2.189-24.664-7.469c-0.724-1.574-2.585-2.263-4.16-1.54
			c-1.574,0.723-2.263,2.586-1.54,4.16c2.763,6.01,10.134,11.976,22.488,11.975c2.79-0.001,5.835-0.305,9.137-0.981
			c6.749-1.383,10.896-4.662,13.335-8.294c2.439,3.633,6.586,6.911,13.335,8.294c3.303,0.677,6.346,0.981,9.137,0.981
			c12.353-0.001,19.725-5.965,22.487-11.976C105.336-44.409,104.646-46.271,103.072-46.994z M67.092-11.823h8.662
			c1.732,0,3.136-1.404,3.136-3.136s-1.404-3.136-3.136-3.136h-8.662c-1.513,0-3-0.315-4.38-0.904v-4.146
			c0-1.732-1.404-3.136-3.136-3.136c-1.732,0-3.136,1.404-3.136,3.136v4.194c-1.359,0.568-2.816,0.875-4.3,0.875h-8.662
			c-1.732,0-3.136,1.404-3.136,3.136s1.404,3.136,3.136,3.136h8.662c1.458,0,2.901-0.192,4.3-0.549v9.683
			c-1.359,0.568-2.816,0.875-4.3,0.875h-8.662c-1.732,0-3.136,1.404-3.136,3.136s1.404,3.136,3.136,3.136h8.662
			c1.458,0,2.901-0.192,4.3-0.549v6.201c0,1.732,1.404,3.136,3.136,3.136c1.732,0,3.136-1.404,3.136-3.136V3.89
			c1.424,0.37,2.894,0.568,4.38,0.568h8.662c1.732,0,3.136-1.404,3.136-3.136s-1.404-3.136-3.136-3.136h-8.662
			c-1.513,0-3-0.315-4.38-0.904v-9.673C64.135-12.021,65.605-11.823,67.092-11.823z"/>
	</g>
	<g id="Medium-M" transform="matrix(1 0 0 1 1687.4 1126)">
		<path d="M0.359-74.198c0,0,5.18-10.813,23.064-8.008c0,0,3.624-9.47,23.81-9.076h23.276c0,0,16.389-1.454,24.131,9.076
			c0,0,16.517-4.099,23.276,8.008c2.039,0.501-13.336,64.495-18.685,72.713L94.64,21.15H23.422L19.151-1.485
			C9.283-26.423,3.523-50.431,0.359-74.198z M101.688-46.736c-1.542-0.708-3.362-0.032-4.069,1.507
			c-2.373,5.165-10.114,10.179-24.128,7.306C62.009-40.277,62.294-49.28,62.367-50.319c0.134-1.68-1.114-3.156-2.796-3.3
			c-0.217-0.019-0.431-0.014-0.639,0.011c-0.017,0.001-0.034-0.002-0.051-0.001c-1.68,0.131-2.939,1.606-2.82,3.287
			c0.072,1.021,0.372,10.044-11.124,12.4c-14.009,2.871-21.755-2.141-24.128-7.306c-0.708-1.54-2.528-2.214-4.069-1.507
			c-1.54,0.708-2.214,2.53-1.507,4.069c2.703,5.88,9.914,11.715,21.999,11.715c2.729,0,5.708-0.298,8.938-0.96
			c6.603-1.353,10.659-4.56,13.045-8.114c2.386,3.554,6.443,6.761,13.046,8.114c3.231,0.662,6.208,0.96,8.938,0.96
			c12.084,0,19.297-5.836,21.998-11.715C103.903-44.206,103.228-46.028,101.688-46.736z M66.49-12.329h8.473
			c1.694,0,3.068-1.374,3.068-3.068c0-1.694-1.374-3.068-3.068-3.068H66.49c-1.48,0-2.935-0.308-4.285-0.885v-4.056
			c0-1.694-1.374-3.068-3.068-3.068s-3.068,1.374-3.068,3.068v4.103c-1.329,0.556-2.755,0.856-4.206,0.856h-8.473
			c-1.694,0-3.068,1.374-3.068,3.068s1.374,3.068,3.068,3.068h8.473c1.427,0,2.837-0.188,4.206-0.537v9.473
			c-1.329,0.556-2.755,0.856-4.206,0.856h-8.473c-1.694,0-3.068,1.374-3.068,3.068s1.374,3.068,3.068,3.068h8.473
			c1.427,0,2.837-0.188,4.206-0.537v6.066c0,1.694,1.374,3.068,3.068,3.068s3.068-1.374,3.068-3.068V3.043
			c1.393,0.362,2.831,0.556,4.285,0.556h8.473c1.694,0,3.068-1.374,3.068-3.068s-1.374-3.068-3.068-3.068H66.49
			c-1.48,0-2.935-0.308-4.285-0.885v-9.463C63.598-12.523,65.036-12.329,66.49-12.329z"/>
	</g>
	<g id="Regular-M" transform="matrix(1 0 0 1 1391.32 1126)">
		<path d="M0.967-73.329c0,0,5.065-10.573,22.551-7.83c0,0,3.543-9.26,23.281-8.874h22.759c0,0,16.025-1.422,23.595,8.874
			c0,0,16.15-4.008,22.759,7.83c1.994,0.49-13.04,63.062-18.27,71.097L93.153,19.9H23.518L19.342-2.232
			C9.693-26.616,4.061-50.09,0.967-73.329z M100.044-46.477c-1.507-0.692-3.288-0.032-3.979,1.474
			c-2.32,5.05-9.89,9.953-23.591,7.144c-11.228-2.302-10.948-11.105-10.877-12.121c0.131-1.643-1.089-3.086-2.734-3.227
			c-0.213-0.019-0.422-0.014-0.625,0.011c-0.017,0.001-0.033-0.002-0.05-0.001c-1.643,0.128-2.874,1.57-2.758,3.214
			c0.07,0.998,0.364,9.82-10.877,12.125c-13.697,2.808-21.271-2.094-23.592-7.144c-0.692-1.505-2.472-2.165-3.979-1.473
			c-1.505,0.692-2.165,2.474-1.473,3.979c2.643,5.749,9.693,11.455,21.51,11.455c2.668,0,5.581-0.292,8.739-0.938
			c6.456-1.323,10.422-4.459,12.755-7.934c2.333,3.475,6.3,6.61,12.756,7.934c3.159,0.647,6.07,0.938,8.739,0.938
			c11.815,0,18.868-5.706,21.509-11.455C102.21-44.004,101.55-45.785,100.044-46.477z M65.629-12.835h8.285c1.657,0,3-1.343,3-3
			s-1.343-3-3-3h-8.285c-1.447,0-2.869-0.301-4.19-0.865v-3.966c0-1.657-1.343-3-3-3s-3,1.343-3,3v4.012
			c-1.3,0.543-2.693,0.837-4.113,0.837h-8.285c-1.657,0-3,1.343-3,3s1.343,3,3,3h8.285c1.395,0,2.774-0.184,4.113-0.525v9.262
			c-1.3,0.543-2.693,0.837-4.113,0.837h-8.285c-1.657,0-3,1.343-3,3s1.343,3,3,3h8.285c1.395,0,2.774-0.184,4.113-0.525v5.931
			c0,1.657,1.343,3,3,3s3-1.343,3-3V2.195c1.362,0.354,2.768,0.544,4.19,0.544h8.285c1.657,0,3-1.343,3-3s-1.343-3-3-3h-8.285
			c-1.447,0-2.869-0.301-4.19-0.865v-9.252C62.801-13.025,64.207-12.835,65.629-12.835z"/>
	</g>
	<g id="Light-M" transform="matrix(1 0 0 1 1095.44 1126)">
		<path d="M1.365-72.46c0,0,4.95-10.333,22.039-7.652c0,0,3.462-9.05,22.752-8.672h22.242c0,0,15.661-1.39,23.059,8.672
			c0,0,15.783-3.917,22.242,7.652c1.949,0.479-12.744,61.629-17.855,69.481L91.456,18.65H23.404L19.323-2.979
			C9.893-26.809,4.389-49.75,1.365-72.46z M98.191-46.219c-1.473-0.677-3.213-0.031-3.888,1.44
			c-2.268,4.935-9.665,9.726-23.055,6.981c-10.972-2.249-10.699-10.853-10.63-11.846c0.128-1.606-1.065-3.016-2.672-3.154
			c-0.208-0.018-0.412-0.013-0.611,0.011c-0.017,0.001-0.032-0.002-0.049-0.001c-1.606,0.125-2.809,1.534-2.695,3.141
			c0.069,0.975,0.356,9.597-10.63,11.849c-13.386,2.744-20.788-2.046-23.056-6.982c-0.677-1.471-2.416-2.115-3.889-1.44
			c-1.471,0.676-2.116,2.417-1.44,3.889c2.583,5.618,9.473,11.195,21.021,11.194c2.608,0,5.454-0.285,8.541-0.917
			c6.309-1.293,10.186-4.358,12.465-7.753c2.28,3.396,6.156,6.46,12.466,7.753c3.087,0.633,5.932,0.917,8.541,0.917
			c11.547,0,18.439-5.576,21.021-11.195C100.307-43.802,99.663-45.542,98.191-46.219z M64.558-13.341h8.097
			c1.619,0,2.932-1.313,2.932-2.932s-1.313-2.932-2.932-2.932h-8.097c-1.414,0-2.804-0.294-4.095-0.845v-3.876
			c0-1.619-1.313-2.932-2.932-2.932c-1.619,0-2.932,1.313-2.932,2.932v3.921c-1.27,0.531-2.632,0.818-4.019,0.818h-8.097
			c-1.619,0-2.932,1.313-2.932,2.932s1.313,2.932,2.932,2.932h8.097c1.363,0,2.711-0.18,4.019-0.513v9.052
			c-1.27,0.531-2.632,0.818-4.019,0.818h-8.097c-1.619,0-2.932,1.313-2.932,2.932s1.313,2.932,2.932,2.932h8.097
			c1.363,0,2.711-0.18,4.019-0.513v5.796c0,1.619,1.313,2.932,2.932,2.932c1.619,0,2.932-1.313,2.932-2.932V1.347
			c1.331,0.346,2.705,0.531,4.095,0.531h8.097c1.619,0,2.932-1.313,2.932-2.932s-1.313-2.932-2.932-2.932h-8.097
			c-1.414,0-2.804-0.294-4.095-0.845v-9.042C61.794-13.527,63.168-13.341,64.558-13.341z"/>
	</g>
	<g id="Thin-M" transform="matrix(1 0 0 1 799.828 1126)">
		<path d="M1.581-71.592c0,0,4.835-10.092,21.526-7.474c0,0,3.382-8.839,22.223-8.471h21.725c0,0,15.297-1.357,22.523,8.471
			c0,0,15.416-3.826,21.725,7.474c1.903,0.468-12.447,60.196-17.44,67.866L89.577,17.4h-66.47L19.121-3.726
			C9.911-27.002,4.535-49.409,1.581-71.592z M96.156-45.96c-1.439-0.661-3.138-0.03-3.798,1.407c-2.215,4.82-9.44,9.5-22.519,6.819
			c-10.717-2.197-10.451-10.6-10.383-11.57c0.125-1.568-1.04-2.946-2.61-3.08c-0.203-0.018-0.402-0.013-0.597,0.01
			c-0.016,0.001-0.032-0.002-0.048-0.001c-1.568,0.123-2.743,1.498-2.632,3.068c0.067,0.953,0.347,9.374-10.383,11.573
			c-13.075,2.68-20.305-1.999-22.52-6.819c-0.661-1.437-2.36-2.066-3.798-1.406c-1.437,0.66-2.067,2.361-1.406,3.798
			c2.522,5.488,9.253,10.934,20.532,10.934c2.547,0,5.327-0.278,8.342-0.896c6.162-1.263,9.949-4.256,12.175-7.573
			c2.227,3.317,6.013,6.31,12.176,7.573c3.016,0.618,5.794,0.896,8.342,0.896c11.278,0,18.01-5.447,20.532-10.934
			C98.223-43.599,97.593-45.3,96.156-45.96z M63.304-13.847h7.909c1.581,0,2.864-1.282,2.864-2.864s-1.282-2.864-2.864-2.864h-7.909
			c-1.381,0-2.739-0.287-4-0.826v-3.786c0-1.581-1.282-2.864-2.864-2.864c-1.581,0-2.864,1.282-2.864,2.864v3.829
			c-1.24,0.519-2.571,0.799-3.926,0.799h-7.909c-1.581,0-2.864,1.282-2.864,2.864s1.282,2.864,2.864,2.864h7.909
			c1.332,0,2.648-0.176,3.926-0.501v8.841c-1.24,0.519-2.571,0.799-3.926,0.799h-7.909c-1.581,0-2.864,1.282-2.864,2.864
			s1.282,2.864,2.864,2.864h7.909c1.332,0,2.648-0.176,3.926-0.501v5.662c0,1.581,1.282,2.864,2.864,2.864
			c1.581,0,2.864-1.282,2.864-2.864V0.5c1.3,0.338,2.642,0.519,4,0.519h7.909c1.581,0,2.864-1.282,2.864-2.864
			s-1.282-2.864-2.864-2.864h-7.909c-1.381,0-2.739-0.287-4-0.826v-8.832C60.605-14.028,61.947-13.847,63.304-13.847z"/>
	</g>
	<g id="Ultralight-M" transform="matrix(1 0 0 1 503.679 1126)">
		<path d="M2.383-70.723c0,0,4.72-9.852,21.014-7.296c0,0,3.301-8.629,21.694-8.269h21.207c0,0,14.932-1.325,21.986,8.269
			c0,0,15.049-3.735,21.207,7.296c1.858,0.457-12.151,58.763-17.024,66.25L88.284,16.15H23.396L19.505-4.473
			C10.514-27.195,5.266-49.068,2.383-70.723z M94.705-45.701c-1.405-0.645-3.063-0.03-3.707,1.373
			c-2.162,4.706-9.215,9.274-21.983,6.657C58.553-39.817,58.813-48.02,58.88-48.966c0.122-1.531-1.015-2.876-2.547-3.007
			c-0.198-0.018-0.393-0.013-0.582,0.01c-0.016,0.001-0.031-0.002-0.047-0.001c-1.531,0.12-2.678,1.463-2.57,2.995
			c0.066,0.93,0.339,9.151-10.135,11.298c-12.763,2.616-19.821-1.951-21.983-6.657c-0.645-1.403-2.304-2.017-3.708-1.373
			c-1.403,0.645-2.017,2.305-1.373,3.708c2.462,5.357,9.032,10.674,20.043,10.674c2.487,0,5.201-0.272,8.143-0.874
			c6.016-1.233,9.712-4.155,11.886-7.393c2.174,3.238,5.87,6.16,11.886,7.393c2.944,0.603,5.656,0.874,8.143,0.874
			c11.01,0,17.581-5.317,20.043-10.674C96.723-43.397,96.108-45.057,94.705-45.701z M62.636-14.353h7.72
			c1.544,0,2.795-1.252,2.795-2.795s-1.252-2.795-2.795-2.795h-7.72c-1.349,0-2.674-0.281-3.904-0.806v-3.696
			c0-1.544-1.252-2.795-2.795-2.795c-1.544,0-2.795,1.252-2.795,2.795v3.738c-1.211,0.506-2.51,0.78-3.832,0.78h-7.72
			c-1.544,0-2.795,1.252-2.795,2.795c0,1.544,1.252,2.795,2.795,2.795h7.72c1.3,0,2.585-0.172,3.832-0.489v8.631
			c-1.211,0.506-2.51,0.78-3.832,0.78h-7.72c-1.544,0-2.795,1.252-2.795,2.795s1.252,2.795,2.795,2.795h7.72
			c1.3,0,2.585-0.172,3.832-0.489v5.527c0,1.544,1.252,2.795,2.795,2.795c1.544,0,2.795-1.252,2.795-2.795v-5.562
			c1.269,0.33,2.579,0.507,3.904,0.507h7.72c1.544,0,2.795-1.252,2.795-2.795S71.9-5.432,70.356-5.432h-7.72
			c-1.349,0-2.674-0.281-3.904-0.806v-8.622C60.001-14.53,61.311-14.353,62.636-14.353z"/>
	</g>
	<g id="Black-S" transform="matrix(1 0 0 1 2884.57 696)">
		<path d="M-1.394-68.635c0,0,4.417-9.219,19.664-6.828c0,0,3.089-8.075,20.301-7.738h19.845c0,0,13.974-1.24,20.574,7.738
			c0,0,14.083-3.495,19.845,6.828c1.739,0.427-11.371,54.989-15.931,61.995L78.99,12.659H18.27L14.629-6.64
			C6.215-27.902,1.304-48.371-1.394-68.635z M85-45.221c-1.314-0.604-2.867-0.028-3.469,1.285
			c-2.023,4.403-8.624,8.679-20.571,6.229c-9.79-2.007-9.547-9.683-9.484-10.569c0.114-1.433-0.95-2.691-2.384-2.814
			c-0.185-0.016-0.368-0.012-0.545,0.01c-0.015,0.001-0.029-0.002-0.044-0.001c-1.433,0.112-2.506,1.369-2.405,2.802
			c0.061,0.87,0.317,8.563-9.484,10.572c-11.944,2.448-18.548-1.826-20.572-6.229c-0.604-1.313-2.156-1.887-3.47-1.285
			c-1.313,0.603-1.888,2.157-1.285,3.47c2.304,5.013,8.452,9.989,18.756,9.988c2.327,0,4.867-0.254,7.62-0.818
			c5.629-1.154,9.088-3.888,11.122-6.918c2.034,3.03,5.493,5.764,11.123,6.918c2.755,0.565,5.293,0.818,7.62,0.818
			c10.303,0,16.452-4.976,18.756-9.989C86.888-43.064,86.313-44.617,85-45.221z M54.99-15.885h7.224
			c1.445,0,2.616-1.171,2.616-2.616s-1.171-2.616-2.616-2.616H54.99c-1.262,0-2.502-0.262-3.654-0.754v-3.458
			c0-1.445-1.171-2.616-2.616-2.616c-1.445,0-2.616,1.171-2.616,2.616v3.498c-1.133,0.474-2.349,0.73-3.586,0.73h-7.224
			c-1.445,0-2.616,1.171-2.616,2.616s1.171,2.616,2.616,2.616h7.224c1.216,0,2.419-0.161,3.586-0.458v8.076
			c-1.133,0.474-2.349,0.73-3.586,0.73h-7.224c-1.445,0-2.616,1.171-2.616,2.616s1.171,2.616,2.616,2.616h7.224
			c1.216,0,2.419-0.161,3.586-0.458v5.172c0,1.445,1.171,2.616,2.616,2.616c1.445,0,2.616-1.171,2.616-2.616V-2.78
			c1.188,0.308,2.413,0.474,3.654,0.474h7.224c1.445,0,2.616-1.171,2.616-2.616s-1.171-2.616-2.616-2.616H54.99
			c-1.262,0-2.502-0.262-3.654-0.754v-8.068C52.524-16.051,53.75-15.885,54.99-15.885z"/>
	</g>
	<g id="Heavy-S" transform="matrix(1 0 0 1 2588.47 696)">
		<path d="M-0.909-67.955c0,0,4.326-9.031,19.263-6.688c0,0,3.026-7.91,19.886-7.58h19.44c0,0,13.688-1.215,20.154,7.58
			c0,0,13.795-3.424,19.44,6.688c1.703,0.419-11.139,53.867-15.606,60.73L77.834,11.68H18.353L14.786-7.225
			C6.544-28.053,1.733-48.104-0.909-67.955z M83.721-45.018c-1.288-0.591-2.808-0.027-3.398,1.259
			c-1.982,4.313-8.448,8.501-20.151,6.102c-9.59-1.966-9.352-9.486-9.291-10.354c0.112-1.403-0.931-2.636-2.335-2.756
			c-0.182-0.016-0.36-0.012-0.534,0.009c-0.015,0.001-0.028-0.002-0.043-0.001c-1.403,0.11-2.455,1.341-2.356,2.745
			c0.06,0.853,0.311,8.388-9.291,10.357c-11.7,2.398-18.17-1.788-20.152-6.102c-0.591-1.286-2.112-1.849-3.399-1.258
			c-1.286,0.591-1.849,2.113-1.258,3.399c2.257,4.911,8.28,9.785,18.373,9.784c2.279,0,4.767-0.249,7.465-0.802
			c5.514-1.13,8.903-3.809,10.895-6.777c1.993,2.968,5.381,5.646,10.896,6.777c2.699,0.553,5.185,0.802,7.465,0.802
			c10.093,0,16.116-4.874,18.373-9.785C85.571-42.906,85.007-44.427,83.721-45.018z M54.324-16.282h7.077
			c1.415,0,2.563-1.147,2.563-2.563c0-1.415-1.147-2.563-2.563-2.563h-7.077c-1.236,0-2.451-0.257-3.579-0.739v-3.388
			c0-1.415-1.147-2.563-2.563-2.563s-2.563,1.147-2.563,2.563v3.427c-1.11,0.464-2.301,0.715-3.513,0.715h-7.077
			c-1.415,0-2.563,1.147-2.563,2.563c0,1.415,1.147,2.563,2.563,2.563h7.077c1.192,0,2.37-0.157,3.513-0.448v7.912
			c-1.11,0.464-2.301,0.715-3.513,0.715h-7.077c-1.415,0-2.563,1.147-2.563,2.563s1.147,2.563,2.563,2.563h7.077
			c1.192,0,2.37-0.157,3.513-0.448v5.066c0,1.415,1.147,2.563,2.563,2.563s2.563-1.147,2.563-2.563v-5.099
			c1.163,0.302,2.364,0.464,3.579,0.464h7.077c1.415,0,2.563-1.147,2.563-2.563s-1.147-2.563-2.563-2.563h-7.077
			c-1.236,0-2.451-0.257-3.579-0.739v-7.903C51.908-16.444,53.109-16.282,54.324-16.282z"/>
	</g>
	<g id="Bold-S" transform="matrix(1 0 0 1 2292.43 696)">
		<path d="M-0.615-67.274c0,0,4.236-8.843,18.861-6.549c0,0,2.963-7.745,19.472-7.422h19.035c0,0,13.403-1.189,19.735,7.422
			c0,0,13.508-3.352,19.035,6.549c1.668,0.41-10.907,52.744-15.281,59.465l-3.755,18.511H18.247L14.754-7.81
			C6.683-28.204,1.973-47.838-0.615-67.274z M82.252-44.816c-1.261-0.579-2.75-0.027-3.328,1.233
			c-1.941,4.224-8.272,8.324-19.732,5.975c-9.391-1.925-9.157-9.288-9.097-10.138c0.109-1.374-0.911-2.581-2.287-2.699
			c-0.178-0.016-0.353-0.011-0.523,0.009c-0.014,0.001-0.028-0.002-0.042-0.001c-1.374,0.107-2.404,1.313-2.307,2.688
			c0.059,0.835,0.304,8.214-9.097,10.141c-11.456,2.348-17.791-1.751-19.732-5.975c-0.579-1.259-2.068-1.81-3.328-1.232
			c-1.259,0.579-1.811,2.069-1.232,3.328c2.21,4.808,8.107,9.581,17.991,9.58c2.232,0,4.668-0.244,7.309-0.785
			c5.4-1.107,8.717-3.729,10.668-6.636c1.951,2.906,5.269,5.529,10.669,6.636c2.642,0.542,5.077,0.785,7.309,0.785
			c9.882,0,15.781-4.772,17.99-9.581C84.064-42.747,83.512-44.237,82.252-44.816z M53.468-16.678h6.93
			c1.386,0,2.509-1.123,2.509-2.509c0-1.386-1.123-2.509-2.509-2.509h-6.93c-1.21,0-2.4-0.252-3.504-0.723v-3.317
			c0-1.386-1.123-2.509-2.509-2.509s-2.509,1.123-2.509,2.509v3.355c-1.087,0.454-2.253,0.7-3.44,0.7h-6.93
			c-1.386,0-2.509,1.123-2.509,2.509c0,1.386,1.123,2.509,2.509,2.509h6.93c1.167,0,2.32-0.154,3.44-0.439v7.747
			c-1.087,0.454-2.253,0.7-3.44,0.7h-6.93c-1.386,0-2.509,1.123-2.509,2.509s1.123,2.509,2.509,2.509h6.93
			c1.167,0,2.32-0.154,3.44-0.439v4.961c0,1.386,1.123,2.509,2.509,2.509s2.509-1.123,2.509-2.509v-4.992
			c1.139,0.296,2.315,0.455,3.504,0.455h6.93c1.386,0,2.509-1.123,2.509-2.509S61.783-8.67,60.397-8.67h-6.93
			c-1.21,0-2.4-0.252-3.504-0.723v-7.739C51.102-16.837,52.278-16.678,53.468-16.678z"/>
	</g>
	<g id="Semibold-S" transform="matrix(1 0 0 1 1996.19 696)">
		<path d="M-0.021-66.594c0,0,4.146-8.655,18.46-6.41c0,0,2.9-7.58,19.058-7.264h18.63c0,0,13.118-1.164,19.315,7.264
			c0,0,13.22-3.281,18.63,6.41c1.632,0.401-10.674,51.622-14.956,58.2L75.442,9.722H18.44L15.021-8.395
			C7.122-28.355,2.512-47.571-0.021-66.594z M81.084-44.613c-1.234-0.567-2.691-0.026-3.257,1.206
			c-1.899,4.134-8.096,8.147-19.312,5.848c-9.191-1.884-8.962-9.09-8.904-9.922c0.107-1.345-0.892-2.526-2.238-2.642
			c-0.174-0.015-0.345-0.011-0.512,0.009c-0.014,0.001-0.027-0.002-0.041-0.001c-1.345,0.105-2.353,1.285-2.258,2.631
			c0.058,0.817,0.298,8.039-8.904,9.925c-11.212,2.298-17.413-1.714-19.312-5.848c-0.567-1.232-2.024-1.772-3.257-1.206
			c-1.232,0.566-1.772,2.025-1.206,3.257c2.163,4.706,7.935,9.377,17.608,9.377c2.184,0,4.569-0.239,7.154-0.768
			c5.285-1.083,8.532-3.65,10.441-6.494c1.91,2.844,5.157,5.411,10.442,6.494c2.586,0.53,4.969,0.768,7.154,0.768
			c9.672,0,15.445-4.671,17.607-9.377C82.856-42.589,82.316-44.047,81.084-44.613z M52.911-17.074h6.782
			c1.356,0,2.456-1.1,2.456-2.456s-1.1-2.456-2.456-2.456h-6.782c-1.185,0-2.349-0.246-3.43-0.708v-3.247
			c0-1.356-1.1-2.456-2.456-2.456c-1.356,0-2.456,1.1-2.456,2.456v3.284c-1.064,0.445-2.205,0.685-3.367,0.685h-6.782
			c-1.356,0-2.456,1.1-2.456,2.456s1.1,2.456,2.456,2.456h6.782c1.142,0,2.271-0.151,3.367-0.43v7.582
			c-1.064,0.445-2.205,0.685-3.367,0.685h-6.782c-1.356,0-2.456,1.1-2.456,2.456s1.1,2.456,2.456,2.456h6.782
			c1.142,0,2.271-0.151,3.367-0.43v4.855c0,1.356,1.1,2.456,2.456,2.456c1.356,0,2.456-1.1,2.456-2.456v-4.886
			c1.115,0.29,2.266,0.445,3.43,0.445h6.782c1.356,0,2.456-1.1,2.456-2.456s-1.1-2.456-2.456-2.456h-6.782
			c-1.185,0-2.349-0.246-3.43-0.708v-7.574C50.596-17.23,51.747-17.074,52.911-17.074z"/>
	</g>
	<g id="Medium-S" transform="matrix(1 0 0 1 1699.83 696)">
		<path d="M0.704-65.914c0,0,4.056-8.467,18.059-6.27c0,0,2.837-7.415,18.643-7.106h18.225c0,0,12.833-1.139,18.895,7.106
			c0,0,12.933-3.21,18.225,6.27c1.597,0.392-10.442,50.5-14.631,56.934L74.526,8.744H18.763L15.418-8.98
			C7.692-28.506,3.181-47.304,0.704-65.914z M80.045-44.411c-1.207-0.554-2.633-0.025-3.186,1.18
			c-1.858,4.044-7.92,7.97-18.892,5.721c-8.991-1.843-8.767-8.893-8.71-9.707c0.105-1.316-0.872-2.471-2.189-2.584
			c-0.17-0.015-0.338-0.011-0.5,0.009c-0.014,0.001-0.027-0.002-0.04-0.001c-1.316,0.103-2.302,1.257-2.208,2.574
			c0.056,0.799,0.291,7.864-8.71,9.709c-10.969,2.248-17.034-1.677-18.892-5.721c-0.554-1.206-1.98-1.733-3.186-1.18
			c-1.205,0.554-1.734,1.981-1.18,3.186c2.116,4.604,7.762,9.173,17.225,9.173c2.137,0,4.469-0.233,6.998-0.752
			c5.17-1.06,8.346-3.571,10.214-6.353c1.868,2.782,5.045,5.294,10.215,6.353c2.53,0.518,4.861,0.752,6.998,0.752
			c9.462,0,15.109-4.569,17.225-9.173C81.779-42.43,81.251-43.857,80.045-44.411z M52.485-17.47h6.635
			c1.327,0,2.402-1.076,2.402-2.402c0-1.327-1.076-2.402-2.402-2.402h-6.635c-1.159,0-2.298-0.241-3.355-0.693v-3.176
			c0-1.327-1.076-2.402-2.402-2.402s-2.402,1.076-2.402,2.402v3.213c-1.041,0.435-2.157,0.671-3.294,0.671h-6.635
			c-1.327,0-2.402,1.076-2.402,2.402s1.076,2.402,2.402,2.402h6.635c1.117,0,2.222-0.147,3.294-0.42v7.417
			c-1.041,0.435-2.157,0.671-3.294,0.671h-6.635c-1.327,0-2.402,1.076-2.402,2.402s1.076,2.402,2.402,2.402h6.635
			c1.117,0,2.222-0.147,3.294-0.42v4.75c0,1.327,1.076,2.402,2.402,2.402s2.402-1.076,2.402-2.402v-4.78
			c1.091,0.283,2.216,0.435,3.355,0.435h6.635c1.327,0,2.402-1.076,2.402-2.402s-1.076-2.402-2.402-2.402h-6.635
			c-1.159,0-2.298-0.241-3.355-0.693v-7.409C50.22-17.622,51.346-17.47,52.485-17.47z"/>
	</g>
	<g id="Regular-S" transform="matrix(1 0 0 1 1403.58 696)">
		<path d="M1.198-65.233c0,0,3.966-8.279,17.657-6.131c0,0,2.774-7.251,18.229-6.948h17.82c0,0,12.548-1.113,18.475,6.948
			c0,0,12.645-3.138,17.82,6.131c1.561,0.384-10.21,49.378-14.305,55.669L73.38,7.765H18.856l-3.27-17.329
			C8.031-28.657,3.621-47.037,1.198-65.233z M78.776-44.208c-1.18-0.542-2.574-0.025-3.115,1.154
			c-1.817,3.954-7.744,7.793-18.472,5.593c-8.791-1.802-8.572-8.695-8.517-9.491c0.102-1.287-0.853-2.416-2.141-2.527
			c-0.167-0.015-0.33-0.011-0.489,0.009c-0.013,0.001-0.026-0.002-0.039-0.001c-1.287,0.101-2.25,1.229-2.159,2.516
			c0.055,0.781,0.285,7.689-8.517,9.493c-10.725,2.198-16.656-1.639-18.472-5.594c-0.542-1.179-1.936-1.695-3.116-1.153
			c-1.179,0.542-1.695,1.937-1.153,3.116c2.069,4.501,7.59,8.969,16.842,8.969c2.089,0,4.37-0.228,6.843-0.735
			c5.055-1.036,8.161-3.491,9.987-6.212c1.827,2.721,4.933,5.176,9.988,6.212c2.474,0.507,4.753,0.735,6.843,0.735
			c9.251,0,14.773-4.468,16.842-8.969C80.471-42.272,79.955-43.667,78.776-44.208z M51.828-17.867h6.487
			c1.297,0,2.349-1.052,2.349-2.349s-1.052-2.349-2.349-2.349h-6.487c-1.133,0-2.247-0.236-3.281-0.677v-3.105
			c0-1.297-1.052-2.349-2.349-2.349s-2.349,1.052-2.349,2.349v3.141c-1.018,0.425-2.109,0.656-3.22,0.656h-6.487
			c-1.297,0-2.349,1.052-2.349,2.349s1.052,2.349,2.349,2.349h6.487c1.092,0,2.172-0.144,3.22-0.411v7.252
			c-1.018,0.425-2.109,0.656-3.22,0.656h-6.487c-1.297,0-2.349,1.052-2.349,2.349c0,1.297,1.052,2.349,2.349,2.349h6.487
			c1.092,0,2.172-0.144,3.22-0.411v4.644c0,1.297,1.052,2.349,2.349,2.349s2.349-1.052,2.349-2.349v-4.674
			c1.066,0.277,2.167,0.426,3.281,0.426h6.487c1.297,0,2.349-1.052,2.349-2.349s-1.052-2.349-2.349-2.349h-6.487
			c-1.133,0-2.247-0.236-3.281-0.677v-7.245C49.614-18.015,50.715-17.867,51.828-17.867z"/>
	</g>
	<g id="Light-S" transform="matrix(1 0 0 1 1107.6 696)">
		<path d="M1.412-64.553c0,0,3.876-8.091,17.256-5.992c0,0,2.711-7.086,17.815-6.79h17.415c0,0,12.262-1.088,18.055,6.79
			c0,0,12.358-3.067,17.415,5.992c1.526,0.375-9.978,48.255-13.98,54.404L71.954,6.786H18.669l-3.196-16.936
			C8.09-28.808,3.78-46.771,1.412-64.553z M77.227-44.006c-1.153-0.53-2.516-0.024-3.044,1.128
			c-1.776,3.864-7.568,7.616-18.052,5.466c-8.591-1.761-8.378-8.498-8.323-9.275c0.1-1.257-0.834-2.361-2.092-2.469
			c-0.163-0.014-0.323-0.01-0.478,0.008c-0.013,0.001-0.025-0.002-0.038-0.001c-1.257,0.098-2.199,1.201-2.11,2.459
			c0.054,0.764,0.278,7.515-8.323,9.278c-10.481,2.148-16.277-1.602-18.053-5.467c-0.53-1.152-1.892-1.656-3.045-1.127
			c-1.152,0.529-1.657,1.893-1.127,3.045c2.022,4.399,7.417,8.766,16.459,8.765c2.042,0,4.271-0.223,6.687-0.718
			c4.94-1.013,7.975-3.412,9.76-6.071c1.785,2.659,4.82,5.058,9.761,6.071c2.417,0.495,4.645,0.718,6.687,0.718
			c9.041,0,14.438-4.366,16.459-8.766C78.884-42.113,78.379-43.476,77.227-44.006z M50.892-18.263h6.34
			c1.268,0,2.296-1.028,2.296-2.296s-1.028-2.296-2.296-2.296h-6.34c-1.107,0-2.196-0.23-3.206-0.662v-3.035
			c0-1.268-1.028-2.296-2.296-2.296c-1.268,0-2.296,1.028-2.296,2.296v3.07c-0.994,0.416-2.061,0.641-3.147,0.641h-6.34
			c-1.268,0-2.296,1.028-2.296,2.296s1.028,2.296,2.296,2.296h6.34c1.067,0,2.123-0.141,3.147-0.402v7.088
			c-0.994,0.416-2.061,0.641-3.147,0.641h-6.34c-1.268,0-2.296,1.028-2.296,2.296s1.028,2.296,2.296,2.296h6.34
			c1.067,0,2.123-0.141,3.147-0.402v4.539c0,1.268,1.028,2.296,2.296,2.296c1.268,0,2.296-1.028,2.296-2.296v-4.568
			c1.042,0.271,2.118,0.416,3.206,0.416h6.34c1.268,0,2.296-1.028,2.296-2.296s-1.028-2.296-2.296-2.296h-6.34
			c-1.107,0-2.196-0.23-3.206-0.662v-7.08C48.728-18.408,49.804-18.263,50.892-18.263z"/>
	</g>
	<g id="Thin-S" transform="matrix(1 0 0 1 811.863 696)">
		<path d="M1.47-63.873c0,0,3.786-7.902,16.855-5.852c0,0,2.648-6.921,17.4-6.633h17.01c0,0,11.977-1.063,17.635,6.633
			c0,0,12.071-2.996,17.01,5.852c1.49,0.366-9.746,47.133-13.655,53.139L70.371,5.807H18.325l-3.121-16.542
			C7.992-28.959,3.782-46.504,1.47-63.873z M75.521-43.803c-1.127-0.517-2.457-0.024-2.974,1.101
			c-1.734,3.774-7.392,7.439-17.632,5.339c-8.392-1.72-8.183-8.3-8.13-9.059c0.098-1.228-0.814-2.306-2.043-2.412
			c-0.159-0.014-0.315-0.01-0.467,0.008c-0.013,0.001-0.025-0.002-0.038-0.001c-1.228,0.096-2.148,1.173-2.061,2.402
			c0.053,0.746,0.272,7.34-8.13,9.062c-10.237,2.098-15.899-1.565-17.633-5.34c-0.517-1.125-1.848-1.618-2.974-1.101
			c-1.125,0.517-1.618,1.849-1.101,2.974c1.975,4.297,7.245,8.562,16.077,8.561c1.994,0,4.171-0.218,6.532-0.701
			c4.825-0.989,7.79-3.333,9.533-5.93c1.744,2.597,4.708,4.941,9.534,5.93c2.361,0.484,4.537,0.701,6.532,0.701
			c8.831,0,14.102-4.265,16.076-8.562C77.14-41.955,76.647-43.286,75.521-43.803z M49.799-18.659h6.192
			c1.238,0,2.242-1.004,2.242-2.242c0-1.238-1.004-2.242-2.242-2.242h-6.192c-1.082,0-2.145-0.225-3.132-0.647v-2.964
			c0-1.238-1.004-2.242-2.242-2.242s-2.242,1.004-2.242,2.242v2.998c-0.971,0.406-2.013,0.626-3.074,0.626h-6.192
			c-1.238,0-2.242,1.004-2.242,2.242s1.004,2.242,2.242,2.242h6.192c1.043,0,2.074-0.138,3.074-0.392v6.923
			c-0.971,0.406-2.013,0.626-3.074,0.626h-6.192c-1.238,0-2.242,1.004-2.242,2.242s1.004,2.242,2.242,2.242h6.192
			c1.043,0,2.074-0.138,3.074-0.392v4.433c0,1.238,1.004,2.242,2.242,2.242s2.242-1.004,2.242-2.242v-4.461
			c1.018,0.264,2.069,0.406,3.132,0.406h6.192c1.238,0,2.242-1.004,2.242-2.242s-1.004-2.242-2.242-2.242h-6.192
			c-1.082,0-2.145-0.225-3.132-0.647v-6.915C47.685-18.801,48.736-18.659,49.799-18.659z"/>
	</g>
	<g id="Ultralight-S" transform="matrix(1 0 0 1 515.649 696)">
		<path d="M2.052-63.193c0,0,3.695-7.714,16.454-5.713c0,0,2.585-6.756,16.986-6.475h16.605c0,0,11.692-1.038,17.215,6.475
			c0,0,11.783-2.924,16.605,5.713c1.455,0.358-9.514,46.011-13.33,51.874L69.313,4.829H18.506l-3.047-16.148
			C8.419-29.11,4.31-46.237,2.052-63.193z M74.341-43.601c-1.1-0.505-2.399-0.023-2.903,1.075
			c-1.693,3.684-7.216,7.262-17.213,5.212c-8.192-1.679-7.988-8.102-7.936-8.844c0.095-1.199-0.795-2.252-1.995-2.355
			c-0.155-0.014-0.308-0.01-0.456,0.008c-0.012,0.001-0.024-0.002-0.037-0.001c-1.199,0.094-2.097,1.145-2.012,2.345
			c0.051,0.728,0.265,7.165-7.936,8.846c-9.994,2.048-15.52-1.528-17.213-5.212c-0.505-1.098-1.804-1.579-2.903-1.075
			c-1.098,0.505-1.58,1.805-1.075,2.903c1.928,4.195,7.072,8.358,15.694,8.357c1.947,0,4.072-0.213,6.376-0.685
			c4.71-0.965,7.604-3.253,9.306-5.788c1.702,2.535,4.596,4.823,9.307,5.788c2.305,0.472,4.429,0.685,6.376,0.685
			c8.621,0,13.766-4.163,15.694-8.358C75.921-41.797,75.439-43.096,74.341-43.601z M49.23-19.055h6.045
			c1.209,0,2.189-0.98,2.189-2.189c0-1.209-0.98-2.189-2.189-2.189H49.23c-1.056,0-2.094-0.22-3.057-0.631v-2.894
			c0-1.209-0.98-2.189-2.189-2.189s-2.189,0.98-2.189,2.189v2.927c-0.948,0.396-1.965,0.611-3.001,0.611H32.75
			c-1.209,0-2.189,0.98-2.189,2.189c0,1.209,0.98,2.189,2.189,2.189h6.045c1.018,0,2.024-0.134,3.001-0.383v6.758
			c-0.948,0.396-1.965,0.611-3.001,0.611H32.75c-1.209,0-2.189,0.98-2.189,2.189s0.98,2.189,2.189,2.189h6.045
			c1.018,0,2.024-0.134,3.001-0.383v4.327c0,1.209,0.98,2.189,2.189,2.189s2.189-0.98,2.189-2.189v-4.355
			c0.994,0.258,2.019,0.397,3.057,0.397h6.045c1.209,0,2.189-0.98,2.189-2.189s-0.98-2.189-2.189-2.189H49.23
			c-1.056,0-2.094-0.22-3.057-0.631v-6.751C47.167-19.194,48.193-19.055,49.23-19.055z"/>
	</g>
</g>
</svg>
