<?xml version="1.0" encoding="utf-8"?>
<!-- Generator: Adobe Illustrator 24.1.1, SVG Export Plug-In . SVG Version: 6.00 Build 0)  -->
<svg version="1.1" id="Layer_1" xmlns="http://www.w3.org/2000/svg" xmlns:xlink="http://www.w3.org/1999/xlink" x="0px" y="0px"
	 viewBox="0 0 3300 2200" style="enable-background:new 0 0 3300 2200;" xml:space="preserve">
<style type="text/css">
	.st0{fill:#FFFFFF;}
	.st1{fill:none;stroke:#000000;stroke-width:0.5;}
	.st2{font-family:'Arial-BoldMT';}
	.st3{font-size:13px;}
	.st4{font-family:'ArialMT';}
	.st5{fill:none;stroke:#00AEEF;stroke-width:0.5;}
	.st6{fill:#27AAE1;}
	.st7{fill:none;stroke:#27AAE1;stroke-width:0.5;}
</style>
<g id="Notes">
	<rect id="artboard" class="st0" width="3300" height="2200"/>
	<line class="st1" x1="263" y1="292" x2="3036" y2="292"/>
	<text transform="matrix(1 0 0 1 263 322)" class="st2 st3">Weight/Scale Variations</text>
	<text transform="matrix(1 0 0 1 534.0632 322)" class="st4 st3">Ultralight</text>
	<text transform="matrix(1 0 0 1 843.7776 322)" class="st4 st3">Thin</text>
	<text transform="matrix(1 0 0 1 1139.035 322)" class="st4 st3">Light</text>
	<text transform="matrix(1 0 0 1 1427.0773 322)" class="st4 st3">Regular</text>
	<text transform="matrix(1 0 0 1 1723.4419 322)" class="st4 st3">Medium</text>
	<text transform="matrix(1 0 0 1 2016.1719 322)" class="st4 st3">Semibold</text>
	<text transform="matrix(1 0 0 1 2326.9705 322)" class="st4 st3">Bold</text>
	<text transform="matrix(1 0 0 1 2618.2659 322)" class="st4 st3">Heavy</text>
	<text transform="matrix(1 0 0 1 2917.5054 322)" class="st4 st3">Black</text>
	<line class="st1" x1="263" y1="1903" x2="3036" y2="1903"/>
	<g transform="matrix(1 0 0 1 263 1933)">
		<path d="M9.2,0.8c4.3,0,7.9-3.6,7.9-7.9S13.5-15,9.2-15s-7.9,3.6-7.9,7.9C1.4-2.7,5,0.8,9.2,0.8z M9.2-0.7C5.7-0.7,2.9-3.5,2.9-7
			c0-3.6,2.8-6.4,6.4-6.4s6.4,2.8,6.4,6.4C15.6-3.5,12.8-0.7,9.2-0.7z M5.7-7.1c0,0.4,0.3,0.7,0.8,0.7h2.1v2.1
			c0,0.4,0.3,0.7,0.7,0.7S10-3.9,10-4.3v-2.1h2.1c0.4,0,0.7-0.3,0.7-0.7c0-0.4-0.3-0.7-0.7-0.7H10v-2.1c0-0.4-0.3-0.8-0.7-0.8
			s-0.7,0.3-0.7,0.8v2.1H6.4C6-7.8,5.7-7.5,5.7-7.1z"/>
	</g>
	<g transform="matrix(1 0 0 1 281.867 1933)">
		<path d="M11.7,2.9c5.4,0,10-4.5,10-10c0-5.4-4.5-10-10-10c-5.4,0-10,4.5-10,10C1.7-1.6,6.3,2.9,11.7,2.9z M11.7,1.3
			C7.1,1.3,3.4-2.4,3.4-7s3.7-8.3,8.3-8.3S20-11.7,20-7.1C20-2.4,16.3,1.3,11.7,1.3z M7.2-7.1c0,0.5,0.3,0.8,0.8,0.8h2.9v2.9
			c0,0.5,0.3,0.8,0.8,0.8s0.8-0.3,0.8-0.8v-2.9h2.9c0.5,0,0.8-0.3,0.8-0.8s-0.3-0.8-0.8-0.8h-2.9v-2.9c0-0.5-0.3-0.8-0.8-0.8
			s-0.8,0.3-0.8,0.8v2.9H8C7.5-7.9,7.2-7.5,7.2-7.1z"/>
	</g>
	<g transform="matrix(1 0 0 1 305.646 1933)">
		<path d="M15,5.7c7,0,12.7-5.8,12.7-12.7c0-7-5.8-12.7-12.7-12.7C8-19.8,2.3-14,2.3-7.1C2.3-0.1,8,5.7,15,5.7z M15,3.8
			C8.9,3.8,4.1-1,4.1-7S8.9-17.9,15-17.9c6,0,10.9,4.9,10.9,10.9S21,3.8,15,3.8z M9.2-7.1c0,0.5,0.4,0.9,0.9,0.9H14v4
			c0,0.5,0.4,0.9,0.9,0.9s0.9-0.4,0.9-0.9v-4h4c0.5,0,0.9-0.4,0.9-0.9S20.3-8,19.8-8h-4v-3.9c0-0.5-0.4-0.9-0.9-0.9S14-12.4,14-11.9
			V-8h-3.9C9.6-8,9.2-7.6,9.2-7.1z"/>
	</g>
	<text transform="matrix(1 0 0 1 263 1953)" class="st2 st3">Design Variations</text>
	<text transform="matrix(1 0 0 1 263 1971)" class="st4 st3">Symbols are supported in up to nine weights and three scales.</text>
	<text transform="matrix(1 0 0 1 263 1989)" class="st4 st3">For optimal layout with text and other symbols, vertically align</text>
	<text transform="matrix(1 0 0 1 263 2007)" class="st4 st3">symbols with the adjacent text.</text>
	<line class="st5" x1="776" y1="1919" x2="776" y2="1933"/>
	<g transform="matrix(1 0 0 1 776 1933)">
		<path d="M3.3,0.2c0.5,0,0.8-0.2,1-0.7L5.5-4h5.8l1.3,3.4C12.7,0,13,0.2,13.5,0.2s0.9-0.3,0.9-0.8c0-0.2,0-0.3-0.1-0.5L9.7-13.4
			C9.4-14,9-14.3,8.4-14.3s-1,0.3-1.2,0.9L2.6-1.2C2.5-1,2.5-0.8,2.5-0.6C2.5-0.1,2.8,0.2,3.3,0.2z M6-5.5l2.4-6.6l0,0l2.4,6.6
			C10.8-5.5,6-5.5,6-5.5z"/>
	</g>
	<line class="st5" x1="793.2" y1="1919" x2="793.2" y2="1933"/>
	<text transform="matrix(1 0 0 1 776 1953)" class="st2 st3">Margins</text>
	<text transform="matrix(1 0 0 1 776 1971)" class="st4 st3">Leading and trailing margins on the left and right side of each symbol</text>
	<text transform="matrix(1 0 0 1 776 1989)" class="st4 st3">can be adjusted by modifying the x-location of the margin guidelines.</text>
	<text transform="matrix(1 0 0 1 776 2007)" class="st4 st3">Modifications are automatically applied proportionally to all</text>
	<text transform="matrix(1 0 0 1 776 2025)" class="st4 st3">scales and weights.</text>
	<g transform="matrix(1 0 0 1 1289 1933)">
		<path d="M2.8,1.9l1.7,1.7c0.9,0.9,1.8,0.8,2.8-0.2L18-8.4l-1-1L6.4,2.3C6,2.7,5.7,2.8,5.2,2.3L4.1,1.1C3.6,0.7,3.7,0.3,4.1,0
			l11.5-10.8l-1-1L3-0.9C2.1,0,2,1,2.8,1.9z M9.3-16.3c-0.4,0.4-0.4,1-0.2,1.4s0.7,0.6,1.3,0.4c1.5-0.3,3-0.4,4.4,0.5l-0.6,1.5
			c-0.3,0.8-0.2,1.4,0.4,2l2.3,2.3c0.5,0.5,0.9,0.5,1.5,0.4l1-0.2l0.7,0.7v0.6c0,0.5,0.1,0.9,0.6,1.4l0.8,0.7c0.5,0.5,1.1,0.5,1.6,0
			L26-7.5C26.5-8,26.4-8.6,26-9l-1-0.9c-0.5-0.5-0.9-0.6-1.3-0.6h-0.6l-0.6-0.6l0.2-1.1c0.1-0.6,0-1-0.6-1.6L19.9-16
			C16.6-19.3,12.1-19.2,9.3-16.3z M10.8-16c2.4-1.8,5.7-1.5,7.9,0.8l2.4,2.4c0.2,0.2,0.3,0.4,0.2,0.8L21-10.5L22.5-9l1-0.1
			c0.3,0,0.3,0,0.5,0.2l0.6,0.6l-2.4,2.4l-0.6-0.6c-0.2-0.2-0.2-0.3-0.2-0.5l0.1-1L20-9.5l-1.5,0.3c-0.3,0.1-0.5,0-0.7-0.2l-2-2
			c-0.3-0.2-0.3-0.4-0.1-0.8l0.9-2.1C15-15.8,13-16.4,11-15.8C10.7-15.7,10.6-15.9,10.8-16z"/>
	</g>
	<text transform="matrix(1 0 0 1 1289 1953)" class="st2 st3">Exporting</text>
	<text transform="matrix(1 0 0 1 1289 1971)" class="st4 st3">Symbols should be outlined when exporting to ensure the</text>
	<text transform="matrix(1 0 0 1 1289 1989)" class="st4 st3">design is preserved when submitting to Xcode.</text>
	<text id="template-version" transform="matrix(1 0 0 1 2952.4204 1933)" class="st4 st3">Template v.4.0</text>
	<text transform="matrix(1 0 0 1 2865.4575 1951)" class="st4 st3">Requires Xcode 14 or greater</text>
	<text id="descriptive-name" transform="matrix(1 0 0 1 2910.272 1969)" class="st4 st3">Generated from chest</text>
	<text transform="matrix(1 0 0 1 2912.4175 1987)" class="st4 st3">Typeset at 100 points</text>
	<text transform="matrix(1 0 0 1 263 726)" class="st4 st3">Small</text>
	<text transform="matrix(1 0 0 1 263 1156)" class="st4 st3">Medium</text>
	<text transform="matrix(1 0 0 1 263 1586)" class="st4 st3">Large</text>
</g>
<g id="Guides">
	<g id="H-reference" transform="matrix(1 0 0 1 339 696)">
		<path class="st6" d="M1,0h2.6l25.7-67.1H30v-3.3h-1.9L1,0z M11.7-24.5H47l-0.8-2.2H12.4L11.7-24.5z M55.1,0h2.6L30.6-70.5h-1.2
			v3.3L55.1,0z"/>
	</g>
	<line id="Baseline-S" class="st7" x1="263" y1="696" x2="3036" y2="696"/>
	<line id="Capline-S" class="st7" x1="263" y1="625.5" x2="3036" y2="625.5"/>
	<g id="H-reference_1_" transform="matrix(1 0 0 1 339 1126)">
		<path class="st6" d="M1,0h2.6l25.7-67.1H30v-3.3h-1.9L1,0z M11.7-24.5H47l-0.8-2.2H12.4L11.7-24.5z M55.1,0h2.6L30.6-70.5h-1.2
			v3.3L55.1,0z"/>
	</g>
	<line id="Baseline-M" class="st7" x1="263" y1="1126" x2="3036" y2="1126"/>
	<line id="Capline-M" class="st7" x1="263" y1="1055.5" x2="3036" y2="1055.5"/>
	<g id="H-reference_2_" transform="matrix(1 0 0 1 339 1556)">
		<path class="st6" d="M1,0h2.6l25.7-67.1H30v-3.3h-1.9L1,0z M11.7-24.5H47l-0.8-2.2H12.4L11.7-24.5z M55.1,0h2.6L30.6-70.5h-1.2
			v3.3L55.1,0z"/>
	</g>
	<line id="Baseline-L" class="st7" x1="263" y1="1556" x2="3036" y2="1556"/>
	<line id="Capline-L" class="st7" x1="263" y1="1485.5" x2="3036" y2="1485.5"/>
	<line id="left-margin-Regular-M" class="st5" x1="1391.3" y1="1030.8" x2="1391.3" y2="1150.1"/>
	<line id="right-margin-Regular-M" class="st5" x1="1508.4" y1="1030.8" x2="1508.4" y2="1150.1"/>
</g>
<g id="Symbols">
	<g id="Black-L" transform="matrix(1 0 0 1 2854.19 1556)">
		<path d="M161.546-88.523c-9.402-17.042-32.614-11.312-32.614-11.312c-10.872-14.838-33.936-12.781-33.936-12.781H62.381
			c-28.354-0.588-33.495,12.781-33.495,12.781c-25.122-3.82-32.32,11.312-32.32,11.312C0.973-55.027,9.053-21.385,22.715,13.58
			l6.023,31.732h100.046l6.464-31.732C142.888,1.974,164.337-87.788,161.546-88.523z M102.654,22.653
			c-0.996,0.095-3.33,0.281-6.299,0.281c-3.417,0-7.667-0.271-11.701-1.183v6.95c0,3.004-2.435,5.439-5.439,5.439
			s-5.439-2.435-5.439-5.439v-6.967c-4.056,0.926-8.337,1.2-11.774,1.2c-2.97,0-5.303-0.185-6.299-0.281
			c-2.991-0.284-5.185-2.938-4.9-5.929c0.283-2.992,2.934-5.191,5.927-4.9c4.947,0.462,12.663,0.252,17.046-1.36V-0.205
			c-4.056,0.926-8.337,1.199-11.775,1.199c-2.97,0-5.303-0.185-6.298-0.28c-2.991-0.284-5.185-2.938-4.9-5.929
			c0.283-2.991,2.934-5.184,5.927-4.9c4.942,0.458,12.662,0.251,17.046-1.361v-5.968c0-3.004,2.435-5.439,5.439-5.439
			s5.439,2.435,5.439,5.439v5.996c4.398,1.588,12.061,1.791,16.976,1.332c3.011-0.271,5.642,1.917,5.923,4.905
			c0.282,2.99-1.91,5.641-4.899,5.925c-0.996,0.095-3.33,0.28-6.298,0.28c-3.417,0-7.668-0.271-11.702-1.183v10.672
			c4.427,1.584,12.208,1.792,16.972,1.34c2.984-0.288,5.645,1.909,5.929,4.9C107.839,19.715,105.645,22.369,102.654,22.653z
			 M140.39-42.382c-0.287,0.669-6.572,14.728-27.446,14.728c-2.536,0-5.287-0.207-8.269-0.672
			c-13.624-2.121-21.21-6.263-25.497-11.376c-4.287,5.113-11.873,9.254-25.498,11.376c-2.981,0.465-5.734,0.672-8.269,0.672
			c-20.877,0-27.159-14.059-27.445-14.728c-1.182-2.761,0.099-5.959,2.861-7.141c2.739-1.167,5.901,0.077,7.109,2.787
			c0.277,0.58,5.372,10.567,24.072,7.662c19.606-3.053,21.089-9.869,21.722-15.571c-0.066-2.801,2.002-5.235,4.839-5.535
			c0.028-0.003,0.055,0.002,0.083-0.001c0.167-0.017,0.339-0.002,0.509-0.004c0.182,0,0.367-0.015,0.546,0.004
			c0.027,0.003,0.053-0.003,0.08,0c2.836,0.299,4.903,2.733,4.838,5.533c0.634,5.703,2.116,12.52,21.723,15.573
			c18.842,2.933,23.873-7.238,24.078-7.674c1.181-2.761,4.36-3.997,7.122-2.818C140.31-48.383,141.573-45.143,140.39-42.382z"/>
	</g>
	<g id="Heavy-L" transform="matrix(1 0 0 1 2558.42 1556)">
		<path d="M158.995-87.404c-9.21-16.694-31.948-11.081-31.948-11.081c-10.65-14.535-33.244-12.52-33.244-12.52H61.854
			c-27.775-0.576-32.812,12.52-32.812,12.52C4.433-102.227-2.618-87.404-2.618-87.404C1.699-54.592,9.614-21.636,22.998,12.615
			l5.9,31.085h98.004l6.332-31.085C140.718,1.246,161.729-86.684,158.995-87.404z M101.305,21.503
			c-0.975,0.093-3.262,0.275-6.171,0.275c-3.347,0-7.511-0.265-11.462-1.159v6.808c0,2.943-2.385,5.328-5.328,5.328
			s-5.328-2.385-5.328-5.328v-6.825c-3.973,0.907-8.167,1.175-11.533,1.175c-2.91,0-5.195-0.182-6.171-0.275
			c-2.93-0.278-5.079-2.878-4.8-5.808c0.278-2.93,2.874-5.085,5.806-4.8c4.846,0.452,12.405,0.247,16.698-1.332V-0.889
			c-3.973,0.907-8.167,1.175-11.534,1.175c-2.91,0-5.194-0.181-6.17-0.274c-2.93-0.278-5.079-2.878-4.8-5.808
			c0.278-2.93,2.874-5.078,5.806-4.8c4.841,0.449,12.404,0.246,16.698-1.333v-5.846c0-2.943,2.385-5.328,5.328-5.328
			s5.328,2.385,5.328,5.328v5.873c4.308,1.556,11.815,1.755,16.63,1.305c2.949-0.266,5.526,1.878,5.802,4.805
			c0.276,2.929-1.871,5.526-4.799,5.804c-0.975,0.093-3.262,0.274-6.17,0.274c-3.347,0-7.511-0.265-11.463-1.158V9.582
			c4.337,1.551,11.959,1.756,16.625,1.313c2.923-0.282,5.53,1.87,5.808,4.8C106.384,18.625,104.235,21.225,101.305,21.503z
			 M138.271-42.204c-0.281,0.656-6.438,14.428-26.886,14.428c-2.484,0-5.179-0.203-8.1-0.658
			c-13.346-2.078-20.777-6.135-24.977-11.144c-4.199,5.008-11.63,9.066-24.977,11.144c-2.92,0.455-5.617,0.658-8.1,0.658
			c-20.451,0-26.605-13.772-26.885-14.428c-1.158-2.705,0.097-5.837,2.802-6.995c2.683-1.143,5.781,0.075,6.964,2.73
			c0.272,0.568,5.262,10.352,23.581,7.505c19.206-2.991,20.659-9.668,21.279-15.254c-0.065-2.744,1.961-5.128,4.74-5.422
			c0.028-0.003,0.054,0.002,0.081-0.001c0.163-0.017,0.332-0.002,0.499-0.004c0.179,0,0.359-0.014,0.534,0.004
			c0.027,0.002,0.052-0.002,0.079,0c2.778,0.293,4.803,2.677,4.74,5.42c0.622,5.586,2.073,12.264,21.28,15.256
			c18.457,2.873,23.386-7.091,23.587-7.517c1.157-2.705,4.271-3.916,6.977-2.76C138.193-48.084,139.429-44.909,138.271-42.204z"/>
	</g>
	<g id="Bold-L" transform="matrix(1 0 0 1 2262.89 1556)">
		<path d="M156.074-86.285c-9.018-16.346-31.283-10.85-31.283-10.85c-10.428-14.232-32.551-12.259-32.551-12.259H60.957
			c-27.196-0.564-32.128,12.259-32.128,12.259c-24.096-3.664-31.001,10.85-31.001,10.85C2.055-54.156,9.805-21.887,22.91,11.65
			l5.777,30.437h95.962l6.2-30.437C138.178,0.518,158.751-85.58,156.074-86.285z M99.586,20.353
			c-0.955,0.091-3.194,0.269-6.042,0.269c-3.277,0-7.354-0.26-11.224-1.134v6.666c0,2.882-2.336,5.217-5.217,5.217
			s-5.217-2.336-5.217-5.217v-6.682c-3.89,0.888-7.996,1.151-11.293,1.151c-2.849,0-5.087-0.178-6.042-0.269
			c-2.869-0.273-4.973-2.818-4.7-5.687c0.272-2.869,2.814-4.979,5.685-4.7c4.745,0.443,12.146,0.242,16.35-1.304V-1.572
			c-3.89,0.888-7.997,1.15-11.294,1.15c-2.849,0-5.086-0.177-6.041-0.269c-2.869-0.273-4.973-2.818-4.7-5.687
			c0.272-2.869,2.814-4.972,5.685-4.7c4.741,0.439,12.145,0.241,16.35-1.305v-5.724c0-2.882,2.336-5.217,5.217-5.217
			s5.217,2.336,5.217,5.217v5.751c4.219,1.523,11.569,1.718,16.283,1.278c2.888-0.26,5.411,1.839,5.681,4.705
			c0.27,2.868-1.832,5.41-4.699,5.683c-0.955,0.091-3.194,0.269-6.041,0.269c-3.277,0-7.355-0.26-11.224-1.134V8.68
			c4.246,1.519,11.71,1.719,16.279,1.285c2.862-0.277,5.414,1.831,5.687,4.7C104.559,17.535,102.455,20.081,99.586,20.353z
			 M135.782-42.027c-0.275,0.642-6.304,14.127-26.326,14.127c-2.433,0-5.071-0.199-7.931-0.645
			c-13.068-2.035-20.344-6.008-24.456-10.911c-4.112,4.904-11.388,8.877-24.457,10.911c-2.859,0.446-5.5,0.645-7.931,0.645
			c-20.025,0-26.05-13.485-26.325-14.127c-1.134-2.649,0.095-5.715,2.744-6.849c2.627-1.119,5.66,0.074,6.818,2.673
			c0.266,0.556,5.152,10.136,23.089,7.349c18.806-2.928,20.228-9.466,20.836-14.936c-0.064-2.687,1.92-5.021,4.641-5.309
			c0.027-0.003,0.053,0.002,0.08-0.001c0.16-0.016,0.326-0.002,0.489-0.003c0.175,0,0.352-0.014,0.523,0.004
			c0.026,0.002,0.051-0.002,0.077,0c2.72,0.287,4.703,2.621,4.641,5.307c0.609,5.47,2.03,12.009,20.837,14.938
			c18.073,2.814,22.899-6.943,23.095-7.36c1.133-2.649,4.182-3.834,6.831-2.703C135.705-47.784,136.916-44.676,135.782-42.027z"/>
	</g>
	<g id="Semibold-L" transform="matrix(1 0 0 1 1966.99 1556)">
		<path d="M153.623-85.166c-8.827-15.998-30.617-10.619-30.617-10.619c-10.206-13.93-31.859-11.999-31.859-11.999H60.53
			c-26.618-0.552-31.445,11.999-31.445,11.999C5.502-99.371-1.256-85.166-1.256-85.166c4.137,31.445,11.723,63.027,24.549,95.851
			l5.654,29.79h93.921l6.068-29.79C136.107-0.21,156.243-84.476,153.623-85.166z M98.337,19.203
			c-0.935,0.089-3.126,0.264-5.914,0.264c-3.207,0-7.198-0.254-10.985-1.11v6.524c0,2.82-2.286,5.106-5.106,5.106
			c-2.82,0-5.106-2.286-5.106-5.106v-6.54c-3.807,0.869-7.826,1.126-11.053,1.126c-2.789,0-4.979-0.174-5.914-0.264
			c-2.808-0.267-4.867-2.758-4.6-5.566c0.266-2.808,2.755-4.873,5.564-4.6C59.868,9.47,67.112,9.273,71.226,7.76V-2.256
			C67.419-1.387,63.4-1.13,60.173-1.13c-2.789,0-4.978-0.173-5.913-0.263c-2.808-0.267-4.867-2.758-4.6-5.566
			c0.266-2.808,2.755-4.866,5.564-4.6c4.64,0.43,11.887,0.235,16.002-1.278v-5.602c0-2.82,2.286-5.106,5.106-5.106
			c2.82,0,5.106,2.286,5.106,5.106v5.629c4.129,1.491,11.323,1.682,15.937,1.251c2.827-0.255,5.296,1.8,5.561,4.605
			c0.264,2.807-1.793,5.295-4.599,5.562c-0.935,0.089-3.126,0.263-5.913,0.263c-3.208,0-7.198-0.254-10.986-1.11V7.779
			c4.156,1.487,11.461,1.682,15.933,1.258c2.801-0.271,5.299,1.792,5.566,4.6C103.204,16.445,101.145,18.936,98.337,19.203z
			 M133.763-41.85c-0.269,0.628-6.17,13.826-25.766,13.826c-2.381,0-4.963-0.195-7.763-0.631
			c-12.79-1.991-19.911-5.88-23.936-10.679c-4.024,4.8-11.146,8.688-23.937,10.679c-2.798,0.436-5.383,0.631-7.763,0.631
			C25-28.024,19.103-41.222,18.834-41.85c-1.11-2.592,0.093-5.594,2.686-6.703c2.571-1.095,5.54,0.072,6.673,2.616
			c0.26,0.545,5.043,9.92,22.598,7.193c18.405-2.866,19.798-9.265,20.392-14.618c-0.062-2.63,1.879-4.915,4.542-5.196
			c0.027-0.003,0.051,0.002,0.078-0.001c0.156-0.016,0.319-0.002,0.478-0.003c0.171,0,0.345-0.014,0.512,0.004
			c0.026,0.002,0.05-0.002,0.075,0c2.662,0.281,4.603,2.565,4.542,5.194c0.596,5.354,1.987,11.753,20.393,14.62
			c17.688,2.754,22.411-6.795,22.604-7.204c1.109-2.592,4.093-3.753,6.686-2.645C133.688-47.484,134.873-44.442,133.763-41.85z"/>
	</g>
	<g id="Medium-L" transform="matrix(1 0 0 1 1670.9 1556)">
		<path d="M151.372-84.047c-8.635-15.65-29.952-10.389-29.952-10.389c-9.984-13.627-31.166-11.738-31.166-11.738H60.303
			c-26.039-0.54-30.761,11.738-30.761,11.738C6.471-97.944-0.14-84.047-0.14-84.047C3.907-53.286,11.328-22.39,23.875,9.72
			l5.531,29.142h91.879l5.936-29.142C134.237-0.938,153.935-83.373,151.372-84.047z M97.288,18.053
			c-0.914,0.087-3.058,0.258-5.785,0.258c-3.138,0-7.041-0.249-10.746-1.086v6.383c0,2.759-2.236,4.995-4.995,4.995
			c-2.759,0-4.995-2.236-4.995-4.995v-6.398c-3.724,0.85-7.656,1.102-10.813,1.102c-2.728,0-4.87-0.17-5.785-0.258
			c-2.747-0.261-4.761-2.699-4.5-5.445c0.26-2.747,2.695-4.768,5.443-4.5c4.543,0.424,11.629,0.232,15.654-1.249v-9.798
			c-3.725,0.85-7.657,1.101-10.813,1.101c-2.728,0-4.87-0.17-5.784-0.257c-2.747-0.261-4.761-2.699-4.5-5.445
			c0.26-2.747,2.695-4.761,5.443-4.5c4.539,0.421,11.628,0.23,15.654-1.25v-5.481c0-2.759,2.236-4.995,4.995-4.995
			c2.759,0,4.995,2.236,4.995,4.995v5.506c4.039,1.458,11.077,1.645,15.59,1.223c2.765-0.249,5.181,1.761,5.44,4.505
			c0.259,2.746-1.754,5.18-4.499,5.441c-0.914,0.087-3.058,0.257-5.784,0.257c-3.138,0-7.042-0.249-10.747-1.086v9.801
			c4.066,1.454,11.211,1.646,15.586,1.231c2.74-0.265,5.184,1.753,5.445,4.5C102.049,15.354,100.035,17.792,97.288,18.053z
			 M131.944-41.673c-0.263,0.615-6.036,13.526-25.206,13.526c-2.329,0-4.855-0.19-7.594-0.617
			c-12.512-1.948-19.478-5.752-23.416-10.447c-3.937,4.695-10.903,8.499-23.416,10.447c-2.737,0.427-5.266,0.617-7.594,0.617
			c-19.173,0-24.942-12.911-25.205-13.526c-1.086-2.536,0.091-5.472,2.627-6.558c2.515-1.072,5.419,0.07,6.528,2.559
			c0.255,0.533,4.933,9.705,22.107,7.036c18.005-2.804,19.367-9.063,19.949-14.3c-0.061-2.573,1.838-4.808,4.444-5.083
			c0.026-0.003,0.05,0.002,0.076-0.001c0.153-0.016,0.312-0.002,0.468-0.003c0.167,0,0.337-0.013,0.501,0.003
			c0.025,0.002,0.049-0.002,0.074,0c2.604,0.275,4.503,2.51,4.443,5.081c0.583,5.237,1.944,11.498,19.95,14.302
			c17.304,2.694,21.924-6.648,22.112-7.047c1.085-2.536,4.004-3.671,6.541-2.588C131.87-47.185,133.029-44.209,131.944-41.673z"/>
	</g>
	<g id="Regular-L" transform="matrix(1 0 0 1 1374.99 1556)">
		<path d="M148.821-82.928c-8.443-15.303-29.286-10.158-29.286-10.158c-9.762-13.324-30.474-11.477-30.474-11.477H59.775
			c-25.46-0.528-30.078,11.477-30.078,11.477C7.14-96.516,0.676-82.928,0.676-82.928C4.633-52.851,11.889-22.641,24.157,8.756
			l5.408,28.494h89.837l5.804-28.494C132.067-1.666,151.327-82.269,148.821-82.928z M95.939,16.903
			c-0.894,0.086-2.99,0.252-5.656,0.252c-3.068,0-6.885-0.243-10.507-1.062v6.241c0,2.698-2.187,4.884-4.884,4.884
			c-2.698,0-4.884-2.187-4.884-4.884v-6.256c-3.642,0.831-7.486,1.077-10.572,1.077c-2.667,0-4.762-0.167-5.656-0.252
			c-2.685-0.255-4.656-2.639-4.4-5.324c0.254-2.686,2.635-4.662,5.323-4.4c4.442,0.415,11.371,0.226,15.307-1.221v-9.581
			c-3.642,0.831-7.487,1.077-10.573,1.077c-2.667,0-4.762-0.166-5.656-0.251c-2.685-0.255-4.656-2.639-4.4-5.324
			c0.254-2.685,2.635-4.655,5.323-4.4c4.438,0.411,11.37,0.225,15.307-1.222v-5.359c0-2.698,2.187-4.884,4.884-4.884
			c2.698,0,4.884,2.187,4.884,4.884v5.384c3.949,1.426,10.831,1.608,15.244,1.196c2.704-0.244,5.066,1.722,5.319,4.405
			c0.253,2.685-1.715,5.065-4.399,5.32c-0.894,0.086-2.99,0.251-5.656,0.251c-3.068,0-6.885-0.243-10.508-1.062v9.583
			c3.975,1.422,10.962,1.609,15.24,1.203c2.679-0.259,5.069,1.714,5.324,4.4C100.594,14.264,98.624,16.648,95.939,16.903z
			 M129.824-41.496c-0.257,0.601-5.902,13.225-24.646,13.225c-2.277,0-4.747-0.186-7.425-0.603
			c-12.234-1.905-19.046-5.624-22.895-10.215c-3.849,4.591-10.661,8.31-22.896,10.215c-2.676,0.417-5.149,0.603-7.425,0.603
			c-18.747,0-24.387-12.624-24.645-13.225c-1.061-2.48,0.089-5.351,2.569-6.412c2.459-1.048,5.299,0.069,6.383,2.502
			c0.249,0.521,4.824,9.489,21.616,6.88c17.605-2.742,18.937-8.862,19.506-13.982c-0.06-2.516,1.798-4.701,4.345-4.97
			c0.025-0.003,0.049,0.002,0.075-0.001c0.15-0.015,0.305-0.002,0.457-0.003c0.164,0,0.33-0.013,0.49,0.003
			c0.024,0.002,0.048-0.002,0.072,0c2.546,0.269,4.403,2.454,4.345,4.969c0.57,5.121,1.9,11.242,19.507,13.984
			c16.919,2.634,21.437-6.5,21.621-6.891c1.061-2.48,3.915-3.589,6.395-2.53C129.753-46.885,130.886-43.975,129.824-41.496z"/>
	</g>
	<g id="Light-L" transform="matrix(1 0 0 1 1079.2 1556)">
		<path d="M146.14-81.81c-8.251-14.955-28.62-9.927-28.62-9.927c-9.54-13.021-29.781-11.216-29.781-11.216h-28.62
			c-24.882-0.516-29.394,11.216-29.394,11.216C7.679-95.089,1.362-81.81,1.362-81.81C5.229-52.415,12.32-22.893,24.31,7.791
			l5.286,27.847h87.795l5.673-27.847C129.767-2.394,148.589-81.165,146.14-81.81z M94.46,15.753
			c-0.874,0.084-2.922,0.246-5.528,0.246c-2.998,0-6.728-0.238-10.268-1.038v6.099c0,2.636-2.137,4.773-4.773,4.773
			c-2.636,0-4.773-2.137-4.773-4.773v-6.114c-3.559,0.812-7.316,1.053-10.332,1.053c-2.607,0-4.654-0.163-5.528-0.246
			c-2.624-0.249-4.55-2.579-4.3-5.203c0.249-2.625,2.575-4.556,5.202-4.3C58.5,6.655,65.271,6.471,69.117,5.056v-9.363
			c-3.559,0.812-7.316,1.053-10.333,1.053c-2.607,0-4.653-0.162-5.527-0.246c-2.624-0.249-4.55-2.579-4.3-5.203
			c0.249-2.624,2.575-4.549,5.202-4.3c4.337,0.402,11.112,0.22,14.959-1.194v-5.237c0-2.636,2.137-4.773,4.773-4.773
			c2.636,0,4.773,2.137,4.773,4.773v5.261c3.86,1.394,10.584,1.572,14.897,1.169c2.642-0.238,4.951,1.683,5.198,4.305
			c0.247,2.624-1.676,4.95-4.299,5.199c-0.874,0.084-2.922,0.246-5.527,0.246c-2.998,0-6.729-0.238-10.269-1.038v9.365
			c3.885,1.39,10.713,1.573,14.894,1.176c2.619-0.253,4.954,1.675,5.203,4.3C99.01,13.174,97.084,15.503,94.46,15.753z
			 M127.575-41.319c-0.252,0.587-5.768,12.925-24.086,12.925c-2.226,0-4.639-0.182-7.256-0.59
			c-11.956-1.862-18.613-5.496-22.375-9.983c-3.762,4.487-10.419,8.121-22.376,9.983c-2.616,0.408-5.032,0.59-7.256,0.59
			c-18.321,0-23.833-12.337-24.085-12.925c-1.037-2.423,0.087-5.229,2.511-6.266c2.403-1.024,5.179,0.067,6.238,2.445
			c0.243,0.509,4.714,9.273,21.124,6.724c17.205-2.679,18.507-8.661,19.062-13.665c-0.058-2.458,1.757-4.594,4.246-4.858
			c0.025-0.003,0.048,0.002,0.073-0.001c0.146-0.015,0.298-0.002,0.447-0.003c0.16,0,0.322-0.013,0.479,0.003
			c0.024,0.002,0.047-0.002,0.07,0c2.488,0.263,4.303,2.398,4.246,4.856c0.557,5.004,1.857,10.987,19.063,13.666
			c16.535,2.574,20.95-6.352,21.13-6.734c1.037-2.423,3.826-3.508,6.25-2.473C127.505-46.585,128.613-43.742,127.575-41.319z"/>
	</g>
	<g id="Thin-L" transform="matrix(1 0 0 1 783.716 1556)">
		<path d="M143.239-80.691c-8.059-14.607-27.955-9.696-27.955-9.696c-9.319-12.718-29.088-10.955-29.088-10.955H58.241
			c-24.303-0.504-28.71,10.955-28.71,10.955C7.998-93.661,1.828-80.691,1.828-80.691C5.605-51.98,12.531-23.144,24.242,6.826
			l5.163,27.199h85.754l5.541-27.199C127.247-3.122,145.632-80.061,143.239-80.691z M92.761,14.603
			c-0.854,0.082-2.854,0.241-5.399,0.241c-2.929,0-6.572-0.232-10.03-1.014v5.957c0,2.575-2.087,4.662-4.662,4.662
			c-2.575,0-4.662-2.087-4.662-4.662v-5.972c-3.476,0.793-7.146,1.028-10.092,1.028c-2.546,0-4.546-0.159-5.399-0.241
			c-2.563-0.244-4.444-2.519-4.2-5.082c0.243-2.564,2.515-4.45,5.081-4.2c4.24,0.396,10.854,0.216,14.611-1.165V-4.99
			c-3.477,0.793-7.146,1.028-10.093,1.028c-2.546,0-4.545-0.158-5.399-0.24c-2.563-0.244-4.444-2.519-4.2-5.082
			c0.243-2.563,2.515-4.443,5.081-4.2c4.236,0.393,10.853,0.215,14.611-1.166v-5.115c0-2.575,2.087-4.662,4.662-4.662
			c2.575,0,4.662,2.087,4.662,4.662v5.139c3.77,1.361,10.338,1.535,14.551,1.142c2.581-0.233,4.836,1.643,5.077,4.205
			c0.241,2.563-1.637,4.835-4.199,5.078c-0.854,0.082-2.854,0.24-5.399,0.24c-2.929,0-6.572-0.232-10.03-1.014v9.147
			c3.795,1.357,10.464,1.536,14.547,1.149c2.558-0.247,4.838,1.636,5.082,4.2C97.205,12.084,95.324,14.359,92.761,14.603z
			 M125.106-41.141c-0.246,0.574-5.633,12.624-23.525,12.624c-2.174,0-4.531-0.178-7.088-0.576
			c-11.678-1.818-18.18-5.368-21.854-9.751c-3.674,4.382-10.177,7.932-21.855,9.751c-2.555,0.398-4.915,0.576-7.088,0.576
			c-17.895,0-23.279-12.05-23.525-12.624c-1.013-2.367,0.085-5.107,2.452-6.121c2.347-1,5.058,0.066,6.093,2.389
			c0.238,0.497,4.604,9.058,20.633,6.567c16.805-2.617,18.076-8.459,18.619-13.347c-0.057-2.401,1.716-4.487,4.147-4.745
			c0.024-0.003,0.047,0.002,0.071-0.001c0.143-0.015,0.291-0.002,0.437-0.003c0.156,0,0.315-0.012,0.468,0.003
			c0.023,0.002,0.046-0.002,0.069,0c2.43,0.257,4.203,2.342,4.147,4.743c0.544,4.888,1.814,10.731,18.62,13.349
			c16.15,2.514,20.463-6.204,20.638-6.577c1.013-2.367,3.737-3.426,6.105-2.415C125.037-46.286,126.119-43.508,125.106-41.141z"/>
	</g>
	<g id="Ultralight-L" transform="matrix(1 0 0 1 487.631 1556)">
		<path d="M140.987-79.572c-7.867-14.259-27.289-9.465-27.289-9.465c-9.097-12.415-28.396-10.694-28.396-10.694H58.013
			c-23.724-0.492-28.027,10.694-28.027,10.694c-21.02-3.196-27.043,9.465-27.043,9.465C6.63-51.545,13.391-23.395,24.823,5.861
			l5.04,26.552h83.712l5.409-26.552C125.376-3.85,143.323-78.957,140.987-79.572z M91.711,13.453
			c-0.833,0.08-2.786,0.235-5.271,0.235c-2.859,0-6.415-0.227-9.791-0.99v5.815c0,2.514-2.037,4.551-4.551,4.551
			s-4.551-2.037-4.551-4.551v-5.829c-3.393,0.774-6.976,1.004-9.852,1.004c-2.485,0-4.438-0.155-5.271-0.235
			c-2.502-0.238-4.338-2.459-4.1-4.961c0.237-2.503,2.455-4.344,4.96-4.1c4.139,0.386,10.596,0.211,14.263-1.138v-8.927
			c-3.394,0.774-6.976,1.004-9.852,1.004c-2.485,0-4.437-0.155-5.27-0.234c-2.502-0.238-4.338-2.459-4.1-4.961
			c0.237-2.502,2.455-4.337,4.96-4.1c4.135,0.383,10.595,0.21,14.263-1.139v-4.993c0-2.514,2.037-4.551,4.551-4.551
			s4.551,2.037,4.551,4.551v5.017c3.68,1.329,10.092,1.499,14.204,1.115c2.519-0.227,4.72,1.604,4.956,4.105
			c0.236,2.502-1.598,4.72-4.099,4.958c-0.833,0.08-2.786,0.234-5.27,0.234c-2.859,0-6.416-0.226-9.792-0.989v8.93
			c3.704,1.325,10.215,1.5,14.201,1.121c2.497-0.241,4.723,1.597,4.961,4.1C96.049,10.994,94.213,13.215,91.711,13.453z
			 M123.286-40.964c-0.24,0.56-5.499,12.324-22.965,12.324c-2.122,0-4.423-0.174-6.919-0.562c-11.4-1.775-17.747-5.241-21.334-9.519
			c-3.587,4.278-9.934,7.744-21.335,9.519c-2.494,0.389-4.798,0.562-6.919,0.562c-17.469,0-22.725-11.763-22.965-12.324
			c-0.989-2.31,0.083-4.986,2.394-5.975c2.291-0.976,4.938,0.064,5.948,2.332c0.232,0.485,4.495,8.842,20.142,6.411
			c16.405-2.555,17.646-8.258,18.176-13.029c-0.056-2.344,1.675-4.38,4.049-4.632c0.024-0.002,0.046,0.002,0.069-0.001
			c0.139-0.014,0.284-0.002,0.426-0.003c0.153,0,0.307-0.012,0.456,0.003c0.023,0.002,0.044-0.002,0.067,0
			c2.373,0.25,4.102,2.287,4.048,4.63c0.531,4.772,1.771,10.476,18.177,13.031c15.766,2.454,19.975-6.057,20.147-6.421
			c0.988-2.31,3.648-3.345,5.959-2.358C123.219-45.986,124.275-43.275,123.286-40.964z"/>
	</g>
	<g id="Black-M" transform="matrix(1 0 0 1 2871.36 1126)">
		<path d="M125.859-77.598c-7.289-13.211-25.282-8.769-25.282-8.769c-8.428-11.502-26.307-9.908-26.307-9.908H48.987
			c-21.979-0.456-25.965,9.908-25.965,9.908C3.548-89.328-2.032-77.598-2.032-77.598c3.416,25.966,9.68,52.045,20.271,79.149
			l4.669,24.599h77.555l5.011-24.599C111.396-7.446,128.023-77.029,125.859-77.598z M80.207,8.585
			c-0.772,0.074-2.581,0.218-4.883,0.218c-2.649,0-5.944-0.21-9.071-0.917v5.388c0,2.329-1.888,4.216-4.216,4.216
			c-2.329,0-4.216-1.888-4.216-4.216V7.872c-3.144,0.717-6.463,0.93-9.127,0.93c-2.303,0-4.111-0.144-4.883-0.218
			c-2.318-0.22-4.019-2.278-3.799-4.596c0.22-2.319,2.275-4.024,4.595-3.799c3.835,0.358,9.816,0.195,13.214-1.054v-8.271
			c-3.144,0.717-6.463,0.93-9.128,0.93c-2.303,0-4.111-0.143-4.882-0.217c-2.318-0.22-4.019-2.278-3.799-4.596
			c0.22-2.318,2.275-4.018,4.595-3.799c3.831,0.355,9.816,0.194,13.214-1.055v-4.626c0-2.329,1.888-4.216,4.216-4.216
			c2.329,0,4.216,1.888,4.216,4.216v4.648c3.409,1.231,9.35,1.389,13.16,1.033c2.334-0.21,4.373,1.486,4.592,3.803
			c0.218,2.318-1.48,4.373-3.797,4.593c-0.772,0.074-2.581,0.217-4.882,0.217c-2.649,0-5.944-0.21-9.071-0.917v8.273
			C69.685,0.379,75.717,0.54,79.41,0.19c2.313-0.224,4.376,1.48,4.596,3.799C84.226,6.307,82.525,8.364,80.207,8.585z M109.46-41.83
			c-0.222,0.519-5.095,11.417-21.276,11.417c-1.966,0-4.098-0.161-6.41-0.521c-10.561-1.644-16.442-4.855-19.765-8.818
			c-3.323,3.963-9.204,7.174-19.766,8.818c-2.31,0.36-4.445,0.521-6.41,0.521c-16.184,0-21.053-10.898-21.276-11.417
			c-0.916-2.141,0.076-4.619,2.218-5.535c2.123-0.905,4.575,0.059,5.511,2.16c0.215,0.45,4.164,8.192,18.66,5.939
			c15.198-2.367,16.348-7.65,16.839-12.071c-0.051-2.172,1.552-4.058,3.751-4.291c0.022-0.002,0.042,0.002,0.064,0
			c0.129-0.013,0.263-0.002,0.395-0.003c0.141,0,0.284-0.011,0.423,0.003c0.021,0.002,0.041-0.002,0.062,0
			c2.198,0.232,3.801,2.118,3.751,4.289c0.492,4.421,1.641,9.705,16.84,12.072c14.606,2.274,18.506-5.611,18.665-5.948
			c0.916-2.141,3.38-3.099,5.521-2.184C109.398-46.482,110.376-43.97,109.46-41.83z"/>
	</g>
	<g id="Heavy-M" transform="matrix(1 0 0 1 2575.48 1126)">
		<path d="M123.796-76.731c-7.14-12.941-24.766-8.59-24.766-8.59c-8.256-11.268-25.77-9.706-25.77-9.706H48.493
			c-21.531-0.446-25.436,9.706-25.436,9.706c-19.077-2.901-24.543,8.59-24.543,8.59C1.861-51.295,7.997-25.748,18.372,0.803
			L22.946,24.9h75.972l4.909-24.097C109.628-8.01,125.916-76.173,123.796-76.731z M79.076,7.693
			c-0.756,0.072-2.528,0.213-4.783,0.213c-2.595,0-5.822-0.206-8.886-0.898v5.278c0,2.281-1.849,4.13-4.13,4.13
			s-4.13-1.849-4.13-4.13v-5.29c-3.08,0.703-6.331,0.911-8.941,0.911c-2.256,0-4.027-0.141-4.783-0.213
			c-2.271-0.216-3.937-2.231-3.721-4.502c0.215-2.272,2.228-3.942,4.501-3.721c3.756,0.351,9.616,0.191,12.944-1.032v-8.102
			c-3.08,0.703-6.331,0.911-8.941,0.911c-2.256,0-4.027-0.14-4.783-0.213c-2.271-0.216-3.937-2.231-3.721-4.502
			c0.215-2.271,2.228-3.936,4.501-3.721c3.753,0.348,9.615,0.19,12.944-1.033v-4.532c0-2.281,1.849-4.13,4.13-4.13
			s4.13,1.849,4.13,4.13v4.553c3.34,1.206,9.159,1.36,12.891,1.012c2.286-0.206,4.284,1.456,4.498,3.725
			c0.214,2.27-1.45,4.283-3.72,4.499c-0.756,0.072-2.528,0.213-4.783,0.213c-2.595,0-5.823-0.206-8.886-0.898v8.104
			c3.362,1.203,9.27,1.361,12.888,1.018c2.266-0.219,4.287,1.45,4.502,3.721C83.013,5.462,81.347,7.477,79.076,7.693z
			 M107.732-41.693c-0.218,0.508-4.991,11.184-20.842,11.184c-1.926,0-4.014-0.158-6.279-0.51
			c-10.346-1.611-16.106-4.756-19.362-8.638c-3.255,3.882-9.016,7.028-19.362,8.638c-2.263,0.353-4.354,0.51-6.279,0.51
			c-15.854,0-20.624-10.676-20.841-11.184c-0.898-2.097,0.075-4.525,2.172-5.422c2.08-0.886,4.481,0.058,5.398,2.116
			c0.211,0.441,4.079,8.024,18.28,5.818c14.888-2.318,16.014-7.494,16.495-11.824c-0.05-2.127,1.52-3.975,3.674-4.203
			c0.021-0.002,0.042,0.002,0.063,0c0.126-0.013,0.258-0.002,0.387-0.003c0.138,0,0.279-0.011,0.414,0.003
			c0.021,0.002,0.04-0.002,0.061,0c2.153,0.227,3.723,2.075,3.674,4.202c0.482,4.33,1.607,9.507,16.496,11.826
			c14.308,2.227,18.129-5.497,18.284-5.827c0.897-2.097,3.311-3.036,5.408-2.14C107.671-46.25,108.629-43.789,107.732-41.693z"/>
	</g>
	<g id="Bold-M" transform="matrix(1 0 0 1 2279.69 1126)">
		<path d="M121.513-75.863c-6.991-12.671-24.25-8.411-24.25-8.411C89.18-95.307,72.03-93.778,72.03-93.778h-24.25
			c-21.082-0.437-24.906,9.503-24.906,9.503c-18.679-2.84-24.032,8.411-24.032,8.411C2.119-50.958,8.127-25.943,18.286,0.055
			l4.478,23.595h74.389l4.806-23.595C107.64-8.574,123.589-75.317,121.513-75.863z M77.725,6.802
			c-0.74,0.071-2.476,0.209-4.684,0.209c-2.54,0-5.701-0.201-8.701-0.879v5.168c0,2.234-1.811,4.044-4.044,4.044
			c-2.234,0-4.044-1.811-4.044-4.044v-5.18c-3.016,0.688-6.199,0.892-8.754,0.892c-2.209,0-3.943-0.138-4.684-0.209
			C40.59,6.59,38.958,4.617,39.17,2.393c0.211-2.224,2.182-3.86,4.407-3.644c3.678,0.343,9.416,0.187,12.675-1.011v-7.933
			c-3.016,0.688-6.199,0.892-8.755,0.892c-2.209,0-3.943-0.137-4.683-0.208c-2.224-0.211-3.855-2.185-3.644-4.409
			c0.211-2.224,2.182-3.854,4.407-3.644c3.675,0.341,9.415,0.187,12.675-1.012v-4.437c0-2.234,1.811-4.044,4.044-4.044
			c2.234,0,4.044,1.811,4.044,4.044v4.458c3.27,1.181,8.968,1.332,12.623,0.991c2.239-0.202,4.195,1.426,4.404,3.647
			c0.209,2.223-1.42,4.194-3.642,4.405c-0.74,0.071-2.476,0.208-4.683,0.208c-2.541,0-5.701-0.201-8.701-0.879v7.935
			c3.292,1.178,9.077,1.333,12.619,0.996c2.219-0.214,4.197,1.419,4.409,3.644C81.58,4.617,79.948,6.59,77.725,6.802z
			 M105.783-41.555c-0.213,0.498-4.887,10.951-20.408,10.951c-1.886,0-3.931-0.154-6.148-0.5
			c-10.13-1.577-15.771-4.657-18.958-8.459c-3.187,3.802-8.828,6.881-18.959,8.459c-2.216,0.345-4.264,0.5-6.148,0.5
			c-15.523,0-20.194-10.453-20.407-10.951c-0.879-2.053,0.073-4.431,2.127-5.309c2.036-0.868,4.388,0.057,5.286,2.072
			c0.206,0.431,3.994,7.857,17.899,5.697c14.578-2.27,15.681-7.338,16.152-11.578c-0.049-2.083,1.488-3.893,3.598-4.116
			c0.021-0.002,0.041,0.002,0.062,0c0.124-0.013,0.252-0.002,0.379-0.003c0.136,0,0.273-0.011,0.406,0.003
			c0.02,0.002,0.039-0.002,0.06,0c2.108,0.223,3.646,2.032,3.598,4.114c0.472,4.24,1.574,9.309,16.152,11.58
			c14.01,2.181,17.751-5.382,17.903-5.706c0.878-2.053,3.242-2.972,5.296-2.095C105.724-46.018,106.662-43.608,105.783-41.555z"/>
	</g>
	<g id="Semibold-M" transform="matrix(1 0 0 1 1983.62 1126)">
		<path d="M119.61-74.996c-6.842-12.402-23.734-8.232-23.734-8.232c-7.912-10.798-24.697-9.301-24.697-9.301H47.445
			c-20.634-0.428-24.376,9.301-24.376,9.301c-18.282-2.78-23.52,8.232-23.52,8.232C2.756-50.62,8.636-26.138,18.579-0.693
			L22.962,22.4h72.807l4.704-23.093C106.032-9.139,121.641-74.462,119.61-74.996z M76.753,5.91
			c-0.725,0.069-2.423,0.204-4.584,0.204c-2.486,0-5.58-0.197-8.515-0.861v5.058c0,2.186-1.772,3.958-3.958,3.958
			c-2.186,0-3.958-1.772-3.958-3.958v-5.07c-2.951,0.674-6.067,0.873-8.568,0.873c-2.162,0-3.859-0.135-4.584-0.204
			c-2.176-0.207-3.773-2.138-3.566-4.315c0.206-2.177,2.135-3.778,4.314-3.566c3.6,0.336,9.215,0.183,12.405-0.989v-7.764
			c-2.952,0.674-6.067,0.873-8.569,0.873c-2.162,0-3.859-0.134-4.584-0.204c-2.176-0.207-3.773-2.138-3.566-4.315
			c0.206-2.176,2.135-3.772,4.314-3.566c3.597,0.333,9.215,0.183,12.405-0.99v-4.343c0-2.186,1.772-3.958,3.958-3.958
			c2.186,0,3.958,1.772,3.958,3.958v4.363c3.201,1.156,8.777,1.304,12.354,0.969c2.191-0.198,4.106,1.395,4.31,3.57
			c0.205,2.176-1.39,4.105-3.565,4.312c-0.725,0.069-2.423,0.204-4.584,0.204c-2.487,0-5.58-0.197-8.516-0.861v7.766
			c3.222,1.152,8.884,1.304,12.351,0.975c2.171-0.21,4.108,1.389,4.315,3.566C80.526,3.772,78.929,5.703,76.753,5.91z
			 M104.215-41.418C104.006-40.931,99.432-30.7,84.241-30.7c-1.846,0-3.847-0.151-6.017-0.489
			c-9.915-1.544-15.435-4.558-18.555-8.279c-3.119,3.721-8.64,6.735-18.556,8.279c-2.169,0.338-4.173,0.489-6.017,0.489
			c-15.193,0-19.764-10.231-19.973-10.718c-0.86-2.01,0.072-4.336,2.082-5.196c1.993-0.849,4.295,0.056,5.173,2.028
			c0.202,0.422,3.909,7.69,17.518,5.576c14.268-2.222,15.347-7.182,15.808-11.332c-0.048-2.039,1.457-3.81,3.521-4.028
			c0.021-0.002,0.04,0.002,0.06,0c0.121-0.012,0.247-0.002,0.371-0.003c0.133,0,0.267-0.011,0.397,0.003
			c0.02,0.002,0.039-0.002,0.058,0c2.063,0.218,3.568,1.989,3.521,4.027c0.462,4.15,1.54,9.111,15.809,11.333
			c13.712,2.135,17.373-5.268,17.522-5.584c0.86-2.01,3.173-2.909,5.183-2.051C104.157-45.785,105.075-43.427,104.215-41.418z"/>
	</g>
	<g id="Medium-M" transform="matrix(1 0 0 1 1687.4 1126)">
		<path d="M117.867-74.129c-6.694-12.132-23.218-8.053-23.218-8.053c-7.74-10.563-24.16-9.099-24.16-9.099H47.271
			c-20.185-0.418-23.846,9.099-23.846,9.099C5.541-84.901,0.416-74.129,0.416-74.129c3.138,23.846,8.89,47.796,18.616,72.688
			L23.32,21.15h71.224l4.602-22.591C104.584-9.703,119.854-73.606,117.867-74.129z M75.942,5.019c-0.709,0.068-2.37,0.2-4.484,0.2
			c-2.432,0-5.458-0.193-8.33-0.842v4.948c0,2.139-1.734,3.872-3.872,3.872s-3.872-1.734-3.872-3.872v-4.96
			c-2.887,0.659-5.935,0.854-8.382,0.854c-2.115,0-3.776-0.132-4.484-0.2c-2.129-0.202-3.691-2.092-3.489-4.221
			c0.202-2.13,2.089-3.696,4.22-3.489c3.522,0.329,9.015,0.179,12.135-0.968v-7.596c-2.888,0.659-5.935,0.854-8.382,0.854
			c-2.115,0-3.775-0.131-4.484-0.199c-2.129-0.202-3.691-2.092-3.489-4.221c0.202-2.129,2.089-3.69,4.22-3.489
			c3.519,0.326,9.014,0.179,12.135-0.969v-4.249c0-2.139,1.734-3.872,3.872-3.872s3.872,1.734,3.872,3.872v4.268
			c3.131,1.131,8.587,1.275,12.085,0.948c2.143-0.193,4.016,1.365,4.217,3.492c0.2,2.128-1.36,4.016-3.487,4.218
			c-0.709,0.068-2.37,0.199-4.484,0.199c-2.433,0-5.459-0.193-8.331-0.842v7.598c3.152,1.127,8.691,1.276,12.082,0.954
			c2.124-0.205,4.019,1.359,4.221,3.489C79.633,2.927,78.071,4.816,75.942,5.019z M102.807-41.281
			c-0.204,0.477-4.679,10.485-19.539,10.485c-1.806,0-3.764-0.148-5.887-0.478c-9.699-1.51-15.1-4.459-18.152-8.099
			c-3.052,3.64-8.452,6.588-18.152,8.099c-2.122,0.331-4.082,0.478-5.887,0.478c-14.863,0-19.335-10.009-19.539-10.485
			c-0.842-1.966,0.07-4.242,2.037-5.084c1.95-0.831,4.201,0.055,5.061,1.984c0.197,0.413,3.824,7.523,17.137,5.454
			c13.958-2.174,15.013-7.026,15.464-11.085c-0.047-1.994,1.425-3.727,3.445-3.941c0.02-0.002,0.039,0.002,0.059,0
			c0.119-0.012,0.242-0.002,0.363-0.003c0.13,0,0.261-0.01,0.388,0.003c0.019,0.002,0.038-0.002,0.057,0
			c2.019,0.213,3.49,1.945,3.445,3.939c0.452,4.06,1.507,8.913,15.465,11.087c13.414,2.088,16.995-5.153,17.141-5.463
			c0.841-1.966,3.104-2.846,5.07-2.006C102.75-45.553,103.648-43.246,102.807-41.281z"/>
	</g>
	<g id="Regular-M" transform="matrix(1 0 0 1 1391.32 1126)">
		<path d="M115.864-73.262c-6.545-11.863-22.702-7.874-22.702-7.874c-7.568-10.329-23.623-8.897-23.623-8.897H46.836
			c-19.737-0.409-23.316,8.897-23.316,8.897C6.034-83.795,1.023-73.262,1.023-73.262C4.091-49.945,9.715-26.527,19.226-2.189
			L23.418,19.9h69.641l4.5-22.089C102.877-10.268,117.807-72.75,115.864-73.262z M74.87,4.127c-0.693,0.066-2.318,0.195-4.385,0.195
			c-2.378,0-5.337-0.189-8.145-0.823v4.838c0,2.091-1.695,3.786-3.786,3.786c-2.091,0-3.786-1.695-3.786-3.786v-4.85
			c-2.823,0.644-5.803,0.835-8.196,0.835c-2.068,0-3.692-0.129-4.385-0.195C40.106,3.929,38.579,2.082,38.776,0
			c0.197-2.082,2.042-3.614,4.126-3.411c3.443,0.321,8.815,0.175,11.866-0.946v-7.427c-2.823,0.644-5.804,0.835-8.196,0.835
			c-2.068,0-3.691-0.129-4.384-0.195c-2.082-0.198-3.609-2.045-3.411-4.127c0.197-2.082,2.042-3.608,4.126-3.411
			c3.44,0.319,8.814,0.175,11.866-0.947v-4.154c0-2.091,1.695-3.786,3.786-3.786c2.091,0,3.786,1.695,3.786,3.786v4.174
			c3.061,1.105,8.396,1.247,11.817,0.927c2.096-0.189,3.927,1.335,4.123,3.415c0.196,2.081-1.329,3.926-3.41,4.124
			c-0.693,0.066-2.318,0.195-4.384,0.195c-2.378,0-5.337-0.188-8.146-0.823v7.429c3.082,1.102,8.498,1.247,11.814,0.933
			C76.231-3.612,78.084-2.082,78.281,0C78.479,2.082,76.952,3.929,74.87,4.127z M101.138-41.143
			c-0.2,0.466-4.575,10.252-19.105,10.252c-1.765,0-3.68-0.144-5.756-0.468c-9.484-1.477-14.764-4.36-17.748-7.919
			c-2.984,3.559-8.264,6.442-17.749,7.919c-2.075,0.323-3.992,0.468-5.756,0.468c-14.533,0-18.905-9.786-19.105-10.252
			c-0.823-1.922,0.069-4.148,1.991-4.971c1.906-0.812,4.108,0.053,4.948,1.94c0.193,0.404,3.739,7.356,16.756,5.333
			c13.647-2.125,14.68-6.87,15.121-10.839c-0.046-1.95,1.393-3.644,3.368-3.853c0.02-0.002,0.038,0.001,0.058,0
			c0.116-0.012,0.236-0.002,0.355-0.002c0.127,0,0.255-0.01,0.38,0.003c0.019,0.002,0.037-0.002,0.056,0
			c1.974,0.208,3.413,1.902,3.368,3.852c0.442,3.97,1.473,8.715,15.121,10.841c13.116,2.042,16.618-5.039,16.76-5.341
			c0.822-1.922,3.035-2.783,4.958-1.961C101.082-45.321,101.961-43.065,101.138-41.143z"/>
	</g>
	<g id="Light-M" transform="matrix(1 0 0 1 1095.44 1126)">
		<path d="M113.651-72.394c-6.396-11.593-22.186-7.695-22.186-7.695c-7.396-10.094-23.086-8.695-23.086-8.695H46.192
			c-19.288-0.4-22.786,8.695-22.786,8.695C6.317-82.688,1.42-72.394,1.42-72.394C4.418-49.608,9.914-26.722,19.209-2.937
			l4.097,21.587h68.058l4.397-21.587C100.959-10.832,115.55-71.894,113.651-72.394z M73.589,3.236
			c-0.677,0.065-2.265,0.191-4.285,0.191c-2.324,0-5.216-0.184-7.96-0.805V7.35c0,2.044-1.656,3.7-3.7,3.7
			c-2.044,0-3.7-1.656-3.7-3.7V2.61c-2.759,0.63-5.671,0.816-8.009,0.816c-2.021,0-3.608-0.126-4.285-0.191
			c-2.034-0.193-3.527-1.999-3.334-4.033c0.193-2.035,1.996-3.531,4.032-3.334c3.365,0.314,8.614,0.171,11.596-0.925v-7.258
			c-2.759,0.63-5.672,0.816-8.01,0.816c-2.021,0-3.607-0.126-4.285-0.19c-2.034-0.193-3.527-1.999-3.334-4.033
			c0.193-2.034,1.996-3.526,4.032-3.334c3.362,0.312,8.614,0.171,11.596-0.926v-4.06c0-2.044,1.656-3.7,3.7-3.7
			c2.044,0,3.7,1.656,3.7,3.7v4.079c2.992,1.08,8.205,1.219,11.548,0.906c2.048-0.185,3.838,1.304,4.029,3.337
			c0.192,2.034-1.299,3.837-3.332,4.03c-0.677,0.065-2.265,0.19-4.285,0.19c-2.324,0-5.216-0.184-7.961-0.804v7.26
			c3.012,1.077,8.305,1.219,11.545,0.912c2.03-0.196,3.84,1.299,4.033,3.334C77.116,1.237,75.623,3.042,73.589,3.236z M99.26-41.006
			c-0.195,0.455-4.471,10.019-18.671,10.019c-1.725,0-3.596-0.141-5.625-0.457c-9.268-1.443-14.429-4.261-17.345-7.739
			c-2.916,3.478-8.077,6.296-17.345,7.739c-2.028,0.316-3.901,0.457-5.625,0.457c-14.202,0-18.475-9.564-18.67-10.019
			c-0.804-1.878,0.067-4.053,1.946-4.858c1.863-0.794,4.014,0.052,4.836,1.896c0.189,0.395,3.654,7.189,16.376,5.212
			c13.337-2.077,14.346-6.714,14.777-10.593c-0.045-1.906,1.362-3.561,3.292-3.766c0.019-0.002,0.037,0.001,0.056,0
			c0.113-0.012,0.231-0.002,0.347-0.002c0.124,0,0.25-0.01,0.371,0.003c0.018,0.002,0.036-0.002,0.055,0
			c1.929,0.204,3.335,1.859,3.291,3.764c0.432,3.879,1.44,8.517,14.778,10.594c12.818,1.995,16.24-4.924,16.38-5.22
			c0.804-1.878,2.966-2.719,4.845-1.917C99.205-45.089,100.064-42.884,99.26-41.006z"/>
	</g>
	<g id="Thin-M" transform="matrix(1 0 0 1 799.828 1126)">
		<path d="M111.256-71.527c-6.247-11.323-21.67-7.516-21.67-7.516c-7.224-9.859-22.549-8.492-22.549-8.492h-21.67
			c-18.84-0.39-22.256,8.492-22.256,8.492C6.418-81.581,1.635-71.527,1.635-71.527C4.563-49.271,9.932-26.917,19.01-3.685
			L23.012,17.4h66.476l4.295-21.085C98.859-11.396,113.111-71.039,111.256-71.527z M72.126,2.344
			c-0.662,0.063-2.212,0.187-4.186,0.187c-2.27,0-5.094-0.18-7.775-0.786v4.618c0,1.996-1.618,3.614-3.614,3.614
			s-3.614-1.618-3.614-3.614V1.734c-2.695,0.615-5.539,0.797-7.823,0.797c-1.974,0-3.524-0.123-4.186-0.187
			c-1.987-0.189-3.445-1.952-3.256-3.94c0.188-1.988,1.95-3.449,3.938-3.256c3.287,0.307,8.414,0.168,11.326-0.903v-7.089
			c-2.695,0.615-5.54,0.797-7.824,0.797c-1.974,0-3.523-0.123-4.185-0.186c-1.987-0.189-3.445-1.952-3.256-3.94
			c0.188-1.987,1.95-3.444,3.938-3.256c3.284,0.304,8.413,0.167,11.326-0.904v-3.965c0-1.996,1.618-3.614,3.614-3.614
			s3.614,1.618,3.614,3.614v3.984c2.922,1.055,8.014,1.19,11.28,0.885c2.001-0.18,3.749,1.274,3.936,3.259
			c0.187,1.987-1.269,3.748-3.255,3.937c-0.662,0.063-2.212,0.186-4.185,0.186c-2.27,0-5.095-0.18-7.775-0.786v7.091
			c2.942,1.052,8.112,1.191,11.277,0.89c1.983-0.192,3.751,1.268,3.94,3.256C75.57,0.392,74.113,2.155,72.126,2.344z M97.199-40.869
			c-0.19,0.445-4.367,9.786-18.237,9.786c-1.685,0-3.513-0.138-5.494-0.447c-9.053-1.41-14.093-4.162-16.941-7.559
			c-2.848,3.397-7.889,6.149-16.942,7.559c-1.98,0.309-3.81,0.447-5.494,0.447c-13.872,0-18.046-9.341-18.236-9.786
			c-0.785-1.835,0.066-3.959,1.901-4.745c1.82-0.775,3.921,0.051,4.723,1.852c0.184,0.385,3.569,7.021,15.995,5.091
			c13.027-2.029,14.013-6.558,14.433-10.346c-0.044-1.861,1.33-3.478,3.215-3.678c0.019-0.002,0.036,0.001,0.055,0
			c0.111-0.011,0.225-0.002,0.339-0.002c0.121,0,0.244-0.01,0.362,0.003c0.018,0.002,0.035-0.002,0.053,0
			c1.884,0.199,3.258,1.816,3.215,3.677c0.422,3.789,1.406,8.319,14.434,10.348c12.52,1.949,15.862-4.81,15.999-5.099
			c0.785-1.835,2.897-2.656,4.732-1.872C97.146-44.856,97.985-42.703,97.199-40.869z"/>
	</g>
	<g id="Ultralight-M" transform="matrix(1 0 0 1 503.679 1126)">
		<path d="M109.446-70.66c-6.099-11.054-21.154-7.337-21.154-7.337c-7.052-9.624-22.012-8.29-22.012-8.29H45.125
			c-18.391-0.381-21.726,8.29-21.726,8.29C7.104-80.475,2.435-70.66,2.435-70.66c2.859,21.726,8.1,43.548,16.962,66.227
			l3.907,20.583h64.893l4.193-20.583C97.344-11.961,111.256-70.183,109.446-70.66z M71.247,1.452
			c-0.646,0.062-2.16,0.182-4.086,0.182c-2.216,0-4.973-0.176-7.59-0.767v4.508c0,1.949-1.579,3.528-3.528,3.528
			c-1.949,0-3.528-1.579-3.528-3.528V0.857c-2.631,0.6-5.407,0.778-7.637,0.778c-1.927,0-3.44-0.12-4.086-0.182
			c-1.94-0.184-3.363-1.906-3.179-3.846c0.184-1.94,1.903-3.367,3.845-3.179c3.209,0.299,8.214,0.164,11.057-0.882v-6.92
			c-2.631,0.6-5.408,0.778-7.637,0.778c-1.927,0-3.439-0.12-4.085-0.182c-1.94-0.184-3.363-1.906-3.179-3.846
			c0.184-1.94,1.903-3.362,3.845-3.179c3.206,0.297,8.213,0.163,11.057-0.883v-3.871c0-1.949,1.579-3.528,3.528-3.528
			c1.949,0,3.528,1.579,3.528,3.528v3.889c2.853,1.03,7.823,1.162,11.011,0.864c1.953-0.176,3.659,1.244,3.842,3.182
			c0.183,1.939-1.239,3.659-3.177,3.843c-0.646,0.062-2.16,0.182-4.085,0.182c-2.216,0-4.973-0.176-7.59-0.767v6.922
			c2.871,1.027,7.918,1.162,11.008,0.869c1.935-0.187,3.661,1.238,3.846,3.179C74.61-0.453,73.187,1.268,71.247,1.452z
			 M95.724-40.731c-0.186,0.434-4.263,9.553-17.803,9.553c-1.645,0-3.429-0.135-5.363-0.436c-8.837-1.376-13.757-4.062-16.538-7.379
			c-2.78,3.316-7.701,6.003-16.539,7.379c-1.933,0.301-3.719,0.436-5.363,0.436c-13.542,0-17.616-9.119-17.802-9.553
			c-0.767-1.791,0.064-3.865,1.856-4.632c1.776-0.757,3.828,0.05,4.611,1.807c0.18,0.376,3.484,6.854,15.614,4.97
			c12.717-1.98,13.679-6.401,14.09-10.1c-0.043-1.817,1.298-3.396,3.138-3.59c0.018-0.002,0.036,0.001,0.054,0
			c0.108-0.011,0.22-0.002,0.33-0.002c0.118,0,0.238-0.009,0.354,0.002c0.018,0.002,0.034-0.002,0.052,0
			c1.839,0.194,3.18,1.772,3.138,3.589c0.412,3.699,1.373,8.121,14.09,10.101c12.221,1.903,15.485-4.695,15.618-4.977
			c0.766-1.791,2.828-2.593,4.62-1.828C95.672-44.624,96.491-42.522,95.724-40.731z"/>
	</g>
	<g id="Black-S" transform="matrix(1 0 0 1 2884.57 696)">
		<path d="M98.794-68.576c-5.707-10.344-19.796-6.866-19.796-6.866C72.399-84.448,58.399-83.2,58.399-83.2H38.603
			c-17.21-0.357-20.331,7.758-20.331,7.758C3.024-77.761-1.345-68.576-1.345-68.576C1.33-48.245,6.234-27.825,14.527-6.602
			l3.656,19.261h60.726l3.924-19.261C87.469-13.647,100.488-68.13,98.794-68.576z M63.048-1.095c-0.604,0.058-2.021,0.17-3.823,0.17
			c-2.074,0-4.654-0.164-7.102-0.718v4.218c0,1.823-1.478,3.301-3.301,3.301c-1.823,0-3.301-1.478-3.301-3.301v-4.229
			c-2.462,0.562-5.06,0.728-7.146,0.728c-1.803,0-3.219-0.113-3.823-0.17c-1.815-0.172-3.147-1.784-2.974-3.599
			c0.172-1.816,1.781-3.151,3.598-2.974c3.003,0.28,7.686,0.153,10.347-0.825v-6.476c-2.462,0.562-5.061,0.728-7.147,0.728
			c-1.803,0-3.219-0.112-3.823-0.17c-1.815-0.172-3.147-1.784-2.974-3.599c0.172-1.815,1.781-3.146,3.598-2.974
			c3,0.278,7.686,0.152,10.347-0.826v-3.622c0-1.823,1.478-3.301,3.301-3.301c1.823,0,3.301,1.478,3.301,3.301v3.639
			c2.67,0.964,7.321,1.087,10.304,0.809c1.828-0.165,3.424,1.164,3.595,2.978c0.171,1.815-1.159,3.424-2.973,3.596
			c-0.604,0.058-2.021,0.17-3.823,0.17c-2.074,0-4.654-0.164-7.103-0.718v6.478c2.687,0.961,7.41,1.088,10.301,0.813
			c1.811-0.175,3.426,1.159,3.599,2.974C66.195-2.878,64.863-1.267,63.048-1.095z M85.953-40.57
			c-0.174,0.406-3.989,8.94-16.659,8.94c-1.539,0-3.209-0.126-5.019-0.408c-8.27-1.288-12.874-3.802-15.476-6.905
			c-2.602,3.103-7.206,5.617-15.477,6.905c-1.809,0.282-3.481,0.408-5.019,0.408c-12.672,0-16.485-8.533-16.659-8.94
			c-0.718-1.676,0.06-3.617,1.736-4.334c1.662-0.708,3.582,0.047,4.315,1.691c0.168,0.352,3.261,6.414,14.611,4.65
			c11.9-1.853,12.8-5.99,13.185-9.451c-0.04-1.7,1.215-3.178,2.937-3.36c0.017-0.002,0.033,0.001,0.05,0
			c0.101-0.01,0.206-0.001,0.309-0.002c0.111,0,0.223-0.009,0.331,0.002c0.017,0.002,0.032-0.002,0.049,0
			c1.721,0.182,2.976,1.659,2.937,3.359c0.385,3.461,1.285,7.599,13.186,9.453c11.437,1.78,14.49-4.394,14.615-4.658
			c0.717-1.676,2.646-2.426,4.323-1.71C85.905-44.212,86.671-42.246,85.953-40.57z"/>
	</g>
	<g id="Heavy-S" transform="matrix(1 0 0 1 2588.47 696)">
		<path d="M97.234-67.897c-5.59-10.133-19.392-6.726-19.392-6.726c-6.464-8.823-20.178-7.6-20.178-7.6H38.272
			c-16.859-0.349-19.916,7.6-19.916,7.6C3.419-76.894-0.862-67.897-0.862-67.897c2.62,19.916,7.425,39.919,15.548,60.709
			l3.581,18.868h59.486l3.843-18.868C86.14-14.089,98.893-67.46,97.234-67.897z M62.218-1.793c-0.592,0.057-1.98,0.167-3.745,0.167
			c-2.032,0-4.559-0.161-6.957-0.703v4.132c0,1.786-1.448,3.234-3.234,3.234c-1.786,0-3.234-1.448-3.234-3.234v-4.142
			c-2.411,0.55-4.957,0.713-7.001,0.713c-1.766,0-3.153-0.11-3.745-0.167c-1.778-0.169-3.083-1.747-2.914-3.525
			c0.168-1.779,1.745-3.087,3.524-2.914c2.941,0.274,7.529,0.15,10.135-0.808v-6.344c-2.412,0.55-4.957,0.713-7.001,0.713
			c-1.766,0-3.153-0.11-3.745-0.166c-1.778-0.169-3.083-1.747-2.914-3.525c0.168-1.778,1.745-3.082,3.524-2.914
			c2.939,0.272,7.529,0.149,10.135-0.809v-3.548c0-1.786,1.448-3.234,3.234-3.234c1.786,0,3.234,1.448,3.234,3.234v3.565
			c2.615,0.944,7.172,1.065,10.094,0.792c1.79-0.161,3.354,1.14,3.522,2.917c0.167,1.778-1.136,3.354-2.913,3.523
			c-0.592,0.057-1.98,0.166-3.745,0.166c-2.032,0-4.559-0.161-6.958-0.703v6.345c2.632,0.942,7.259,1.066,10.091,0.797
			c1.774-0.171,3.356,1.135,3.525,2.914C65.3-3.54,63.996-1.962,62.218-1.793z M84.655-40.462c-0.17,0.398-3.908,8.757-16.319,8.757
			c-1.508,0-3.143-0.123-4.917-0.4c-8.101-1.261-12.611-3.724-15.16-6.764c-2.549,3.04-7.059,5.503-15.161,6.764
			c-1.772,0.276-3.41,0.4-4.917,0.4c-12.413,0-16.148-8.359-16.319-8.757c-0.703-1.642,0.059-3.543,1.701-4.246
			c1.628-0.694,3.509,0.046,4.227,1.657c0.165,0.345,3.194,6.283,14.313,4.556c11.657-1.815,12.539-5.868,12.916-9.259
			c-0.039-1.666,1.19-3.113,2.877-3.291c0.017-0.002,0.033,0.001,0.049,0c0.099-0.01,0.202-0.001,0.303-0.002
			c0.108,0,0.218-0.009,0.324,0.002c0.016,0.002,0.032-0.002,0.048,0c1.686,0.178,2.915,1.625,2.877,3.29
			c0.377,3.391,1.258,7.444,12.916,9.26c11.203,1.744,14.195-4.304,14.316-4.563c0.702-1.642,2.592-2.377,4.235-1.675
			C84.607-44.03,85.358-42.104,84.655-40.462z"/>
	</g>
	<g id="Bold-S" transform="matrix(1 0 0 1 2292.43 696)">
		<path d="M95.484-67.218c-5.474-9.922-18.988-6.586-18.988-6.586c-6.329-8.639-19.758-7.441-19.758-7.441H37.75
			c-16.507-0.342-19.501,7.441-19.501,7.441C3.623-76.028-0.568-67.218-0.568-67.218C1.998-47.717,6.702-28.13,14.656-7.773
			l3.507,18.475H76.41l3.763-18.475C84.621-14.53,97.109-66.79,95.484-67.218z M61.197-2.491c-0.58,0.055-1.939,0.163-3.667,0.163
			c-1.989,0-4.464-0.158-6.813-0.689V1.03c0,1.749-1.418,3.167-3.167,3.167s-3.167-1.418-3.167-3.167v-4.056
			c-2.361,0.539-4.854,0.698-6.855,0.698c-1.729,0-3.088-0.108-3.667-0.163c-1.741-0.165-3.018-1.711-2.853-3.452
			c0.165-1.742,1.708-3.022,3.451-2.853c2.88,0.269,7.372,0.147,9.924-0.792v-6.212c-2.361,0.539-4.854,0.698-6.855,0.698
			c-1.729,0-3.087-0.108-3.667-0.163c-1.741-0.165-3.018-1.711-2.853-3.452c0.165-1.741,1.708-3.018,3.451-2.853
			c2.877,0.267,7.372,0.146,9.924-0.792v-3.474c0-1.749,1.418-3.167,3.167-3.167s3.167,1.418,3.167,3.167v3.491
			c2.561,0.925,7.022,1.043,9.883,0.776c1.753-0.158,3.285,1.116,3.448,2.856c0.164,1.741-1.112,3.284-2.852,3.449
			c-0.58,0.055-1.939,0.163-3.667,0.163c-1.989,0-4.464-0.158-6.813-0.688v6.213c2.577,0.922,7.108,1.043,9.881,0.78
			c1.737-0.168,3.286,1.111,3.452,2.853C64.215-4.202,62.938-2.656,61.197-2.491z M83.167-40.354
			C83-39.965,79.341-31.78,67.188-31.78c-1.477,0-3.078-0.121-4.814-0.391c-7.932-1.235-12.348-3.646-14.844-6.623
			c-2.496,2.977-6.912,5.388-14.845,6.623c-1.735,0.27-3.339,0.391-4.814,0.391c-12.155,0-15.812-8.185-15.979-8.575
			c-0.688-1.608,0.057-3.469,1.666-4.157c1.594-0.679,3.436,0.045,4.139,1.622c0.162,0.338,3.127,6.152,14.015,4.461
			c11.415-1.777,12.278-5.746,12.647-9.066c-0.039-1.631,1.165-3.048,2.817-3.223c0.016-0.002,0.032,0.001,0.048,0
			c0.097-0.01,0.198-0.001,0.297-0.002c0.106,0,0.214-0.008,0.318,0.002c0.016,0.001,0.031-0.001,0.047,0
			c1.651,0.174,2.854,1.591,2.817,3.221c0.369,3.32,1.232,7.289,12.647,9.067c10.97,1.708,13.899-4.214,14.018-4.468
			c0.688-1.608,2.538-2.327,4.147-1.641C83.12-43.849,83.855-41.962,83.167-40.354z"/>
	</g>
	<g id="Semibold-S" transform="matrix(1 0 0 1 1996.19 696)">
		<path d="M94.033-66.539c-5.358-9.711-18.584-6.446-18.584-6.446c-6.195-8.455-19.337-7.283-19.337-7.283H37.528
			c-16.156-0.335-19.086,7.283-19.086,7.283C4.127-75.161,0.025-66.539,0.025-66.539c2.511,19.086,7.115,38.256,14.901,58.18
			l3.432,18.082h57.008l3.683-18.082C83.402-14.972,95.624-66.12,94.033-66.539z M60.476-3.189c-0.567,0.054-1.897,0.16-3.589,0.16
			c-1.947,0-4.369-0.154-6.668-0.674v3.96c0,1.712-1.388,3.099-3.099,3.099c-1.712,0-3.099-1.388-3.099-3.099v-3.97
			c-2.311,0.527-4.75,0.684-6.709,0.684c-1.693,0-3.022-0.106-3.589-0.16c-1.704-0.162-2.954-1.674-2.792-3.378
			c0.161-1.705,1.672-2.958,3.377-2.792c2.819,0.263,7.216,0.144,9.713-0.775v-6.079c-2.311,0.527-4.751,0.683-6.709,0.683
			c-1.693,0-3.021-0.105-3.589-0.16c-1.704-0.162-2.954-1.674-2.792-3.378c0.161-1.704,1.672-2.954,3.377-2.792
			c2.816,0.261,7.215,0.143,9.713-0.775v-3.401c0-1.712,1.388-3.099,3.099-3.099c1.712,0,3.099,1.388,3.099,3.099v3.416
			c2.506,0.905,6.873,1.021,9.673,0.759c1.716-0.155,3.215,1.093,3.375,2.795c0.16,1.704-1.088,3.214-2.791,3.376
			c-0.567,0.054-1.897,0.16-3.589,0.16c-1.947,0-4.369-0.154-6.668-0.674v6.081c2.523,0.902,6.956,1.021,9.671,0.764
			c1.7-0.164,3.217,1.088,3.378,2.792C63.43-4.863,62.18-3.351,60.476-3.189z M81.979-40.247c-0.163,0.381-3.745,8.392-15.639,8.392
			c-1.445,0-3.012-0.118-4.712-0.383c-7.763-1.209-12.086-3.569-14.529-6.482c-2.443,2.913-6.765,5.273-14.529,6.482
			c-1.698,0.265-3.267,0.383-4.712,0.383c-11.896,0-15.475-8.011-15.639-8.392c-0.674-1.573,0.056-3.395,1.63-4.069
			c1.56-0.665,3.363,0.044,4.051,1.588c0.158,0.331,3.061,6.021,13.717,4.366c11.172-1.74,12.017-5.624,12.378-8.873
			c-0.038-1.596,1.141-2.983,2.757-3.154c0.016-0.002,0.031,0.001,0.047,0c0.095-0.01,0.193-0.001,0.29-0.002
			c0.104,0,0.209-0.008,0.311,0.002c0.015,0.001,0.03-0.001,0.046,0c1.616,0.171,2.794,1.557,2.757,3.153
			c0.362,3.249,1.206,7.134,12.378,8.874c10.736,1.671,13.603-4.125,13.72-4.372c0.673-1.573,2.484-2.278,4.058-1.606
			C81.933-43.667,82.652-41.82,81.979-40.247z"/>
	</g>
	<g id="Medium-S" transform="matrix(1 0 0 1 1699.83 696)">
		<path d="M92.713-65.86c-5.241-9.499-18.18-6.306-18.18-6.306c-6.06-8.271-18.917-7.125-18.917-7.125h-18.18
			c-15.805-0.328-18.671,7.125-18.671,7.125C4.761-74.294,0.749-65.86,0.749-65.86C3.205-47.188,7.709-28.435,15.325-8.945
			l3.357,17.689h55.768l3.603-17.689C82.313-15.414,94.269-65.45,92.713-65.86z M59.885-3.887c-0.555,0.053-1.856,0.157-3.511,0.157
			c-1.905,0-4.274-0.151-6.523-0.659v3.874c0,1.675-1.357,3.032-3.032,3.032c-1.675,0-3.032-1.357-3.032-3.032v-3.883
			c-2.261,0.516-4.647,0.669-6.563,0.669c-1.656,0-2.956-0.103-3.511-0.157c-1.667-0.158-2.89-1.638-2.732-3.305
			c0.158-1.668,1.636-2.894,3.304-2.732c2.757,0.257,7.059,0.141,9.502-0.758v-5.947c-2.261,0.516-4.647,0.669-6.563,0.669
			c-1.656,0-2.956-0.103-3.511-0.156c-1.667-0.158-2.89-1.638-2.732-3.305c0.158-1.667,1.636-2.89,3.304-2.732
			c2.755,0.255,7.058,0.14,9.502-0.759v-3.327c0-1.675,1.357-3.032,3.032-3.032c1.675,0,3.032,1.357,3.032,3.032v3.342
			c2.452,0.885,6.723,0.999,9.463,0.743c1.678-0.151,3.145,1.069,3.302,2.734c0.157,1.667-1.065,3.144-2.731,3.303
			c-0.555,0.053-1.856,0.156-3.511,0.156c-1.905,0-4.274-0.151-6.523-0.659v5.949c2.468,0.883,6.805,0.999,9.461,0.747
			c1.663-0.161,3.147,1.064,3.305,2.732C62.775-5.525,61.552-4.046,59.885-3.887z M80.921-40.139
			c-0.16,0.373-3.664,8.21-15.299,8.21c-1.414,0-2.947-0.116-4.609-0.375c-7.595-1.183-11.823-3.491-14.213-6.341
			c-2.389,2.85-6.618,5.159-14.213,6.341c-1.661,0.259-3.196,0.375-4.609,0.375c-11.638,0-15.139-7.837-15.299-8.21
			c-0.659-1.539,0.055-3.321,1.595-3.98c1.527-0.65,3.29,0.043,3.963,1.553c0.155,0.323,2.994,5.89,13.418,4.271
			c10.929-1.702,11.756-5.501,12.109-8.68c-0.037-1.562,1.116-2.918,2.697-3.086c0.016-0.002,0.031,0.001,0.046,0
			c0.093-0.01,0.189-0.001,0.284-0.002c0.102,0,0.205-0.008,0.304,0.002c0.015,0.001,0.03-0.001,0.045,0
			c1.581,0.167,2.733,1.523,2.697,3.084c0.354,3.179,1.18,6.979,12.109,8.681c10.503,1.635,13.307-4.035,13.422-4.277
			c0.658-1.539,2.43-2.228,3.97-1.571C80.876-43.485,81.579-41.679,80.921-40.139z"/>
	</g>
	<g id="Regular-S" transform="matrix(1 0 0 1 1403.58 696)">
		<path d="M91.163-65.18c-5.125-9.288-17.776-6.165-17.776-6.165c-5.925-8.087-18.497-6.966-18.497-6.966H37.114
			c-15.454-0.32-18.256,6.966-18.256,6.966C5.165-73.428,1.242-65.18,1.242-65.18C3.644-46.924,8.048-28.588,15.495-9.53
			l3.283,17.295h54.529L76.83-9.53C80.993-15.856,92.684-64.78,91.163-65.18z M59.064-4.585c-0.543,0.052-1.815,0.153-3.433,0.153
			c-1.862,0-4.179-0.148-6.378-0.645v3.788c0,1.637-1.327,2.965-2.965,2.965s-2.965-1.327-2.965-2.965v-3.797
			c-2.21,0.504-4.544,0.654-6.417,0.654c-1.619,0-2.891-0.101-3.433-0.153c-1.63-0.155-2.826-1.602-2.671-3.232
			c0.154-1.63,1.599-2.829,3.231-2.671c2.696,0.252,6.902,0.137,9.291-0.741v-5.815c-2.211,0.504-4.544,0.654-6.418,0.654
			c-1.619,0-2.89-0.101-3.433-0.153c-1.63-0.155-2.826-1.602-2.671-3.232c0.154-1.63,1.599-2.825,3.231-2.671
			c2.694,0.25,6.901,0.137,9.291-0.742v-3.253c0-1.637,1.327-2.965,2.965-2.965s2.965,1.327,2.965,2.965v3.268
			c2.397,0.866,6.574,0.976,9.253,0.726c1.641-0.148,3.075,1.045,3.228,2.674c0.153,1.63-1.041,3.074-2.67,3.229
			c-0.543,0.052-1.815,0.153-3.433,0.153c-1.862,0-4.179-0.148-6.378-0.645v5.817c2.413,0.863,6.654,0.977,9.25,0.73
			c1.626-0.157,3.077,1.04,3.232,2.671C61.89-6.187,60.695-4.74,59.064-4.585z M79.632-40.032
			c-0.156,0.365-3.582,8.027-14.959,8.027c-1.382,0-2.881-0.113-4.507-0.366c-7.426-1.156-11.56-3.414-13.897-6.2
			c-2.336,2.787-6.471,5.044-13.897,6.2c-1.625,0.253-3.125,0.366-4.507,0.366c-11.379,0-14.803-7.663-14.959-8.027
			c-0.644-1.505,0.054-3.248,1.559-3.892c1.493-0.636,3.216,0.042,3.874,1.519c0.151,0.316,2.928,5.76,13.12,4.176
			c10.686-1.664,11.494-5.379,11.84-8.487c-0.036-1.527,1.091-2.853,2.637-3.017c0.015-0.002,0.03,0.001,0.045,0
			c0.091-0.009,0.185-0.001,0.278-0.002c0.099,0,0.2-0.008,0.297,0.002c0.015,0.001,0.029-0.001,0.044,0
			c1.545,0.163,2.672,1.489,2.637,3.016c0.346,3.108,1.153,6.824,11.84,8.488c10.27,1.599,13.012-3.945,13.123-4.182
			c0.644-1.505,2.376-2.179,3.882-1.536C79.589-43.303,80.276-41.537,79.632-40.032z"/>
	</g>
	<g id="Light-S" transform="matrix(1 0 0 1 1107.6 696)">
		<path d="M89.332-64.501c-5.008-9.077-17.372-6.025-17.372-6.025c-5.791-7.904-18.076-6.808-18.076-6.808H36.512
			c-15.103-0.313-17.841,6.808-17.841,6.808C5.29-72.561,1.455-64.501,1.455-64.501C3.803-46.66,8.107-28.74,15.384-10.116
			l3.208,16.902h53.29l3.443-16.902C79.394-16.298,90.819-64.11,89.332-64.501z M57.964-5.283c-0.53,0.051-1.774,0.15-3.355,0.15
			c-1.82,0-4.084-0.144-6.233-0.63v3.702c0,1.6-1.297,2.897-2.897,2.897s-2.897-1.297-2.897-2.897v-3.711
			c-2.16,0.493-4.441,0.639-6.271,0.639c-1.582,0-2.825-0.099-3.355-0.15c-1.593-0.151-2.762-1.565-2.61-3.158
			c0.151-1.593,1.563-2.765,3.157-2.61c2.635,0.246,6.745,0.134,9.08-0.724v-5.683c-2.16,0.493-4.441,0.639-6.272,0.639
			c-1.582,0-2.824-0.098-3.355-0.149c-1.593-0.151-2.762-1.565-2.61-3.158c0.151-1.593,1.563-2.761,3.157-2.61
			c2.633,0.244,6.744,0.134,9.08-0.725v-3.179c0-1.6,1.297-2.897,2.897-2.897s2.897,1.297,2.897,2.897v3.194
			c2.343,0.846,6.424,0.954,9.042,0.71c1.604-0.145,3.005,1.021,3.155,2.613c0.15,1.593-1.017,3.005-2.609,3.156
			c-0.53,0.051-1.774,0.149-3.355,0.149c-1.82,0-4.084-0.144-6.233-0.63v5.684c2.358,0.844,6.503,0.955,9.04,0.714
			c1.589-0.154,3.007,1.017,3.158,2.61C60.725-6.848,59.557-5.435,57.964-5.283z M78.064-39.924
			c-0.153,0.357-3.501,7.845-14.619,7.845c-1.351,0-2.816-0.11-4.404-0.358c-7.257-1.13-11.298-3.336-13.581-6.059
			c-2.283,2.723-6.324,4.929-13.581,6.059c-1.588,0.247-3.054,0.358-4.404,0.358c-11.12,0-14.466-7.488-14.619-7.845
			c-0.63-1.471,0.053-3.174,1.524-3.803c1.459-0.622,3.143,0.041,3.786,1.484c0.148,0.309,2.861,5.629,12.822,4.081
			c10.443-1.626,11.233-5.257,11.57-8.294c-0.035-1.492,1.066-2.789,2.577-2.948c0.015-0.002,0.029,0.001,0.044,0
			c0.089-0.009,0.181-0.001,0.271-0.002c0.097,0,0.195-0.008,0.291,0.002c0.014,0.001,0.028-0.001,0.043,0
			c1.51,0.159,2.612,1.456,2.577,2.947c0.338,3.038,1.127,6.669,11.571,8.295c10.036,1.562,12.716-3.856,12.825-4.087
			c0.629-1.471,2.322-2.129,3.794-1.501C78.021-43.121,78.694-41.395,78.064-39.924z"/>
	</g>
	<g id="Thin-S" transform="matrix(1 0 0 1 811.863 696)">
		<path d="M87.345-63.822c-4.892-8.866-16.968-5.885-16.968-5.885c-5.656-7.72-17.656-6.65-17.656-6.65H35.753
			c-14.751-0.306-17.427,6.65-17.427,6.65c-13.07-1.987-16.815,5.885-16.815,5.885c2.293,17.427,6.497,34.93,13.605,53.12
			L18.25,5.807h52.05l3.363-16.509C77.638-16.74,88.797-63.44,87.345-63.822z M56.706-5.981c-0.518,0.05-1.732,0.146-3.277,0.146
			c-1.778,0-3.989-0.141-6.088-0.615v3.616c0,1.563-1.267,2.83-2.83,2.83s-2.83-1.267-2.83-2.83v-3.625
			c-2.11,0.482-4.337,0.624-6.125,0.624c-1.545,0-2.759-0.097-3.277-0.146c-1.556-0.148-2.697-1.529-2.55-3.085
			c0.147-1.556,1.527-2.701,3.084-2.55c2.574,0.24,6.588,0.131,8.868-0.707v-5.551c-2.11,0.482-4.338,0.624-6.126,0.624
			c-1.545,0-2.759-0.096-3.277-0.146c-1.556-0.148-2.697-1.529-2.55-3.085c0.147-1.556,1.527-2.697,3.084-2.55
			c2.571,0.238,6.588,0.131,8.868-0.708v-3.105c0-1.563,1.267-2.83,2.83-2.83s2.83,1.267,2.83,2.83v3.119
			c2.288,0.826,6.275,0.932,8.832,0.693c1.566-0.141,2.935,0.998,3.082,2.552c0.147,1.556-0.994,2.935-2.549,3.082
			c-0.518,0.05-1.732,0.146-3.277,0.146c-1.778,0-3.989-0.141-6.088-0.615v5.552c2.303,0.824,6.351,0.932,8.83,0.697
			c1.552-0.15,2.937,0.993,3.085,2.55C59.403-7.51,58.262-6.129,56.706-5.981z M76.339-39.817
			c-0.149,0.348-3.419,7.663-14.279,7.663c-1.319,0-2.75-0.108-4.302-0.35c-7.088-1.104-11.035-3.258-13.265-5.918
			c-2.23,2.66-6.177,4.815-13.266,5.918c-1.551,0.242-2.983,0.35-4.302,0.35c-10.862,0-14.13-7.314-14.279-7.663
			c-0.615-1.437,0.051-3.1,1.488-3.715c1.425-0.607,3.07,0.04,3.698,1.45c0.144,0.302,2.795,5.498,12.524,3.986
			c10.2-1.588,10.972-5.135,11.301-8.101c-0.035-1.457,1.041-2.724,2.517-2.88c0.015-0.002,0.029,0.001,0.043,0
			c0.087-0.009,0.177-0.001,0.265-0.002c0.095,0,0.191-0.008,0.284,0.002c0.014,0.001,0.028-0.001,0.042,0
			c1.475,0.156,2.551,1.422,2.517,2.879c0.33,2.967,1.101,6.514,11.302,8.102c9.803,1.526,12.42-3.766,12.527-3.992
			c0.615-1.437,2.268-2.08,3.705-1.466C76.297-42.939,76.954-41.253,76.339-39.817z"/>
	</g>
	<g id="Ultralight-S" transform="matrix(1 0 0 1 515.649 696)">
		<path d="M85.883-63.143c-4.775-8.655-16.564-5.745-16.564-5.745c-5.521-7.536-17.236-6.491-17.236-6.491H35.519
			c-14.4-0.298-17.012,6.491-17.012,6.491c-12.759-1.94-16.415,5.745-16.415,5.745c2.238,17.012,6.342,34.098,13.281,51.856
			l3.059,16.116h50.811l3.283-16.116C76.407-17.182,87.3-62.77,85.883-63.143z M55.973-6.679c-0.506,0.048-1.691,0.143-3.199,0.143
			c-1.735,0-3.894-0.138-5.943-0.601v3.53c0,1.526-1.237,2.762-2.762,2.762c-1.526,0-2.762-1.237-2.762-2.762v-3.538
			c-2.06,0.47-4.234,0.609-5.98,0.609c-1.509,0-2.693-0.094-3.199-0.143c-1.519-0.144-2.633-1.492-2.489-3.011
			c0.144-1.519,1.49-2.637,3.01-2.489c2.512,0.234,6.431,0.128,8.657-0.691v-5.419c-2.06,0.47-4.234,0.609-5.98,0.609
			c-1.509,0-2.693-0.094-3.199-0.142c-1.519-0.144-2.633-1.492-2.489-3.011c0.144-1.519,1.49-2.633,3.01-2.489
			c2.51,0.233,6.431,0.127,8.657-0.691v-3.031c0-1.526,1.237-2.762,2.762-2.762c1.526,0,2.762,1.237,2.762,2.762v3.045
			c2.234,0.807,6.126,0.91,8.622,0.677c1.529-0.138,2.865,0.974,3.008,2.491c0.143,1.518-0.97,2.865-2.488,3.009
			c-0.506,0.048-1.691,0.142-3.199,0.142c-1.735,0-3.894-0.137-5.943-0.601v5.42c2.248,0.804,6.2,0.91,8.62,0.681
			c1.515-0.146,2.867,0.969,3.011,2.489C58.606-8.172,57.492-6.824,55.973-6.679z M75.139-39.709
			c-0.146,0.34-3.338,7.48-13.939,7.48c-1.288,0-2.685-0.105-4.2-0.341c-6.919-1.077-10.772-3.181-12.949-5.778
			c-2.177,2.597-6.03,4.7-12.95,5.778c-1.514,0.236-2.912,0.341-4.2,0.341c-10.603,0-13.793-7.14-13.939-7.48
			c-0.6-1.402,0.05-3.026,1.453-3.627c1.391-0.593,2.997,0.039,3.61,1.415c0.141,0.295,2.728,5.367,12.226,3.891
			c9.957-1.551,10.711-5.012,11.032-7.908c-0.034-1.423,1.017-2.659,2.457-2.811c0.014-0.001,0.028,0.001,0.042,0
			c0.085-0.009,0.172-0.001,0.259-0.002c0.093,0,0.186-0.007,0.277,0.002c0.014,0.001,0.027-0.001,0.041,0
			c1.44,0.152,2.49,1.388,2.457,2.81c0.322,2.896,1.075,6.359,11.033,7.909c9.569,1.49,12.125-3.676,12.229-3.897
			c0.6-1.402,2.214-2.03,3.617-1.431C75.098-42.757,75.739-41.112,75.139-39.709z"/>
	</g>
</g>
</svg>
