<?xml version="1.0" encoding="utf-8"?>
<!-- Generator: Adobe Illustrator 24.1.1, SVG Export Plug-In . SVG Version: 6.00 Build 0)  -->
<svg version="1.1" id="Layer_1" xmlns="http://www.w3.org/2000/svg" xmlns:xlink="http://www.w3.org/1999/xlink" x="0px" y="0px"
	 viewBox="0 0 3300 2200" style="enable-background:new 0 0 3300 2200;" xml:space="preserve">
<style type="text/css">
	.st0{fill:#FFFFFF;}
	.st1{fill:none;stroke:#000000;stroke-width:0.5;}
	.st2{font-family:'Arial-BoldMT';}
	.st3{font-size:13px;}
	.st4{font-family:'ArialMT';}
	.st5{fill:none;stroke:#00AEEF;stroke-width:0.5;}
	.st6{fill:#27AAE1;}
	.st7{fill:none;stroke:#27AAE1;stroke-width:0.5;}
	.st8{fill-rule:evenodd;clip-rule:evenodd;}
</style>
<g id="Notes">
	<rect id="artboard" class="st0" width="3300" height="2200"/>
	<line class="st1" x1="263" y1="292" x2="3036" y2="292"/>
	<text transform="matrix(1 0 0 1 263 322)" class="st2 st3">Weight/Scale Variations</text>
	<text transform="matrix(1 0 0 1 534.0632 322)" class="st4 st3">Ultralight</text>
	<text transform="matrix(1 0 0 1 843.7776 322)" class="st4 st3">Thin</text>
	<text transform="matrix(1 0 0 1 1139.035 322)" class="st4 st3">Light</text>
	<text transform="matrix(1 0 0 1 1427.0773 322)" class="st4 st3">Regular</text>
	<text transform="matrix(1 0 0 1 1723.4419 322)" class="st4 st3">Medium</text>
	<text transform="matrix(1 0 0 1 2016.1719 322)" class="st4 st3">Semibold</text>
	<text transform="matrix(1 0 0 1 2326.9705 322)" class="st4 st3">Bold</text>
	<text transform="matrix(1 0 0 1 2618.2659 322)" class="st4 st3">Heavy</text>
	<text transform="matrix(1 0 0 1 2917.5054 322)" class="st4 st3">Black</text>
	<line class="st1" x1="263" y1="1903" x2="3036" y2="1903"/>
	<g transform="matrix(1 0 0 1 263 1933)">
		<path d="M9.2,0.8c4.3,0,7.9-3.6,7.9-7.9S13.5-15,9.2-15s-7.9,3.6-7.9,7.9C1.4-2.7,5,0.8,9.2,0.8z M9.2-0.7C5.7-0.7,2.9-3.5,2.9-7
			c0-3.6,2.8-6.4,6.4-6.4s6.4,2.8,6.4,6.4C15.6-3.5,12.8-0.7,9.2-0.7z M5.7-7.1c0,0.4,0.3,0.7,0.8,0.7h2.1v2.1
			c0,0.4,0.3,0.7,0.7,0.7S10-3.9,10-4.3v-2.1h2.1c0.4,0,0.7-0.3,0.7-0.7c0-0.4-0.3-0.7-0.7-0.7H10v-2.1c0-0.4-0.3-0.8-0.7-0.8
			s-0.7,0.3-0.7,0.8v2.1H6.4C6-7.8,5.7-7.5,5.7-7.1z"/>
	</g>
	<g transform="matrix(1 0 0 1 281.867 1933)">
		<path d="M11.7,2.9c5.4,0,10-4.5,10-10c0-5.4-4.5-10-10-10c-5.4,0-10,4.5-10,10C1.7-1.6,6.3,2.9,11.7,2.9z M11.7,1.3
			C7.1,1.3,3.4-2.4,3.4-7s3.7-8.3,8.3-8.3S20-11.7,20-7.1C20-2.4,16.3,1.3,11.7,1.3z M7.2-7.1c0,0.5,0.3,0.8,0.8,0.8h2.9v2.9
			c0,0.5,0.3,0.8,0.8,0.8s0.8-0.3,0.8-0.8v-2.9h2.9c0.5,0,0.8-0.3,0.8-0.8s-0.3-0.8-0.8-0.8h-2.9v-2.9c0-0.5-0.3-0.8-0.8-0.8
			s-0.8,0.3-0.8,0.8v2.9H8C7.5-7.9,7.2-7.5,7.2-7.1z"/>
	</g>
	<g transform="matrix(1 0 0 1 305.646 1933)">
		<path d="M15,5.7c7,0,12.7-5.8,12.7-12.7c0-7-5.8-12.7-12.7-12.7C8-19.8,2.3-14,2.3-7.1C2.3-0.1,8,5.7,15,5.7z M15,3.8
			C8.9,3.8,4.1-1,4.1-7S8.9-17.9,15-17.9c6,0,10.9,4.9,10.9,10.9S21,3.8,15,3.8z M9.2-7.1c0,0.5,0.4,0.9,0.9,0.9H14v4
			c0,0.5,0.4,0.9,0.9,0.9s0.9-0.4,0.9-0.9v-4h4c0.5,0,0.9-0.4,0.9-0.9S20.3-8,19.8-8h-4v-3.9c0-0.5-0.4-0.9-0.9-0.9S14-12.4,14-11.9
			V-8h-3.9C9.6-8,9.2-7.6,9.2-7.1z"/>
	</g>
	<text transform="matrix(1 0 0 1 263 1953)" class="st2 st3">Design Variations</text>
	<text transform="matrix(1 0 0 1 263 1971)" class="st4 st3">Symbols are supported in up to nine weights and three scales.</text>
	<text transform="matrix(1 0 0 1 263 1989)" class="st4 st3">For optimal layout with text and other symbols, vertically align</text>
	<text transform="matrix(1 0 0 1 263 2007)" class="st4 st3">symbols with the adjacent text.</text>
	<line class="st5" x1="776" y1="1919" x2="776" y2="1933"/>
	<g transform="matrix(1 0 0 1 776 1933)">
		<path d="M3.3,0.2c0.5,0,0.8-0.2,1-0.7L5.5-4h5.8l1.3,3.4C12.7,0,13,0.2,13.5,0.2s0.9-0.3,0.9-0.8c0-0.2,0-0.3-0.1-0.5L9.7-13.4
			C9.4-14,9-14.3,8.4-14.3s-1,0.3-1.2,0.9L2.6-1.2C2.5-1,2.5-0.8,2.5-0.6C2.5-0.1,2.8,0.2,3.3,0.2z M6-5.5l2.4-6.6l0,0l2.4,6.6
			C10.8-5.5,6-5.5,6-5.5z"/>
	</g>
	<line class="st5" x1="793.2" y1="1919" x2="793.2" y2="1933"/>
	<text transform="matrix(1 0 0 1 776 1953)" class="st2 st3">Margins</text>
	<text transform="matrix(1 0 0 1 776 1971)" class="st4 st3">Leading and trailing margins on the left and right side of each symbol</text>
	<text transform="matrix(1 0 0 1 776 1989)" class="st4 st3">can be adjusted by modifying the x-location of the margin guidelines.</text>
	<text transform="matrix(1 0 0 1 776 2007)" class="st4 st3">Modifications are automatically applied proportionally to all</text>
	<text transform="matrix(1 0 0 1 776 2025)" class="st4 st3">scales and weights.</text>
	<g transform="matrix(1 0 0 1 1289 1933)">
		<path d="M2.8,1.9l1.7,1.7c0.9,0.9,1.8,0.8,2.8-0.2L18-8.4l-1-1L6.4,2.3C6,2.7,5.7,2.8,5.2,2.3L4.1,1.1C3.6,0.7,3.7,0.3,4.1,0
			l11.5-10.8l-1-1L3-0.9C2.1,0,2,1,2.8,1.9z M9.3-16.3c-0.4,0.4-0.4,1-0.2,1.4s0.7,0.6,1.3,0.4c1.5-0.3,3-0.4,4.4,0.5l-0.6,1.5
			c-0.3,0.8-0.2,1.4,0.4,2l2.3,2.3c0.5,0.5,0.9,0.5,1.5,0.4l1-0.2l0.7,0.7v0.6c0,0.5,0.1,0.9,0.6,1.4l0.8,0.7c0.5,0.5,1.1,0.5,1.6,0
			L26-7.5C26.5-8,26.4-8.6,26-9l-1-0.9c-0.5-0.5-0.9-0.6-1.3-0.6h-0.6l-0.6-0.6l0.2-1.1c0.1-0.6,0-1-0.6-1.6L19.9-16
			C16.6-19.3,12.1-19.2,9.3-16.3z M10.8-16c2.4-1.8,5.7-1.5,7.9,0.8l2.4,2.4c0.2,0.2,0.3,0.4,0.2,0.8L21-10.5L22.5-9l1-0.1
			c0.3,0,0.3,0,0.5,0.2l0.6,0.6l-2.4,2.4l-0.6-0.6c-0.2-0.2-0.2-0.3-0.2-0.5l0.1-1L20-9.5l-1.5,0.3c-0.3,0.1-0.5,0-0.7-0.2l-2-2
			c-0.3-0.2-0.3-0.4-0.1-0.8l0.9-2.1C15-15.8,13-16.4,11-15.8C10.7-15.7,10.6-15.9,10.8-16z"/>
	</g>
	<text transform="matrix(1 0 0 1 1289 1953)" class="st2 st3">Exporting</text>
	<text transform="matrix(1 0 0 1 1289 1971)" class="st4 st3">Symbols should be outlined when exporting to ensure the</text>
	<text transform="matrix(1 0 0 1 1289 1989)" class="st4 st3">design is preserved when submitting to Xcode.</text>
	<text id="template-version" transform="matrix(1 0 0 1 2952.4204 1933)" class="st4 st3">Template v.4.0</text>
	<text transform="matrix(1 0 0 1 2865.4575 1951)" class="st4 st3">Requires Xcode 14 or greater</text>
	<text id="descriptive-name" transform="matrix(1 0 0 1 2913.8833 1969)" class="st4 st3">Generated from back</text>
	<text transform="matrix(1 0 0 1 2912.4175 1987)" class="st4 st3">Typeset at 100 points</text>
	<text transform="matrix(1 0 0 1 263 726)" class="st4 st3">Small</text>
	<text transform="matrix(1 0 0 1 263 1156)" class="st4 st3">Medium</text>
	<text transform="matrix(1 0 0 1 263 1586)" class="st4 st3">Large</text>
</g>
<g id="Guides">
	<g id="H-reference" transform="matrix(1 0 0 1 339 696)">
		<path class="st6" d="M1,0h2.6l25.7-67.1H30v-3.3h-1.9L1,0z M11.7-24.5H47l-0.8-2.2H12.4L11.7-24.5z M55.1,0h2.6L30.6-70.5h-1.2
			v3.3L55.1,0z"/>
	</g>
	<line id="Baseline-S" class="st7" x1="263" y1="696" x2="3036" y2="696"/>
	<line id="Capline-S" class="st7" x1="263" y1="625.5" x2="3036" y2="625.5"/>
	<g id="H-reference_1_" transform="matrix(1 0 0 1 339 1126)">
		<path class="st6" d="M1,0h2.6l25.7-67.1H30v-3.3h-1.9L1,0z M11.7-24.5H47l-0.8-2.2H12.4L11.7-24.5z M55.1,0h2.6L30.6-70.5h-1.2
			v3.3L55.1,0z"/>
	</g>
	<line id="Baseline-M" class="st7" x1="263" y1="1126" x2="3036" y2="1126"/>
	<line id="Capline-M" class="st7" x1="263" y1="1055.5" x2="3036" y2="1055.5"/>
	<g id="H-reference_2_" transform="matrix(1 0 0 1 339 1556)">
		<path class="st6" d="M1,0h2.6l25.7-67.1H30v-3.3h-1.9L1,0z M11.7-24.5H47l-0.8-2.2H12.4L11.7-24.5z M55.1,0h2.6L30.6-70.5h-1.2
			v3.3L55.1,0z"/>
	</g>
	<line id="Baseline-L" class="st7" x1="263" y1="1556" x2="3036" y2="1556"/>
	<line id="Capline-L" class="st7" x1="263" y1="1485.5" x2="3036" y2="1485.5"/>
	<line id="left-margin-Regular-M" class="st5" x1="1391.3" y1="1030.8" x2="1391.3" y2="1150.1"/>
	<line id="right-margin-Regular-M" class="st5" x1="1508.4" y1="1030.8" x2="1508.4" y2="1150.1"/>
</g>
<g id="Symbols">
	<g id="Black-L" transform="matrix(1 0 0 1 2854.19 1556)">
		<path class="st8" d="M159.736-8.009c-0.445-0.221-10.826-1.783-18.52-6.72c0,0-4.311,20.165-10.904,30.468
			c0,0-4.232,23.247-5.376,29.573H83.812V32.374c0-2.776-2.251-5.028-5.028-5.028c-2.777,0-5.028,2.252-5.028,5.028v12.938H31.584
			c0,0-2.444-25.969-3.584-29.573c0,0-12.551-21.984-10.455-30.468l-19.118,6.72v-67.66c0,0,5.716-17.095,33.158-15.535
			c0,0,6.361-12.946,26.138-10.306v-11.202h41.372v11.202c0,0,16.776-4.203,28.528,10.306c0,0,26.853-2.399,32.113,15.535
			C159.736-75.669,160.181-7.789,159.736-8.009z M52.321-33.184c7.112-2.031,20.283-10.662,19.227-28.785
			c-0.161-2.773-2.555-4.892-5.312-4.727c-2.772,0.161-4.888,2.54-4.727,5.312c0.829,14.23-10.636,18.132-11.979,18.539
			c-2.652,0.774-4.185,3.547-3.424,6.207c0.631,2.209,2.644,3.648,4.832,3.648C51.394-32.989,51.859-33.052,52.321-33.184z
			 M111.385-36.637c0.763-2.67-0.783-5.453-3.453-6.216c-0.523-0.149-12.806-3.831-11.95-18.531
			c0.161-2.772-1.955-5.151-4.727-5.312c-2.764-0.173-5.151,1.954-5.312,4.727c-1.056,18.123,12.115,26.753,19.227,28.785
			c0.462,0.132,0.927,0.195,1.384,0.195C108.742-32.989,110.755-34.428,111.385-36.637z M83.812,4.895v-33.377
			c0-2.777-2.251-5.028-5.028-5.028c-2.777,0-5.028,2.251-5.028,5.028V4.895c0,2.776,2.251,5.028,5.028,5.028
			C81.561,9.923,83.812,7.672,83.812,4.895z"/>
	</g>
	<g id="Heavy-L" transform="matrix(1 0 0 1 2558.42 1556)">
		<path class="st8" d="M157.222-8.533c-0.436-0.217-10.605-1.746-18.142-6.583c0,0-4.223,19.754-10.681,29.847
			c0,0-4.146,22.772-5.266,28.97H82.847V31.026c0-2.72-2.205-4.925-4.925-4.925s-4.925,2.206-4.925,4.925V43.7H31.685
			c0,0-2.394-25.439-3.511-28.97c0,0-12.295-21.535-10.242-29.847L-0.795-8.533v-66.279c0,0,5.599-16.746,32.481-15.218
			c0,0,6.231-12.682,25.605-10.096V-111.1h40.528v10.974c0,0,16.434-4.118,27.945,10.096c0,0,26.305-2.35,31.458,15.218
			C157.222-74.813,157.658-8.318,157.222-8.533z M51.999-33.194c6.967-1.99,19.869-10.445,18.834-28.197
			c-0.158-2.716-2.503-4.792-5.204-4.631c-2.716,0.158-4.789,2.488-4.631,5.204c0.812,13.939-10.419,17.762-11.734,18.161
			c-2.598,0.759-4.099,3.474-3.355,6.08c0.618,2.164,2.59,3.574,4.733,3.574C51.091-33.003,51.547-33.065,51.999-33.194z
			 M109.858-36.577c0.748-2.615-0.767-5.342-3.383-6.089c-0.513-0.146-12.545-3.752-11.706-18.153
			c0.158-2.716-1.915-5.046-4.631-5.204c-2.708-0.17-5.046,1.914-5.204,4.631c-1.034,17.753,11.868,26.207,18.834,28.197
			c0.452,0.129,0.908,0.191,1.356,0.191C107.268-33.003,109.24-34.413,109.858-36.577z M82.847,4.108v-32.696
			c0-2.72-2.205-4.925-4.925-4.925s-4.925,2.205-4.925,4.925V4.108c0,2.72,2.205,4.925,4.925,4.925S82.847,6.827,82.847,4.108z"/>
	</g>
	<g id="Bold-L" transform="matrix(1 0 0 1 2262.89 1556)">
		<path class="st8" d="M154.338-9.058c-0.427-0.212-10.384-1.71-17.764-6.446c0,0-4.135,19.342-10.459,29.225
			c0,0-4.059,22.298-5.156,28.366H81.513v-12.41c0-2.663-2.159-4.823-4.823-4.823c-2.664,0-4.823,2.16-4.823,4.823v12.41h-40.45
			c0,0-2.344-24.909-3.438-28.366c0,0-12.039-21.087-10.029-29.225L-0.387-9.058v-64.898c0,0,5.483-16.398,31.804-14.901
			c0,0,6.101-12.418,25.072-9.885v-10.745h39.683v10.745c0,0,16.092-4.032,27.363,9.885c0,0,25.757-2.301,30.803,14.901
			C154.338-73.956,154.765-8.847,154.338-9.058z M51.307-33.205c6.822-1.948,19.455-10.227,18.442-27.61
			c-0.155-2.66-2.451-4.692-5.095-4.534c-2.659,0.155-4.689,2.436-4.534,5.095c0.795,13.649-10.202,17.392-11.49,17.783
			c-2.544,0.743-4.014,3.402-3.285,5.954c0.605,2.119,2.536,3.499,4.634,3.499C50.419-33.018,50.865-33.078,51.307-33.205z
			 M107.961-36.517c0.732-2.561-0.751-5.231-3.312-5.962c-0.502-0.143-12.284-3.674-11.462-17.775
			c0.155-2.659-1.875-4.941-4.534-5.095c-2.652-0.166-4.941,1.874-5.095,4.534c-1.013,17.383,11.62,25.661,18.442,27.61
			c0.443,0.126,0.889,0.187,1.327,0.187C105.425-33.018,107.356-34.399,107.961-36.517z M81.513,3.32v-32.015
			c0-2.664-2.159-4.823-4.823-4.823c-2.664,0-4.823,2.159-4.823,4.823V3.32c0,2.663,2.159,4.823,4.823,4.823
			C79.354,8.143,81.513,5.983,81.513,3.32z"/>
	</g>
	<g id="Semibold-L" transform="matrix(1 0 0 1 1966.99 1556)">
		<path class="st8" d="M151.924-9.582c-0.418-0.208-10.163-1.674-17.386-6.309c0,0-4.047,18.931-10.236,28.603
			c0,0-3.973,21.823-5.046,27.763H80.648V28.329c0-2.606-2.113-4.72-4.72-4.72c-2.607,0-4.72,2.114-4.72,4.72v12.146h-39.59
			c0,0-2.294-24.379-3.365-27.763c0,0-11.783-20.638-9.815-28.603L0.491-9.582V-73.1c0,0,5.366-16.049,31.128-14.584
			c0,0,5.972-12.154,24.538-9.675v-10.517h38.839v10.517c0,0,15.749-3.946,26.781,9.675c0,0,25.209-2.252,30.147,14.584
			C151.924-73.1,152.342-9.376,151.924-9.582z M51.085-33.216c6.677-1.907,19.041-10.009,18.05-27.023
			c-0.151-2.603-2.399-4.592-4.987-4.438c-2.602,0.151-4.589,2.384-4.438,4.987c0.778,13.358-9.985,17.022-11.245,17.404
			c-2.49,0.727-3.929,3.329-3.215,5.827c0.592,2.074,2.482,3.425,4.536,3.425C50.215-33.032,50.652-33.092,51.085-33.216z
			 M106.534-36.457c0.716-2.506-0.735-5.119-3.242-5.835c-0.491-0.14-12.022-3.596-11.218-17.396
			c0.151-2.602-1.835-4.835-4.438-4.987c-2.595-0.163-4.835,1.835-4.987,4.438c-0.991,17.013,11.373,25.115,18.05,27.023
			c0.433,0.124,0.87,0.183,1.299,0.183C104.052-33.032,105.942-34.384,106.534-36.457z M80.648,2.532v-31.334
			c0-2.607-2.113-4.72-4.72-4.72c-2.607,0-4.72,2.113-4.72,4.72V2.532c0,2.606,2.113,4.72,4.72,4.72
			C78.535,7.252,80.648,5.139,80.648,2.532z"/>
	</g>
	<g id="Medium-L" transform="matrix(1 0 0 1 1670.9 1556)">
		<path class="st8" d="M149.71-10.106c-0.409-0.203-9.942-1.637-17.008-6.172c0,0-3.959,18.519-10.013,27.981
			c0,0-3.887,21.349-4.937,27.159H79.984V26.98c0-2.55-2.067-4.618-4.618-4.618s-4.618,2.068-4.618,4.618v11.882H32.019
			c0,0-2.244-23.849-3.292-27.159c0,0-11.527-20.189-9.602-27.981L1.569-10.106v-62.137c0,0,5.25-15.7,30.451-14.267
			c0,0,5.842-11.89,24.005-9.465v-10.288h37.995v10.288c0,0,15.407-3.86,26.199,9.465c0,0,24.661-2.203,29.492,14.267
			C149.71-72.243,150.119-9.904,149.71-10.106z M51.063-33.226c6.531-1.866,18.627-9.792,17.657-26.435
			c-0.148-2.546-2.347-4.493-4.878-4.341c-2.546,0.148-4.489,2.333-4.341,4.878c0.761,13.068-9.768,16.652-11.001,17.026
			c-2.436,0.711-3.843,3.257-3.145,5.7c0.579,2.029,2.428,3.35,4.437,3.35C50.212-33.047,50.64-33.105,51.063-33.226z
			 M105.306-36.397c0.701-2.452-0.719-5.008-3.171-5.708c-0.481-0.137-11.761-3.518-10.974-17.018
			c0.148-2.546-1.795-4.73-4.341-4.878c-2.539-0.159-4.73,1.795-4.878,4.341c-0.97,16.643,11.126,24.57,17.657,26.435
			c0.424,0.121,0.851,0.179,1.271,0.179C102.878-33.047,104.727-34.369,105.306-36.397z M79.984,1.745v-30.653
			c0-2.55-2.067-4.618-4.618-4.618s-4.618,2.067-4.618,4.618V1.745c0,2.55,2.067,4.618,4.618,4.618S79.984,4.294,79.984,1.745z"/>
	</g>
	<g id="Regular-L" transform="matrix(1 0 0 1 1374.99 1556)">
		<path class="st8" d="M147.196-10.63c-0.4-0.199-9.721-1.601-16.631-6.035c0,0-3.871,18.108-9.791,27.36
			c0,0-3.8,20.875-4.827,26.556H79.019V25.632c0-2.493-2.021-4.515-4.515-4.515c-2.494,0-4.515,2.022-4.515,4.515v11.618H32.12
			c0,0-2.194-23.319-3.219-26.556c0,0-11.271-19.741-9.389-27.36L2.346-10.63v-60.756c0,0,5.133-15.351,29.775-13.95
			c0,0,5.712-11.625,23.471-9.254v-10.059h37.151v10.059c0,0,15.065-3.775,25.617,9.254c0,0,24.113-2.154,28.837,13.95
			C147.196-71.387,147.596-10.433,147.196-10.63z M50.741-33.237c6.386-1.824,18.213-9.574,17.265-25.848
			c-0.145-2.49-2.295-4.393-4.77-4.245c-2.489,0.145-4.39,2.281-4.245,4.77c0.745,12.778-9.551,16.282-10.757,16.648
			c-2.382,0.695-3.758,3.185-3.075,5.574c0.566,1.984,2.374,3.276,4.339,3.276C49.909-33.061,50.327-33.118,50.741-33.237z
			 M103.779-36.337c0.685-2.397-0.703-4.897-3.101-5.581c-0.47-0.134-11.5-3.44-10.731-16.64c0.145-2.489-1.755-4.625-4.245-4.77
			c-2.482-0.156-4.625,1.755-4.77,4.245c-0.948,16.274,10.879,24.024,17.265,25.848c0.414,0.118,0.832,0.175,1.243,0.175
			C101.405-33.061,103.213-34.354,103.779-36.337z M79.019,0.957v-29.972c0-2.494-2.021-4.515-4.515-4.515
			c-2.494,0-4.515,2.021-4.515,4.515V0.957c0,2.493,2.021,4.515,4.515,4.515C76.998,5.472,79.019,3.45,79.019,0.957z"/>
	</g>
	<g id="Light-L" transform="matrix(1 0 0 1 1079.2 1556)">
		<path class="st8" d="M144.552-11.155c-0.391-0.194-9.5-1.564-16.253-5.897c0,0-3.783,17.696-9.568,26.738
			c0,0-3.714,20.4-4.717,25.952H77.925V24.283c0-2.436-1.975-4.412-4.412-4.412c-2.437,0-4.412,1.976-4.412,4.412v11.354H32.092
			c0,0-2.144-22.789-3.145-25.952c0,0-11.015-19.292-9.175-26.738L2.995-11.155V-70.53c0,0,5.016-15.002,29.098-13.633
			c0,0,5.582-11.361,22.938-9.044v-9.831h36.306v9.831c0,0,14.722-3.689,25.034,9.044c0,0,23.564-2.105,28.181,13.633
			C144.552-70.53,144.942-10.962,144.552-11.155z M50.29-33.247c6.241-1.783,17.799-9.357,16.873-25.26
			c-0.142-2.433-2.242-4.293-4.662-4.148c-2.433,0.142-4.29,2.229-4.148,4.662c0.728,12.487-9.334,15.912-10.512,16.269
			c-2.327,0.68-3.672,3.112-3.005,5.447c0.553,1.938,2.32,3.202,4.24,3.202C49.477-33.076,49.885-33.131,50.29-33.247z
			 M102.122-36.278c0.67-2.343-0.687-4.785-3.03-5.454c-0.459-0.131-11.238-3.362-10.487-16.262c0.142-2.433-1.716-4.52-4.148-4.662
			c-2.426-0.152-4.52,1.715-4.662,4.148c-0.926,15.904,10.631,23.478,16.873,25.26c0.405,0.116,0.813,0.171,1.215,0.171
			C99.802-33.076,101.568-34.339,102.122-36.278z M77.925,0.169v-29.29c0-2.437-1.975-4.412-4.412-4.412
			c-2.437,0-4.412,1.975-4.412,4.412v29.29c0,2.436,1.975,4.412,4.412,4.412C75.949,4.582,77.925,2.606,77.925,0.169z"/>
	</g>
	<g id="Thin-L" transform="matrix(1 0 0 1 783.716 1556)">
		<path class="st8" d="M141.688-11.679c-0.382-0.19-9.279-1.528-15.875-5.76c0,0-3.695,17.284-9.346,26.116
			c0,0-3.628,19.926-4.608,25.349H76.61v-11.09c0-2.38-1.929-4.31-4.31-4.31s-4.31,1.93-4.31,4.31v11.09H31.843
			c0,0-2.095-22.259-3.072-25.349c0,0-10.758-18.843-8.962-26.116l-16.387,5.76v-57.994c0,0,4.9-14.653,28.421-13.316
			c0,0,5.452-11.097,22.404-8.834v-9.602H89.71v9.602c0,0,14.38-3.603,24.452,8.834c0,0,23.016-2.056,27.526,13.316
			C141.688-69.673,142.069-11.491,141.688-11.679z M49.618-33.258c6.096-1.741,17.385-9.139,16.48-24.673
			c-0.138-2.377-2.19-4.193-4.553-4.052c-2.376,0.138-4.19,2.177-4.052,4.553c0.711,12.197-9.117,15.542-10.267,15.891
			c-2.273,0.664-3.587,3.04-2.935,5.32c0.541,1.893,2.266,3.127,4.141,3.127C48.824-33.09,49.222-33.145,49.618-33.258z
			 M100.245-36.218c0.654-2.288-0.671-4.674-2.96-5.328c-0.449-0.128-10.977-3.283-10.243-15.884
			c0.138-2.376-1.676-4.415-4.052-4.553c-2.37-0.149-4.415,1.675-4.553,4.052c-0.905,15.534,10.384,22.932,16.48,24.673
			c0.396,0.113,0.794,0.167,1.186,0.167C97.978-33.09,99.704-34.324,100.245-36.218z M76.61-0.618v-28.609
			c0-2.38-1.929-4.31-4.31-4.31s-4.31,1.929-4.31,4.31v28.609c0,2.38,1.929,4.31,4.31,4.31S76.61,1.761,76.61-0.618z"/>
	</g>
	<g id="Ultralight-L" transform="matrix(1 0 0 1 487.631 1556)">
		<path class="st8" d="M139.473-12.204c-0.373-0.185-9.059-1.492-15.497-5.623c0,0-3.607,16.873-9.123,25.494
			c0,0-3.541,19.451-4.498,24.745h-34.41V21.586c0-2.323-1.883-4.207-4.207-4.207c-2.324,0-4.207,1.884-4.207,4.207v10.826H32.244
			c0,0-2.045-21.729-2.999-24.745c0,0-10.502-18.395-8.748-25.494L4.5-12.204v-56.613c0,0,4.783-14.304,27.744-12.999
			c0,0,5.323-10.833,21.871-8.623v-9.373h34.617v9.373c0,0,14.037-3.517,23.87,8.623c0,0,22.468-2.007,26.87,12.999
			C139.473-68.817,139.845-12.02,139.473-12.204z M49.595-33.268c5.951-1.7,16.971-8.921,16.088-24.085
			c-0.135-2.32-2.138-4.093-4.445-3.955c-2.32,0.135-4.09,2.125-3.955,4.445c0.694,11.906-8.9,15.172-10.023,15.513
			c-2.219,0.648-3.502,2.968-2.865,5.194c0.528,1.848,2.212,3.053,4.043,3.053C48.82-33.105,49.209-33.158,49.595-33.268z
			 M99.016-36.158c0.639-2.234-0.655-4.563-2.889-5.201c-0.438-0.125-10.716-3.205-9.999-15.506c0.135-2.32-1.636-4.31-3.955-4.445
			c-2.313-0.145-4.31,1.635-4.445,3.955C76.844-42.19,87.865-34.968,93.816-33.268c0.386,0.11,0.775,0.163,1.158,0.163
			C96.804-33.105,98.489-34.309,99.016-36.158z M75.945-1.406v-27.928c0-2.324-1.883-4.207-4.207-4.207
			c-2.324,0-4.207,1.883-4.207,4.207v27.928c0,2.323,1.883,4.207,4.207,4.207C74.061,2.801,75.945,0.917,75.945-1.406z"/>
	</g>
	<g id="Black-M" transform="matrix(1 0 0 1 2871.36 1126)">
		<path class="st8" d="M124.456-15.185c-0.345-0.172-8.392-1.382-14.357-5.21c0,0-3.342,15.632-8.452,23.619
			c0,0-3.281,18.021-4.167,22.925H65.6V16.12c0-2.152-1.745-3.898-3.898-3.898c-2.153,0-3.898,1.745-3.898,3.898v10.03H25.114
			c0,0-1.894-20.131-2.778-22.925c0,0-9.73-17.042-8.105-23.619l-14.82,5.21v-52.45c0,0,4.431-13.252,25.704-12.043
			c0,0,4.931-10.036,20.262-7.989v-8.684h32.071v8.684c0,0,13.005-3.258,22.114,7.989c0,0,20.816-1.86,24.894,12.043
			C124.456-67.634,124.801-15.014,124.456-15.185z M41.189-34.7c5.513-1.575,15.723-8.265,14.905-22.314
			c-0.125-2.149-1.981-3.792-4.118-3.664c-2.149,0.125-3.789,1.969-3.664,4.118c0.643,11.031-8.245,14.056-9.286,14.372
			c-2.056,0.6-3.244,2.749-2.655,4.812c0.489,1.712,2.049,2.828,3.745,2.828C40.47-34.549,40.831-34.598,41.189-34.7z
			 M86.975-37.377c0.592-2.07-0.607-4.227-2.677-4.818c-0.406-0.116-9.927-2.969-9.264-14.365c0.125-2.149-1.515-3.993-3.664-4.118
			c-2.143-0.134-3.993,1.515-4.118,3.664C66.434-42.965,76.644-36.275,82.157-34.7c0.358,0.102,0.718,0.151,1.073,0.151
			C84.926-34.549,86.486-35.665,86.975-37.377z M65.6-5.181v-25.874c0-2.153-1.745-3.898-3.898-3.898
			c-2.153,0-3.898,1.745-3.898,3.898v25.874c0,2.152,1.745,3.898,3.898,3.898C63.855-1.283,65.6-3.029,65.6-5.181z"/>
	</g>
	<g id="Heavy-M" transform="matrix(1 0 0 1 2575.48 1126)">
		<path class="st8" d="M122.422-15.591c-0.338-0.168-8.221-1.354-14.064-5.103c0,0-3.274,15.313-8.28,23.137
			c0,0-3.214,17.653-4.082,22.457H64.767v-9.825c0-2.108-1.709-3.818-3.818-3.818c-2.109,0-3.818,1.71-3.818,3.818V24.9H25.107
			c0,0-1.856-19.72-2.722-22.457c0,0-9.531-16.694-7.94-23.137l-14.518,5.103V-66.97c0,0,4.341-12.982,25.179-11.797
			c0,0,4.83-9.831,19.849-7.826V-95.1h31.417v8.507c0,0,12.739-3.192,21.663,7.826c0,0,20.391-1.822,24.386,11.797
			C122.422-66.97,122.76-15.424,122.422-15.591z M40.854-34.708c5.401-1.543,15.402-8.097,14.6-21.858
			c-0.123-2.106-1.941-3.715-4.034-3.59c-2.105,0.123-3.712,1.929-3.59,4.034c0.63,10.806-8.077,13.769-9.096,14.078
			c-2.014,0.588-3.178,2.693-2.6,4.714c0.479,1.677,2.008,2.77,3.669,2.77C40.15-34.56,40.503-34.608,40.854-34.708z M85.706-37.33
			c0.58-2.027-0.594-4.141-2.622-4.72c-0.397-0.113-9.725-2.909-9.074-14.072c0.123-2.105-1.485-3.911-3.59-4.034
			c-2.099-0.132-3.911,1.484-4.034,3.59c-0.802,13.762,9.2,20.316,14.6,21.858c0.35,0.1,0.704,0.148,1.051,0.148
			C83.698-34.56,85.227-35.653,85.706-37.33z M64.767-5.792v-25.346c0-2.109-1.709-3.818-3.818-3.818
			c-2.109,0-3.818,1.709-3.818,3.818v25.346c0,2.108,1.709,3.818,3.818,3.818C63.058-1.974,64.767-3.683,64.767-5.792z"/>
	</g>
	<g id="Bold-M" transform="matrix(1 0 0 1 2279.69 1126)">
		<path class="st8" d="M120.167-15.997c-0.331-0.165-8.05-1.326-13.771-4.997c0,0-3.206,14.994-8.107,22.655
			c0,0-3.147,17.285-3.997,21.989H63.714v-9.62c0-2.064-1.674-3.739-3.739-3.739c-2.065,0-3.739,1.674-3.739,3.739v9.62H24.88
			c0,0-1.817-19.309-2.665-21.989c0,0-9.333-16.346-7.774-22.655L0.226-15.997v-50.309c0,0,4.25-12.711,24.655-11.551
			c0,0,4.73-9.626,19.435-7.663v-8.33h30.762v8.33c0,0,12.474-3.126,21.212,7.663c0,0,19.966-1.784,23.878,11.551
			C120.167-66.306,120.499-15.834,120.167-15.997z M40.299-34.716c5.288-1.51,15.081-7.928,14.296-21.403
			c-0.12-2.062-1.9-3.637-3.95-3.515c-2.061,0.12-3.635,1.889-3.515,3.95c0.616,10.581-7.909,13.482-8.907,13.785
			c-1.972,0.576-3.112,2.637-2.546,4.615c0.469,1.642,1.966,2.713,3.593,2.713C39.61-34.571,39.956-34.618,40.299-34.716z
			 M84.217-37.284c0.567-1.985-0.582-4.055-2.568-4.622c-0.389-0.111-9.522-2.848-8.885-13.779c0.12-2.061-1.454-3.83-3.515-3.95
			c-2.055-0.129-3.83,1.453-3.95,3.515c-0.785,13.475,9.008,19.893,14.296,21.403c0.343,0.098,0.689,0.145,1.029,0.145
			C82.251-34.571,83.748-35.641,84.217-37.284z M63.714-6.402V-31.22c0-2.065-1.674-3.739-3.739-3.739
			c-2.065,0-3.739,1.674-3.739,3.739v24.818c0,2.064,1.674,3.739,3.739,3.739C62.041-2.664,63.714-4.338,63.714-6.402z"/>
	</g>
	<g id="Semibold-M" transform="matrix(1 0 0 1 1983.62 1126)">
		<path class="st8" d="M118.293-16.404c-0.324-0.161-7.878-1.297-13.478-4.891c0,0-3.137,14.675-7.935,22.173
			c0,0-3.08,16.917-3.912,21.522H63.041v-9.416c0-2.02-1.638-3.659-3.659-3.659c-2.021,0-3.659,1.639-3.659,3.659V22.4h-30.69
			c0,0-1.778-18.899-2.608-21.522c0,0-9.134-15.998-7.609-22.173L0.903-16.404v-49.238c0,0,4.16-12.441,24.13-11.305
			c0,0,4.629-9.422,19.022-7.5V-92.6h30.108v8.152c0,0,12.209-3.059,20.76,7.5c0,0,19.541-1.746,23.37,11.305
			C118.293-65.642,118.617-16.244,118.293-16.404z M40.124-34.724c5.176-1.478,14.76-7.759,13.992-20.948
			c-0.117-2.018-1.86-3.56-3.866-3.44c-2.017,0.117-3.557,1.848-3.44,3.866c0.603,10.355-7.74,13.195-8.717,13.492
			c-1.93,0.564-3.045,2.581-2.492,4.517c0.459,1.607,1.924,2.655,3.516,2.655C39.449-34.582,39.788-34.628,40.124-34.724z
			 M83.107-37.237c0.555-1.943-0.57-3.968-2.513-4.523c-0.381-0.109-9.32-2.788-8.696-13.486c0.117-2.017-1.423-3.748-3.44-3.866
			c-2.012-0.126-3.748,1.422-3.866,3.44c-0.768,13.189,8.816,19.469,13.992,20.948c0.336,0.096,0.674,0.142,1.007,0.142
			C81.183-34.582,82.648-35.63,83.107-37.237z M63.041-7.013v-24.29c0-2.021-1.638-3.659-3.659-3.659
			c-2.021,0-3.659,1.638-3.659,3.659v24.29c0,2.02,1.638,3.659,3.659,3.659C61.403-3.354,63.041-4.993,63.041-7.013z"/>
	</g>
	<g id="Medium-M" transform="matrix(1 0 0 1 1687.4 1126)">
		<path class="st8" d="M116.579-16.81c-0.317-0.158-7.707-1.269-13.185-4.784c0,0-3.069,14.356-7.762,21.691
			c0,0-3.013,16.55-3.827,21.054H62.528v-9.211c0-1.977-1.602-3.58-3.58-3.58c-1.977,0-3.58,1.603-3.58,3.58v9.211H25.346
			c0,0-1.74-18.488-2.552-21.054c0,0-8.936-15.651-7.443-21.691L1.741-16.81v-48.168c0,0,4.069-12.17,23.605-11.06
			c0,0,4.529-9.217,18.608-7.337v-7.975h29.453v7.975c0,0,11.943-2.993,20.309,7.337c0,0,19.117-1.708,22.862,11.06
			C116.579-64.978,116.896-16.654,116.579-16.81z M40.109-34.733c5.063-1.446,14.439-7.59,13.688-20.492
			c-0.115-1.974-1.819-3.483-3.782-3.365c-1.974,0.115-3.48,1.808-3.365,3.782c0.59,10.13-7.572,12.908-8.528,13.198
			c-1.888,0.551-2.979,2.525-2.438,4.419c0.449,1.573,1.882,2.597,3.44,2.597C39.449-34.594,39.78-34.639,40.109-34.733z
			 M82.157-37.191c0.543-1.901-0.557-3.882-2.458-4.425c-0.373-0.106-9.117-2.727-8.507-13.192c0.115-1.974-1.392-3.667-3.365-3.782
			c-1.968-0.123-3.667,1.391-3.782,3.365c-0.752,12.902,8.625,19.046,13.688,20.492c0.329,0.094,0.66,0.139,0.985,0.139
			C80.275-34.594,81.708-35.618,82.157-37.191z M62.528-7.624v-23.762c0-1.977-1.602-3.58-3.58-3.58c-1.977,0-3.58,1.602-3.58,3.58
			v23.762c0,1.977,1.602,3.58,3.58,3.58C60.925-4.044,62.528-5.647,62.528-7.624z"/>
	</g>
	<g id="Regular-M" transform="matrix(1 0 0 1 1391.32 1126)">
		<path class="st8" d="M114.605-17.217c-0.31-0.154-7.536-1.241-12.892-4.678c0,0-3.001,14.037-7.59,21.209
			c0,0-2.946,16.182-3.742,20.586H61.754v-9.006c0-1.933-1.567-3.5-3.5-3.5s-3.5,1.567-3.5,3.5v9.006H25.399
			c0,0-1.701-18.077-2.495-20.586c0,0-8.737-15.303-7.278-21.209L2.318-17.217v-47.098c0,0,3.979-11.9,23.081-10.814
			c0,0,4.428-9.012,18.195-7.174V-90.1h28.799v7.798c0,0,11.678-2.926,19.858,7.174c0,0,18.692-1.67,22.354,10.814
			C114.605-64.315,114.915-17.064,114.605-17.217z M39.833-34.741c4.951-1.414,14.119-7.422,13.384-20.037
			c-0.112-1.93-1.779-3.405-3.698-3.291c-1.93,0.112-3.403,1.768-3.291,3.698c0.577,9.905-7.404,12.622-8.338,12.905
			c-1.846,0.539-2.913,2.469-2.384,4.321c0.439,1.538,1.84,2.54,3.363,2.54C39.188-34.605,39.512-34.649,39.833-34.741z
			 M80.948-37.145c0.531-1.858-0.545-3.796-2.404-4.327c-0.364-0.104-8.915-2.667-8.318-12.899c0.112-1.93-1.361-3.585-3.291-3.698
			c-1.924-0.121-3.585,1.36-3.698,3.291c-0.735,12.615,8.433,18.623,13.384,20.037c0.321,0.092,0.645,0.136,0.963,0.136
			C79.108-34.605,80.509-35.607,80.948-37.145z M61.754-8.234v-23.234c0-1.933-1.567-3.5-3.5-3.5s-3.5,1.567-3.5,3.5v23.234
			c0,1.933,1.567,3.5,3.5,3.5S61.754-6.301,61.754-8.234z"/>
	</g>
	<g id="Light-M" transform="matrix(1 0 0 1 1095.44 1126)">
		<path class="st8" d="M112.42-17.623c-0.303-0.151-7.365-1.213-12.599-4.572c0,0-2.933,13.718-7.417,20.727
			c0,0-2.879,15.814-3.657,20.118H60.771V9.848c0-1.889-1.531-3.42-3.42-3.42c-1.889,0-3.42,1.532-3.42,3.42v8.802H25.242
			c0,0-1.662-17.666-2.438-20.118c0,0-8.538-14.955-7.112-20.727L2.686-17.623V-63.65c0,0,3.889-11.629,22.556-10.568
			c0,0,4.327-8.807,17.781-7.011v-7.621h28.144v7.621c0,0,11.412-2.86,19.407,7.011c0,0,18.267-1.632,21.846,10.568
			C112.42-63.65,112.723-17.474,112.42-17.623z M39.348-34.749c4.838-1.382,13.798-7.253,13.079-19.582
			c-0.11-1.886-1.738-3.328-3.614-3.216c-1.886,0.11-3.325,1.728-3.216,3.614c0.564,9.68-7.235,12.335-8.149,12.612
			c-1.804,0.527-2.847,2.413-2.33,4.223c0.429,1.503,1.798,2.482,3.287,2.482C38.718-34.616,39.034-34.659,39.348-34.749z
			 M79.528-37.098c0.519-1.816-0.533-3.71-2.349-4.228c-0.356-0.102-8.712-2.606-8.129-12.606c0.11-1.886-1.33-3.504-3.216-3.614
			c-1.881-0.118-3.504,1.329-3.614,3.216c-0.718,12.328,8.241,18.2,13.079,19.582c0.314,0.09,0.63,0.133,0.941,0.133
			C77.73-34.616,79.099-35.595,79.528-37.098z M60.771-8.845V-31.55c0-1.889-1.531-3.42-3.42-3.42c-1.889,0-3.42,1.531-3.42,3.42
			v22.706c0,1.889,1.531,3.42,3.42,3.42C59.24-5.424,60.771-6.956,60.771-8.845z"/>
	</g>
	<g id="Thin-M" transform="matrix(1 0 0 1 799.828 1126)">
		<path class="st8" d="M110.053-18.03c-0.296-0.147-7.193-1.185-12.306-4.465c0,0-2.865,13.399-7.245,20.245
			c0,0-2.812,15.446-3.572,19.65H59.606V8.803c0-1.845-1.496-3.341-3.341-3.341c-1.845,0-3.341,1.496-3.341,3.341V17.4H24.903
			c0,0-1.624-17.255-2.382-19.65c0,0-8.34-14.607-6.947-20.245L2.871-18.03v-44.957c0,0,3.798-11.359,22.032-10.322
			c0,0,4.227-8.602,17.368-6.848V-87.6h27.49v7.443c0,0,11.147-2.793,18.955,6.848c0,0,17.842-1.594,21.338,10.322
			C110.053-62.986,110.349-17.884,110.053-18.03z M38.681-34.757c4.726-1.35,13.477-7.084,12.775-19.126
			c-0.107-1.842-1.698-3.25-3.53-3.141c-1.842,0.107-3.248,1.688-3.141,3.53c0.551,9.455-7.067,12.048-7.959,12.319
			c-1.762,0.515-2.781,2.357-2.275,4.124c0.419,1.468,1.757,2.424,3.21,2.424C38.066-34.627,38.375-34.669,38.681-34.757z
			 M77.927-37.052c0.507-1.774-0.52-3.623-2.295-4.13c-0.348-0.099-8.509-2.545-7.94-12.313c0.107-1.842-1.299-3.422-3.141-3.53
			c-1.837-0.115-3.422,1.299-3.53,3.141c-0.701,12.042,8.05,17.776,12.775,19.126c0.307,0.088,0.616,0.13,0.92,0.13
			C76.17-34.627,77.508-35.584,77.927-37.052z M59.606-9.455v-22.178c0-1.845-1.496-3.341-3.341-3.341
			c-1.845,0-3.341,1.496-3.341,3.341v22.178c0,1.845,1.496,3.341,3.341,3.341C58.11-6.114,59.606-7.611,59.606-9.455z"/>
	</g>
	<g id="Ultralight-M" transform="matrix(1 0 0 1 503.679 1126)">
		<path class="st8" d="M108.272-18.436c-0.289-0.144-7.022-1.156-12.013-4.359c0,0-2.796,13.08-7.072,19.763
			c0,0-2.745,15.079-3.487,19.182H59.025V7.758c0-1.801-1.46-3.261-3.261-3.261c-1.801,0-3.261,1.461-3.261,3.261v8.392H25.149
			c0,0-1.585-16.844-2.325-19.182c0,0-8.141-14.259-6.782-19.763L3.642-18.436v-43.886c0,0,3.708-11.089,21.507-10.077
			c0,0,4.126-8.397,16.954-6.685v-7.266h26.835v7.266c0,0,10.882-2.727,18.504,6.685c0,0,17.417-1.556,20.83,10.077
			C108.272-62.322,108.561-18.294,108.272-18.436z M38.599-34.765c4.613-1.318,13.156-6.916,12.471-18.671
			c-0.105-1.799-1.658-3.173-3.446-3.066c-1.798,0.105-3.171,1.648-3.066,3.446c0.538,9.23-6.899,11.761-7.77,12.025
			c-1.72,0.502-2.714,2.3-2.221,4.026c0.409,1.433,1.715,2.366,3.134,2.366C37.998-34.639,38.3-34.68,38.599-34.765z M76.91-37.005
			c0.495-1.732-0.508-3.537-2.24-4.032c-0.339-0.097-8.307-2.485-7.751-12.02c0.105-1.798-1.268-3.341-3.066-3.446
			c-1.793-0.112-3.341,1.268-3.446,3.066c-0.685,11.755,7.858,17.353,12.471,18.671c0.299,0.086,0.601,0.126,0.898,0.126
			C75.196-34.639,76.501-35.572,76.91-37.005z M59.025-10.066v-21.65c0-1.801-1.46-3.261-3.261-3.261
			c-1.801,0-3.261,1.46-3.261,3.261v21.65c0,1.801,1.46,3.261,3.261,3.261C57.565-6.805,59.025-8.265,59.025-10.066z"/>
	</g>
	<g id="Black-S" transform="matrix(1 0 0 1 2884.57 696)">
		<path class="st8" d="M97.695-19.706c-0.27-0.134-6.571-1.082-11.241-4.079c0,0-2.617,12.24-6.618,18.494
			c0,0-2.569,14.11-3.263,17.95H51.611V4.805c0-1.685-1.366-3.052-3.052-3.052c-1.686,0-3.052,1.367-3.052,3.052v7.853H19.91
			c0,0-1.483-15.763-2.176-17.95c0,0-7.618-13.344-6.346-18.494l-11.604,4.079v-41.068c0,0,3.47-10.376,20.126-9.429
			c0,0,3.861-7.858,15.865-6.255v-6.8h25.112v6.8c0,0,10.183-2.551,17.316,6.255c0,0,16.299-1.456,19.492,9.429
			C97.695-60.774,97.966-19.573,97.695-19.706z M32.497-34.987c4.317-1.233,12.311-6.472,11.67-17.472
			c-0.098-1.683-1.551-2.969-3.224-2.869c-1.683,0.098-2.967,1.542-2.869,3.224c0.503,8.637-6.456,11.006-7.271,11.253
			c-1.61,0.47-2.54,2.153-2.079,3.768c0.383,1.341,1.605,2.214,2.933,2.214C31.935-34.868,32.217-34.907,32.497-34.987z
			 M68.348-37.083c0.463-1.62-0.475-3.31-2.096-3.773c-0.318-0.091-7.773-2.325-7.253-11.248c0.098-1.683-1.187-3.126-2.869-3.224
			c-1.678-0.105-3.126,1.186-3.224,2.869c-0.641,11,7.353,16.239,11.67,17.472c0.28,0.08,0.562,0.118,0.84,0.118
			C66.743-34.868,67.965-35.742,68.348-37.083z M51.611-11.874v-20.259c0-1.686-1.366-3.052-3.052-3.052
			c-1.686,0-3.052,1.366-3.052,3.052v20.259c0,1.685,1.366,3.052,3.052,3.052C50.245-8.822,51.611-10.188,51.611-11.874z"/>
	</g>
	<g id="Heavy-S" transform="matrix(1 0 0 1 2588.47 696)">
		<path class="st8" d="M96.157-20.024c-0.265-0.132-6.437-1.06-11.012-3.996c0,0-2.563,11.99-6.483,18.116
			c0,0-2.516,13.822-3.196,17.584H51.014V3.987c0-1.651-1.338-2.99-2.99-2.99c-1.651,0-2.99,1.339-2.99,2.99v7.693H19.96
			c0,0-1.453-15.441-2.131-17.584c0,0-7.463-13.071-6.217-18.116L0.245-20.024v-40.23c0,0,3.399-10.165,19.715-9.237
			c0,0,3.782-7.698,15.542-6.128v-6.661h24.599v6.661c0,0,9.975-2.499,16.962,6.128c0,0,15.966-1.427,19.094,9.237
			C96.157-60.254,96.422-19.894,96.157-20.024z M32.29-34.993c4.229-1.208,12.06-6.34,11.432-17.115
			c-0.096-1.649-1.519-2.909-3.159-2.811c-1.648,0.096-2.907,1.51-2.811,3.159c0.493,8.461-6.324,10.781-7.122,11.023
			c-1.577,0.46-2.488,2.109-2.036,3.691c0.375,1.313,1.572,2.169,2.873,2.169C31.739-34.877,32.015-34.915,32.29-34.993z
			 M67.409-37.046c0.454-1.587-0.465-3.242-2.053-3.696c-0.311-0.089-7.615-2.278-7.105-11.018c0.096-1.648-1.162-3.063-2.811-3.159
			c-1.644-0.103-3.063,1.162-3.159,2.811c-0.628,10.776,7.203,15.907,11.432,17.115c0.274,0.078,0.551,0.116,0.823,0.116
			C65.837-34.877,67.034-35.733,67.409-37.046z M51.014-12.352v-19.846c0-1.651-1.338-2.99-2.99-2.99c-1.651,0-2.99,1.338-2.99,2.99
			v19.846c0,1.651,1.338,2.99,2.99,2.99C49.676-9.362,51.014-10.701,51.014-12.352z"/>
	</g>
	<g id="Bold-S" transform="matrix(1 0 0 1 2292.43 696)">
		<path class="st8" d="M94.43-20.343c-0.259-0.129-6.303-1.038-10.783-3.913c0,0-2.51,11.74-6.348,17.739
			c0,0-2.464,13.534-3.13,17.218H50.227V3.168c0-1.616-1.311-2.927-2.927-2.927c-1.617,0-2.927,1.311-2.927,2.927v7.533H19.82
			c0,0-1.423-15.119-2.087-17.218c0,0-7.307-12.799-6.087-17.739L0.515-20.343v-39.392c0,0,3.328-9.953,19.305-9.045
			c0,0,3.703-7.537,15.218-6v-6.522h24.087v6.522c0,0,9.767-2.447,16.609,6c0,0,15.634-1.397,18.696,9.045
			C94.43-59.734,94.689-20.215,94.43-20.343z M31.893-35c4.141-1.183,11.809-6.208,11.194-16.759
			c-0.094-1.614-1.488-2.848-3.093-2.752c-1.614,0.094-2.846,1.479-2.752,3.093c0.483,8.285-6.192,10.556-6.974,10.794
			c-1.544,0.451-2.436,2.065-1.994,3.614c0.367,1.286,1.539,2.124,2.813,2.124C31.353-34.886,31.624-34.923,31.893-35z M66.28-37.01
			c0.444-1.554-0.456-3.175-2.01-3.619c-0.305-0.087-7.456-2.23-6.957-10.789c0.094-1.614-1.138-2.999-2.752-3.093
			c-1.609-0.101-2.999,1.138-3.093,2.752C50.853-41.207,58.521-36.182,62.661-35c0.269,0.077,0.539,0.114,0.806,0.114
			C64.741-34.886,65.913-35.724,66.28-37.01z M50.227-12.83v-19.432c0-1.617-1.311-2.927-2.927-2.927
			c-1.617,0-2.927,1.311-2.927,2.927v19.432c0,1.616,1.311,2.927,2.927,2.927C48.916-9.902,50.227-11.213,50.227-12.83z"/>
	</g>
	<g id="Semibold-S" transform="matrix(1 0 0 1 1996.19 696)">
		<path class="st8" d="M93.002-20.661c-0.254-0.126-6.169-1.016-10.553-3.829c0,0-2.457,11.49-6.213,17.361
			c0,0-2.412,13.246-3.063,16.851H49.739V2.35c0-1.582-1.283-2.865-2.865-2.865s-2.865,1.283-2.865,2.865v7.373h-24.03
			c0,0-1.392-14.798-2.042-16.851c0,0-7.152-12.527-5.958-17.361L1.086-20.661v-38.554c0,0,3.257-9.741,18.894-8.852
			c0,0,3.625-7.377,14.894-5.872v-6.383h23.574v6.383c0,0,9.559-2.395,16.255,5.872c0,0,15.301-1.367,18.299,8.852
			C93.002-59.215,93.256-20.536,93.002-20.661z M31.795-35.006c4.053-1.158,11.557-6.075,10.956-16.402
			c-0.092-1.58-1.456-2.788-3.027-2.694c-1.58,0.092-2.786,1.447-2.694,3.027c0.472,8.108-6.061,10.332-6.826,10.564
			c-1.511,0.441-2.385,2.021-1.951,3.537c0.359,1.259,1.506,2.079,2.753,2.079C31.267-34.895,31.532-34.931,31.795-35.006z
			 M65.451-36.974c0.435-1.521-0.446-3.107-1.968-3.542c-0.298-0.085-7.297-2.183-6.809-10.559c0.092-1.58-1.114-2.935-2.694-3.027
			c-1.575-0.099-2.935,1.114-3.027,2.694c-0.602,10.327,6.903,15.245,10.956,16.402c0.263,0.075,0.528,0.111,0.789,0.111
			C63.945-34.895,65.092-35.715,65.451-36.974z M49.739-13.308v-19.019c0-1.582-1.283-2.865-2.865-2.865s-2.865,1.283-2.865,2.865
			v19.019c0,1.582,1.283,2.865,2.865,2.865S49.739-11.726,49.739-13.308z"/>
	</g>
	<g id="Medium-S" transform="matrix(1 0 0 1 1699.83 696)">
		<path class="st8" d="M91.704-20.979c-0.248-0.123-6.035-0.994-10.324-3.746c0,0-2.403,11.241-6.078,16.984
			c0,0-2.359,12.958-2.997,16.485H49.382V1.531c0-1.548-1.255-2.803-2.803-2.803c-1.548,0-2.803,1.255-2.803,2.803v7.212H20.269
			c0,0-1.362-14.476-1.998-16.485c0,0-6.997-12.254-5.828-16.984L1.786-20.979v-37.716c0,0,3.186-9.529,18.483-8.66
			c0,0,3.546-7.217,14.57-5.745v-6.245h23.062v6.245c0,0,9.352-2.343,15.902,5.745c0,0,14.968-1.337,17.901,8.66
			C91.704-58.695,91.952-20.857,91.704-20.979z M31.828-35.012c3.964-1.132,11.306-5.943,10.718-16.045
			c-0.09-1.546-1.424-2.727-2.961-2.635c-1.545,0.09-2.725,1.416-2.635,2.961c0.462,7.932-5.929,10.107-6.677,10.334
			c-1.478,0.432-2.333,1.977-1.909,3.46c0.352,1.231,1.474,2.034,2.693,2.034C31.312-34.904,31.571-34.939,31.828-35.012z
			 M64.752-36.937c0.425-1.488-0.436-3.04-1.925-3.465c-0.292-0.083-7.139-2.135-6.661-10.33c0.09-1.545-1.09-2.871-2.635-2.961
			c-1.541-0.097-2.871,1.089-2.961,2.635c-0.588,10.102,6.753,14.913,10.718,16.045c0.257,0.074,0.517,0.109,0.771,0.109
			C63.279-34.904,64.401-35.706,64.752-36.937z M49.382-13.786v-18.605c0-1.548-1.255-2.803-2.803-2.803
			c-1.548,0-2.803,1.255-2.803,2.803v18.605c0,1.548,1.255,2.803,2.803,2.803C48.127-10.983,49.382-12.238,49.382-13.786z"/>
	</g>
	<g id="Regular-S" transform="matrix(1 0 0 1 1403.58 696)">
		<path class="st8" d="M90.176-21.297c-0.243-0.121-5.901-0.972-10.094-3.663c0,0-2.35,10.991-5.943,16.607
			c0,0-2.307,12.671-2.93,16.119H48.795V0.713c0-1.513-1.227-2.741-2.741-2.741S43.314-0.8,43.314,0.713v7.052H20.328
			c0,0-1.332-14.154-1.954-16.119c0,0-6.841-11.982-5.699-16.607l-10.42,3.663v-36.878c0,0,3.116-9.318,18.072-8.467
			c0,0,3.467-7.056,14.247-5.617v-6.106h22.55v6.106c0,0,9.144-2.291,15.549,5.617c0,0,14.636-1.308,17.503,8.467
			C90.176-58.175,90.419-21.178,90.176-21.297z M31.631-35.019c3.876-1.107,11.055-5.811,10.48-15.689
			c-0.088-1.511-1.393-2.666-2.895-2.576c-1.511,0.088-2.664,1.384-2.576,2.895c0.452,7.756-5.797,9.883-6.529,10.105
			c-1.446,0.422-2.281,1.933-1.867,3.383c0.344,1.204,1.441,1.988,2.633,1.988C31.125-34.912,31.379-34.947,31.631-35.019z
			 M63.823-36.901c0.416-1.455-0.427-2.972-1.882-3.388c-0.285-0.081-6.98-2.088-6.513-10.1c0.088-1.511-1.066-2.807-2.576-2.895
			c-1.507-0.094-2.807,1.065-2.895,2.576c-0.575,9.878,6.603,14.582,10.48,15.689c0.252,0.072,0.505,0.106,0.754,0.106
			C62.382-34.912,63.48-35.697,63.823-36.901z M48.795-14.264v-18.192c0-1.514-1.227-2.741-2.741-2.741s-2.741,1.227-2.741,2.741
			v18.192c0,1.513,1.227,2.741,2.741,2.741S48.795-12.751,48.795-14.264z"/>
	</g>
	<g id="Light-S" transform="matrix(1 0 0 1 1107.6 696)">
		<path class="st8" d="M88.368-21.616c-0.237-0.118-5.767-0.95-9.865-3.58c0,0-2.296,10.741-5.808,16.229
			c0,0-2.254,12.382-2.863,15.752H47.927v-6.892c0-1.479-1.199-2.678-2.678-2.678c-1.479,0-2.678,1.199-2.678,2.678v6.892H20.108
			c0,0-1.302-13.833-1.909-15.752c0,0-6.686-11.71-5.569-16.229l-10.183,3.58v-36.039c0,0,3.045-9.106,17.662-8.275
			c0,0,3.388-6.896,13.923-5.489v-5.967h22.037v5.967c0,0,8.936-2.239,15.195,5.489c0,0,14.303-1.278,17.105,8.275
			C88.368-57.655,88.605-21.499,88.368-21.616z M31.153-35.025c3.788-1.082,10.804-5.679,10.241-15.332
			c-0.086-1.477-1.361-2.606-2.83-2.518c-1.477,0.086-2.604,1.353-2.518,2.83c0.442,7.579-5.665,9.658-6.381,9.875
			c-1.413,0.412-2.229,1.889-1.824,3.306c0.336,1.177,1.408,1.943,2.574,1.943C30.66-34.921,30.908-34.955,31.153-35.025z
			 M62.614-36.864c0.407-1.422-0.417-2.905-1.839-3.311c-0.279-0.08-6.821-2.04-6.365-9.871c0.086-1.477-1.041-2.744-2.518-2.83
			c-1.472-0.092-2.744,1.041-2.83,2.518c-0.562,9.653,6.453,14.25,10.241,15.332c0.246,0.07,0.494,0.104,0.737,0.104
			C61.206-34.921,62.278-35.688,62.614-36.864z M47.927-14.742v-17.779c0-1.479-1.199-2.678-2.678-2.678
			c-1.479,0-2.678,1.199-2.678,2.678v17.779c0,1.479,1.199,2.678,2.678,2.678C46.728-12.064,47.927-13.263,47.927-14.742z"/>
	</g>
	<g id="Thin-S" transform="matrix(1 0 0 1 811.863 696)">
		<path class="st8" d="M86.403-21.934c-0.232-0.115-5.632-0.928-9.635-3.496c0,0-2.243,10.491-5.673,15.852
			c0,0-2.202,12.094-2.797,15.386H46.903v-6.731c0-1.444-1.171-2.616-2.616-2.616c-1.445,0-2.616,1.171-2.616,2.616v6.731H19.73
			c0,0-1.271-13.511-1.865-15.386c0,0-6.53-11.437-5.44-15.852L2.48-21.934v-35.201c0,0,2.974-8.894,17.251-8.082
			c0,0,3.309-6.736,13.599-5.362v-5.828h21.524v5.828c0,0,8.728-2.187,14.842,5.362c0,0,13.97-1.248,16.707,8.082
			C86.403-57.135,86.635-21.82,86.403-21.934z M30.519-35.031c3.7-1.057,10.552-5.547,10.003-14.976
			c-0.084-1.443-1.329-2.545-2.764-2.459c-1.442,0.084-2.543,1.321-2.459,2.764c0.431,7.403-5.534,9.433-6.232,9.645
			c-1.38,0.403-2.177,1.845-1.782,3.229c0.328,1.149,1.375,1.898,2.514,1.898C30.037-34.93,30.279-34.963,30.519-35.031z
			 M61.248-36.828c0.397-1.389-0.407-2.837-1.797-3.234c-0.272-0.078-6.663-1.993-6.217-9.641c0.084-1.442-1.017-2.68-2.459-2.764
			c-1.438-0.09-2.68,1.017-2.764,2.459c-0.549,9.429,6.303,13.919,10.003,14.976c0.24,0.069,0.482,0.101,0.72,0.101
			C59.873-34.93,60.92-35.679,61.248-36.828z M46.903-15.22v-17.365c0-1.445-1.171-2.616-2.616-2.616
			c-1.445,0-2.616,1.171-2.616,2.616v17.365c0,1.444,1.171,2.616,2.616,2.616C45.732-12.604,46.903-13.776,46.903-15.22z"/>
	</g>
	<g id="Ultralight-S" transform="matrix(1 0 0 1 515.649 696)">
		<path class="st8" d="M84.963-22.252c-0.226-0.112-5.498-0.905-9.406-3.413c0,0-2.19,10.241-5.538,15.474
			c0,0-2.149,11.807-2.73,15.02H46.403v-6.571c0-1.41-1.143-2.554-2.554-2.554c-1.41,0-2.554,1.144-2.554,2.554v6.571H19.878
			c0,0-1.241-13.189-1.82-15.02c0,0-6.375-11.165-5.31-15.474l-9.71,3.413v-34.363c0,0,2.903-8.682,16.84-7.89
			c0,0,3.231-6.575,13.275-5.234v-5.689h21.012v5.689c0,0,8.52-2.135,14.489,5.234c0,0,13.638-1.218,16.31,7.89
			C84.963-56.615,85.19-22.141,84.963-22.252z M30.41-35.038c3.612-1.032,10.301-5.415,9.765-14.619
			c-0.082-1.408-1.298-2.485-2.698-2.401c-1.408,0.082-2.483,1.29-2.401,2.698c0.421,7.227-5.402,9.209-6.084,9.416
			c-1.347,0.393-2.125,1.801-1.739,3.152c0.32,1.122,1.343,1.853,2.454,1.853C29.939-34.939,30.175-34.971,30.41-35.038z
			 M60.407-36.792c0.388-1.356-0.398-2.77-1.754-3.157c-0.266-0.076-6.504-1.945-6.069-9.412c0.082-1.408-0.993-2.616-2.401-2.698
			c-1.404-0.088-2.616,0.993-2.698,2.401c-0.536,9.204,6.153,13.588,9.765,14.619c0.234,0.067,0.471,0.099,0.703,0.099
			C59.065-34.939,60.087-35.67,60.407-36.792z M46.403-15.698V-32.65c0-1.41-1.143-2.554-2.554-2.554
			c-1.41,0-2.554,1.143-2.554,2.554v16.952c0,1.41,1.143,2.554,2.554,2.554C45.26-13.145,46.403-14.288,46.403-15.698z"/>
	</g>
</g>
</svg>
