<?xml version="1.0" encoding="UTF-8"?>
<!-- Generator: CustomSymbols v2.5.1.36 by @serious_bret https://bretlester.com/app_content/CustomSymbols/ -->
<!-- Guides: Left/Right 0.216/0.22 Cap/Base 0.231/0.231 -->
<!-- Settings: RefScale 1.0 Min/Max Stroke Scales 0.5/2.21 -->
<!DOCTYPE svg
PUBLIC "-//W3C//DTD SVG 1.1//EN"
       "http://www.w3.org/Graphics/SVG/1.1/DTD/svg11.dtd">
<svg version="1.1" xmlns="http://www.w3.org/2000/svg" xmlns:xlink="http://www.w3.org/1999/xlink" width="3300" height="2200">
<![CDATA[<?xml version="1.0" encoding="UTF-8" standalone="no"?><!DOCTYPE svg PUBLIC "-//W3C//DTD SVG 1.1//EN" "http://www.w3.org/Graphics/SVG/1.1/DTD/svg11.dtd"><svg width="100%" height="100%" viewBox="0 0 1280 1280" version="1.1" xmlns="http://www.w3.org/2000/svg" xmlns:xlink="http://www.w3.org/1999/xlink" xml:space="preserve" xmlns:serif="http://www.serif.com/" style="fill-rule:evenodd;clip-rule:evenodd;stroke-linejoin:round;stroke-miterlimit:2;"><path d="M1039.14,744.202c39.372,-38.056 137.214,-115.88 168.321,-86.046l-20,453.112c-0,-0 -510.782,163.155 -1040,-31c-0,-0 -121.58,-16.021 -55,-121c-0,-0 -11.269,-453.327 444,-850c-0,-0 88.781,-36.383 308,94c18.002,26.235 60.286,183.661 -109.711,215.843c-4.846,0.918 -50.498,1.799 -53.335,-5.419c-23.237,-59.111 -134.036,-109.41 -147.954,28.576c-3.514,34.836 -56.472,81.608 -83.792,140.475c-1.514,3.261 -8.95,13.532 -11.359,15.684c-43.805,39.11 -104.131,149.225 -113.057,210.924c-7.225,49.951 80.663,95.319 80.866,28.492c0.087,-28.855 81.777,-191.893 127.342,-197.843c131.473,-42.347 356.978,-24.738 414.203,86.202c16.059,93.148 -21.406,145.507 -40.203,165.641c-46.914,50.25 47.838,71.719 68.954,50.425c18.518,-18.674 72.509,-108.906 62.725,-198.066Z"/></svg>]]>
 <g id="Notes">
  <rect height="2200" id="artboard" style="fill:white;opacity:1" width="3300" x="0" y="0"/>
  <line id="" style="fill:none;stroke:black;opacity:1;stroke-width:0.5;" x1="263" x2="3036" y1="292" y2="292"/>
  <text id="reftext1" style="stroke:none;fill:black;font-family:-apple-system,&quot;SF Pro Display&quot;,&quot;SF Pro Text&quot;,Helvetica,sans-serif;font-weight:bold;" transform="matrix(1 0 0 1 263 322)">Weight/Scale Variations</text>
  <text id="reftext2" style="stroke:none;fill:black;font-family:-apple-system,&quot;SF Pro Display&quot;,&quot;SF Pro Text&quot;,Helvetica,sans-serif;text-anchor:middle;" transform="matrix(1 0 0 1 559.711 322)">Ultralight</text>
  <text style="stroke:none;fill:black;font-family:-apple-system,&quot;SF Pro Display&quot;,&quot;SF Pro Text&quot;,Helvetica,sans-serif;text-anchor:middle;" transform="matrix(1 0 0 1 856.422 322)">Thin</text>
  <text style="stroke:none;fill:black;font-family:-apple-system,&quot;SF Pro Display&quot;,&quot;SF Pro Text&quot;,Helvetica,sans-serif;text-anchor:middle;" transform="matrix(1 0 0 1 1153.13 322)">Light</text>
  <text style="stroke:none;fill:black;font-family:-apple-system,&quot;SF Pro Display&quot;,&quot;SF Pro Text&quot;,Helvetica,sans-serif;text-anchor:middle;" transform="matrix(1 0 0 1 1449.84 322)">Regular</text>
  <text style="stroke:none;fill:black;font-family:-apple-system,&quot;SF Pro Display&quot;,&quot;SF Pro Text&quot;,Helvetica,sans-serif;text-anchor:middle;" transform="matrix(1 0 0 1 1746.56 322)">Medium</text>
  <text style="stroke:none;fill:black;font-family:-apple-system,&quot;SF Pro Display&quot;,&quot;SF Pro Text&quot;,Helvetica,sans-serif;text-anchor:middle;" transform="matrix(1 0 0 1 2043.27 322)">Semibold</text>
  <text style="stroke:none;fill:black;font-family:-apple-system,&quot;SF Pro Display&quot;,&quot;SF Pro Text&quot;,Helvetica,sans-serif;text-anchor:middle;" transform="matrix(1 0 0 1 2339.98 322)">Bold</text>
  <text style="stroke:none;fill:black;font-family:-apple-system,&quot;SF Pro Display&quot;,&quot;SF Pro Text&quot;,Helvetica,sans-serif;text-anchor:middle;" transform="matrix(1 0 0 1 2636.69 322)">Heavy</text>
  <text style="stroke:none;fill:black;font-family:-apple-system,&quot;SF Pro Display&quot;,&quot;SF Pro Text&quot;,Helvetica,sans-serif;text-anchor:middle;" transform="matrix(1 0 0 1 2933.4 322)">Black</text>
  <line id="" style="fill:none;stroke:black;opacity:1;stroke-width:0.5;" x1="263" x2="3036" y1="1903" y2="1903"/>
  <g id="" transform="matrix(1 0 0 1 263 1933)">
   <path d="M9.24805 0.830078C13.5547 0.830078 17.1387-2.74414 17.1387-7.05078C17.1387-11.3574 13.5449-14.9316 9.23828-14.9316C4.94141-14.9316 1.36719-11.3574 1.36719-7.05078C1.36719-2.74414 4.95117 0.830078 9.24805 0.830078ZM9.24805-0.654297C5.70312-0.654297 2.87109-3.49609 2.87109-7.05078C2.87109-10.6055 5.69336-13.4473 9.23828-13.4473C12.793-13.4473 15.6348-10.6055 15.6445-7.05078C15.6543-3.49609 12.8027-0.654297 9.24805-0.654297ZM6.39648-6.31836L8.50586-6.31836L8.50586-4.19922C8.50586-3.75977 8.79883-3.45703 9.22852-3.45703C9.67773-3.45703 9.9707-3.75977 9.9707-4.19922L9.9707-6.31836L12.0996-6.31836C12.5391-6.31836 12.8418-6.61133 12.8418-7.04102C12.8418-7.48047 12.5391-7.7832 12.0996-7.7832L9.9707-7.7832L9.9707-9.89258C9.9707-10.3418 9.67773-10.6445 9.22852-10.6445C8.79883-10.6445 8.50586-10.3418 8.50586-9.89258L8.50586-7.7832L6.39648-7.7832C5.94727-7.7832 5.64453-7.48047 5.64453-7.04102C5.64453-6.61133 5.94727-6.31836 6.39648-6.31836Z"/>
  </g>
  <g id="" transform="matrix(1 0 0 1 281.506 1933)">
   <path d="M11.709 2.91016C17.1582 2.91016 21.6699-1.61133 21.6699-7.05078C21.6699-12.5 17.1484-17.0117 11.6992-17.0117C6.25977-17.0117 1.74805-12.5 1.74805-7.05078C1.74805-1.61133 6.26953 2.91016 11.709 2.91016ZM11.709 1.25C7.09961 1.25 3.41797-2.44141 3.41797-7.05078C3.41797-11.6602 7.08984-15.3516 11.6992-15.3516C16.3086-15.3516 20-11.6602 20.0098-7.05078C20.0195-2.44141 16.3184 1.25 11.709 1.25ZM7.98828-6.23047L10.8789-6.23047L10.8789-3.32031C10.8789-2.83203 11.2109-2.5 11.6895-2.5C12.1777-2.5 12.5195-2.83203 12.5195-3.32031L12.5195-6.23047L15.4297-6.23047C15.918-6.23047 16.25-6.5625 16.25-7.04102C16.25-7.5293 15.918-7.87109 15.4297-7.87109L12.5195-7.87109L12.5195-10.7617C12.5195-11.2695 12.1777-11.6016 11.6895-11.6016C11.2109-11.6016 10.8789-11.2598 10.8789-10.7617L10.8789-7.87109L7.98828-7.87109C7.48047-7.87109 7.14844-7.5293 7.14844-7.04102C7.14844-6.5625 7.49023-6.23047 7.98828-6.23047Z"/>
  </g>
  <g id="" transform="matrix(1 0 0 1 304.924 1933)">
   <path d="M14.9707 5.66406C21.9336 5.66406 27.6953-0.0976562 27.6953-7.05078C27.6953-14.0137 21.9238-19.7754 14.9609-19.7754C8.00781-19.7754 2.25586-14.0137 2.25586-7.05078C2.25586-0.0976562 8.01758 5.66406 14.9707 5.66406ZM14.9707 3.84766C8.93555 3.84766 4.08203-1.01562 4.08203-7.05078C4.08203-13.0957 8.92578-17.9492 14.9609-17.9492C21.0059-17.9492 25.8594-13.0957 25.8691-7.05078C25.8789-1.01562 21.0156 3.84766 14.9707 3.84766ZM10.0586-6.14258L14.0625-6.14258L14.0625-2.12891C14.0625-1.5918 14.4336-1.2207 14.9512-1.2207C15.4883-1.2207 15.8594-1.5918 15.8594-2.12891L15.8594-6.14258L19.8828-6.14258C20.4102-6.14258 20.791-6.51367 20.791-7.03125C20.791-7.56836 20.4199-7.94922 19.8828-7.94922L15.8594-7.94922L15.8594-11.9531C15.8594-12.5098 15.4883-12.8809 14.9512-12.8809C14.4336-12.8809 14.0625-12.5 14.0625-11.9531L14.0625-7.94922L10.0586-7.94922C9.50195-7.94922 9.13086-7.56836 9.13086-7.03125C9.13086-6.51367 9.51172-6.14258 10.0586-6.14258Z"/>
  </g>
  <text style="stroke:none;fill:black;font-family:-apple-system,&quot;SF Pro Display&quot;,&quot;SF Pro Text&quot;,Helvetica,sans-serif;font-weight:bold;" transform="matrix(1 0 0 1 263 1953)">Design Variations</text>
  <text style="stroke:none;fill:black;font-family:-apple-system,&quot;SF Pro Display&quot;,&quot;SF Pro Text&quot;,Helvetica,sans-serif;" transform="matrix(1 0 0 1 263 1971)">Symbols are supported in up to nine weights and three scales.</text>
  <text style="stroke:none;fill:black;font-family:-apple-system,&quot;SF Pro Display&quot;,&quot;SF Pro Text&quot;,Helvetica,sans-serif;" transform="matrix(1 0 0 1 263 1989)">For optimal layout with text and other symbols, vertically align</text>
  <text style="stroke:none;fill:black;font-family:-apple-system,&quot;SF Pro Display&quot;,&quot;SF Pro Text&quot;,Helvetica,sans-serif;" transform="matrix(1 0 0 1 263 2007)">symbols with the adjacent text.</text>
  <line id="" style="fill:none;stroke:#00AEEF;stroke-width:0.5;opacity:1.0;" x1="776" x2="776" y1="1919" y2="1933"/>
  <g id="" transform="matrix(1 0 0 1 776 1933)">
   <path d="M3.31055 0.126953C3.82812 0.126953 4.08203-0.0683594 4.26758-0.605469L5.52734-4.0625L11.2891-4.0625L12.5488-0.605469C12.7344-0.0683594 12.9883 0.126953 13.4961 0.126953C14.0137 0.126953 14.3457-0.185547 14.3457-0.673828C14.3457-0.839844 14.3164-0.986328 14.2383-1.20117L9.6582-13.3887C9.43359-13.9941 9.0332-14.2871 8.4082-14.2871C7.80273-14.2871 7.39258-13.9941 7.17773-13.3984L2.59766-1.19141C2.51953-0.976562 2.49023-0.830078 2.49023-0.664062C2.49023-0.175781 2.80273 0.126953 3.31055 0.126953ZM6.00586-5.53711L8.37891-12.1094L8.42773-12.1094L10.8008-5.53711Z"/>
  </g>
  <line id="" style="fill:none;stroke:#00AEEF;stroke-width:0.5;opacity:1.0;" x1="792.836" x2="792.836" y1="1919" y2="1933"/>
  <text style="stroke:none;fill:black;font-family:-apple-system,&quot;SF Pro Display&quot;,&quot;SF Pro Text&quot;,Helvetica,sans-serif;font-weight:bold;" transform="matrix(1 0 0 1 776 1953)">Margins</text>
  <text style="stroke:none;fill:black;font-family:-apple-system,&quot;SF Pro Display&quot;,&quot;SF Pro Text&quot;,Helvetica,sans-serif;" transform="matrix(1 0 0 1 776 1971)">Leading and trailing margins on the left and right side of each symbol</text>
  <text style="stroke:none;fill:black;font-family:-apple-system,&quot;SF Pro Display&quot;,&quot;SF Pro Text&quot;,Helvetica,sans-serif;" transform="matrix(1 0 0 1 776 1989)">can be adjusted by modifying the x-location of the margin guidelines.</text>
  <text style="stroke:none;fill:black;font-family:-apple-system,&quot;SF Pro Display&quot;,&quot;SF Pro Text&quot;,Helvetica,sans-serif;" transform="matrix(1 0 0 1 776 2007)">Modifications are automatically applied proportionally to all</text>
  <text style="stroke:none;fill:black;font-family:-apple-system,&quot;SF Pro Display&quot;,&quot;SF Pro Text&quot;,Helvetica,sans-serif;" transform="matrix(1 0 0 1 776 2025)">scales and weights.</text>
  <g id="" transform="matrix(1 0 0 1 1289 1933)">
   <path d="M2.8418 1.86523L4.54102 3.57422C5.40039 4.44336 6.38672 4.38477 7.31445 3.35938L17.4902-7.85156C17.7539-7.76367 18.0273-7.7832 18.3398-7.8418L19.4043-8.03711L20.0684-7.36328L20.0293-6.80664C19.9902-6.30859 20.1172-5.92773 20.6055-5.44922L21.3672-4.70703C21.8457-4.22852 22.4609-4.19922 22.9297-4.66797L25.8398-7.58789C26.3086-8.05664 26.2891-8.65234 25.8105-9.13086L25.0391-9.89258C24.5605-10.3711 24.1895-10.5273 23.7109-10.4883L23.1348-10.4395L22.4902-11.0742L22.7344-12.1973C22.8613-12.7637 22.7051-13.2031 22.1191-13.7891L19.9219-15.9766C16.582-19.2969 12.1484-19.2188 9.25781-16.3281C8.83789-15.918 8.80859-15.3418 9.04297-14.9512C9.27734-14.5898 9.73633-14.3555 10.3809-14.5215C11.8457-14.8633 13.3691-14.9219 14.7949-13.9844L14.209-12.5293C14.0137-12.0508 13.9844-11.6504 14.1113-11.2891L3.04688-0.898438C2.06055 0.0195312 1.98242 0.996094 2.8418 1.86523ZM10.752-15.957C13.1836-17.7344 16.4746-17.4316 18.7012-15.2051L21.1328-12.793C21.3672-12.5586 21.4062-12.373 21.3379-12.0312L21.0156-10.5469L22.5195-9.0625L23.5059-9.12109C23.7598-9.13086 23.8379-9.11133 24.0332-8.91602L24.6094-8.33984L22.168-5.89844L21.5918-6.47461C21.3965-6.66992 21.3672-6.74805 21.377-7.01172L21.4453-7.98828L19.9512-9.47266L18.4277-9.21875C18.1055-9.15039 17.959-9.17969 17.7148-9.41406L15.7129-11.416C15.459-11.6504 15.4297-11.8164 15.5859-12.1875L16.4648-14.2773C14.9023-15.7324 12.8711-16.3574 10.8398-15.7617C10.6836-15.7227 10.625-15.8496 10.752-15.957ZM5.27344 2.30469L4.10156 1.14258C3.63281 0.683594 3.74023 0.341797 4.14062-0.0195312L14.9512-10.1953L16.416-8.71094L6.42578 2.27539C6.07422 2.67578 5.74219 2.77344 5.27344 2.30469Z"/>
  </g>
  <text style="stroke:none;fill:black;font-family:-apple-system,&quot;SF Pro Display&quot;,&quot;SF Pro Text&quot;,Helvetica,sans-serif;font-weight:bold;" transform="matrix(1 0 0 1 1289 1953)">Exporting</text>
  <text style="stroke:none;fill:black;font-family:-apple-system,&quot;SF Pro Display&quot;,&quot;SF Pro Text&quot;,Helvetica,sans-serif;" transform="matrix(1 0 0 1 1289 1971)">Symbols should be outlined when exporting to ensure the</text>
  <text style="stroke:none;fill:black;font-family:-apple-system,&quot;SF Pro Display&quot;,&quot;SF Pro Text&quot;,Helvetica,sans-serif;" transform="matrix(1 0 0 1 1289 1989)">design is preserved when submitting to Xcode.</text>
  <text id="template-version" style="stroke:none;fill:black;font-family:-apple-system,&quot;SF Pro Display&quot;,&quot;SF Pro Text&quot;,Helvetica,sans-serif;text-anchor:end;" transform="matrix(1 0 0 1 3036 1933)">Template v.2.0</text>
  <text style="stroke:none;fill:black;font-family:-apple-system,&quot;SF Pro Display&quot;,&quot;SF Pro Text&quot;,Helvetica,sans-serif;text-anchor:end;" transform="matrix(1 0 0 1 3036 1951)">Requires Xcode 12 or greater</text>
  <text style="stroke:none;fill:black;font-family:-apple-system,&quot;SF Pro Display&quot;,&quot;SF Pro Text&quot;,Helvetica,sans-serif;" transform="matrix(1 0 0 1 263 726)">Small</text>
  <text style="stroke:none;fill:black;font-family:-apple-system,&quot;SF Pro Display&quot;,&quot;SF Pro Text&quot;,Helvetica,sans-serif;" transform="matrix(1 0 0 1 263 1156)">Medium</text>
  <text style="stroke:none;fill:black;font-family:-apple-system,&quot;SF Pro Display&quot;,&quot;SF Pro Text&quot;,Helvetica,sans-serif;" transform="matrix(1 0 0 1 263 1586)">Large</text>
 </g>
 <g id="Guides">
  <g id="H-reference" style="fill:#27AAE1;stroke:none;" transform="matrix(1 0 0 1 339 696)">
   <path d="M0.976562 0L3.66211 0L12.9883-24.4629L45.752-24.4629L55.127 0L57.7637 0L30.6152-70.459L28.125-70.459ZM29.3457-67.1387L29.4434-67.1387L44.873-26.709L13.8672-26.709Z"/>
  </g>
  <line id="Baseline-S" style="fill:none;stroke:#27AAE1;opacity:1;stroke-width:0.5;" x1="263" x2="3036" y1="696" y2="696"/>
  <line id="Capline-S" style="fill:none;stroke:#27AAE1;opacity:1;stroke-width:0.5;" x1="263" x2="3036" y1="625.541" y2="625.541"/>
  <g id="H-reference" style="fill:#27AAE1;stroke:none;" transform="matrix(1 0 0 1 339 1126)">
   <path d="M0.976562 0L3.66211 0L12.9883-24.4629L45.752-24.4629L55.127 0L57.7637 0L30.6152-70.459L28.125-70.459ZM29.3457-67.1387L29.4434-67.1387L44.873-26.709L13.8672-26.709Z"/>
  </g>
  <line id="Baseline-M" style="fill:none;stroke:#27AAE1;opacity:1;stroke-width:0.5;" x1="263" x2="3036" y1="1126" y2="1126"/>
  <line id="Capline-M" style="fill:none;stroke:#27AAE1;opacity:1;stroke-width:0.5;" x1="263" x2="3036" y1="1055.54" y2="1055.54"/>
  <g id="H-reference" style="fill:#27AAE1;stroke:none;" transform="matrix(1 0 0 1 339 1556)">
   <path d="M0.976562 0L3.66211 0L12.9883-24.4629L45.752-24.4629L55.127 0L57.7637 0L30.6152-70.459L28.125-70.459ZM29.3457-67.1387L29.4434-67.1387L44.873-26.709L13.8672-26.709Z"/>
  </g>
  <line id="Baseline-L" style="fill:none;stroke:#27AAE1;opacity:1;stroke-width:0.5;" x1="263" x2="3036" y1="1556" y2="1556"/>
  <line id="Capline-L" style="fill:none;stroke:#27AAE1;opacity:1;stroke-width:0.5;" x1="263" x2="3036" y1="1485.54" y2="1485.54"/>
  <line id="left-margin" x1="1413.935522479089" x2="1413.935522479089" y1="1030.79" y2="1150.12" style="fill:none;stroke:#00AEEF;stroke-width:0.5;opacity:1.0;"/>
  <line id="right-margin" x1="1487.8006116403344" x2="1487.8006116403344" y1="1030.79" y2="1150.12" style="fill:none;stroke:#00AEEF;stroke-width:0.5;opacity:1.0;"/>
 </g>
 <g id="Symbols">
  <g id="Black-L" transform="matrix(1.0,0.0,0.0,1.0,2850.2066267570863,1436.2966462883364)">  <path fill-opacity="1" fill="#000000" stroke-opacity="1" xml:space="preserve" stroke-linejoin="round" stroke="none" stroke-dasharray="none" fill-rule="evenodd" stroke-miterlimit="2" stroke-width="1px" stroke-linecap="butt" xmlns:xlink="http://www.w3.org/1999/xlink" version="1.1" clip-rule="evenodd" xmlns:serif="http://www.serif.com/" d="M137.156,98.227C142.352,93.204,155.267,82.932,159.372,86.87L156.733,146.676C156.733,146.676,89.315,168.211,19.463,142.584C19.463,142.584,3.416,140.47,12.204,126.613C12.204,126.613,10.717,66.779,70.807,14.422C70.807,14.422,82.525,9.62,111.46,26.829C113.836,30.292,119.417,51.071,96.979,55.318C96.34,55.439,90.314,55.556,89.94,54.603C86.873,46.801,72.248,40.162,70.411,58.375C69.948,62.973,62.958,69.146,59.352,76.916C59.152,77.346,58.17,78.702,57.852,78.986C52.071,84.148,44.108,98.682,42.93,106.826C41.976,113.419,53.577,119.407,53.604,110.587C53.615,106.778,64.397,85.259,70.411,84.473C87.764,78.884,117.529,81.208,125.082,95.851C127.201,108.146,122.256,115.057,119.775,117.714C113.583,124.347,126.09,127.18,128.877,124.37C131.321,121.905,138.447,109.995,137.156,98.227ZM137.156,98.227"/>
</g>
  <g id="Heavy-L" transform="matrix(1.0,0.0,0.0,1.0,2553.4966267570862,1436.2966462883364)">  <path stroke-width="1px" clip-rule="evenodd" xmlns:xlink="http://www.w3.org/1999/xlink" stroke-linecap="butt" fill="#000000" fill-opacity="1" stroke-dasharray="none" xmlns:serif="http://www.serif.com/" xml:space="preserve" stroke-opacity="1" fill-rule="evenodd" stroke-linejoin="round" version="1.1" stroke="none" stroke-miterlimit="2" d="M137.156,98.227C142.352,93.204,155.267,82.932,159.372,86.87L156.733,146.676C156.733,146.676,89.315,168.211,19.463,142.584C19.463,142.584,3.416,140.47,12.204,126.613C12.204,126.613,10.717,66.779,70.807,14.422C70.807,14.422,82.525,9.62,111.46,26.829C113.836,30.292,119.417,51.071,96.979,55.318C96.34,55.439,90.314,55.556,89.94,54.603C86.873,46.801,72.248,40.162,70.411,58.375C69.948,62.973,62.958,69.146,59.352,76.916C59.152,77.346,58.17,78.702,57.852,78.986C52.071,84.148,44.108,98.682,42.93,106.826C41.976,113.419,53.577,119.407,53.604,110.587C53.615,106.778,64.397,85.259,70.411,84.473C87.764,78.884,117.529,81.208,125.082,95.851C127.201,108.146,122.256,115.057,119.775,117.714C113.583,124.347,126.09,127.18,128.877,124.37C131.321,121.905,138.447,109.995,137.156,98.227ZM137.156,98.227"/>
</g>
  <g id="Bold-L" transform="matrix(1.0,0.0,0.0,1.0,2256.786626757086,1436.2966462883364)">  <path xml:space="preserve" stroke-opacity="1" fill="#000000" xmlns:serif="http://www.serif.com/" stroke-miterlimit="2" clip-rule="evenodd" fill-rule="evenodd" stroke-dasharray="none" fill-opacity="1" version="1.1" stroke="none" stroke-width="1px" xmlns:xlink="http://www.w3.org/1999/xlink" stroke-linejoin="round" stroke-linecap="butt" d="M137.156,98.227C142.352,93.204,155.267,82.932,159.372,86.87L156.733,146.676C156.733,146.676,89.315,168.211,19.463,142.584C19.463,142.584,3.416,140.47,12.204,126.613C12.204,126.613,10.717,66.779,70.807,14.422C70.807,14.422,82.525,9.62,111.46,26.829C113.836,30.292,119.417,51.071,96.979,55.318C96.34,55.439,90.314,55.556,89.94,54.603C86.873,46.801,72.248,40.162,70.411,58.375C69.948,62.973,62.958,69.146,59.352,76.916C59.152,77.346,58.17,78.702,57.852,78.986C52.071,84.148,44.108,98.682,42.93,106.826C41.976,113.419,53.577,119.407,53.604,110.587C53.615,106.778,64.397,85.259,70.411,84.473C87.764,78.884,117.529,81.208,125.082,95.851C127.201,108.146,122.256,115.057,119.775,117.714C113.583,124.347,126.09,127.18,128.877,124.37C131.321,121.905,138.447,109.995,137.156,98.227ZM137.156,98.227"/>
</g>
  <g id="Semibold-L" transform="matrix(1.0,0.0,0.0,1.0,1960.0766267570864,1436.2966462883364)">  <path stroke-width="1px" xmlns:serif="http://www.serif.com/" fill="#000000" stroke-linejoin="round" stroke="none" stroke-miterlimit="2" fill-rule="evenodd" fill-opacity="1" stroke-opacity="1" xml:space="preserve" stroke-linecap="butt" version="1.1" clip-rule="evenodd" xmlns:xlink="http://www.w3.org/1999/xlink" stroke-dasharray="none" d="M137.156,98.227C142.352,93.204,155.267,82.932,159.372,86.87L156.733,146.676C156.733,146.676,89.315,168.211,19.463,142.584C19.463,142.584,3.416,140.47,12.204,126.613C12.204,126.613,10.717,66.779,70.807,14.422C70.807,14.422,82.525,9.62,111.46,26.829C113.836,30.292,119.417,51.071,96.979,55.318C96.34,55.439,90.314,55.556,89.94,54.603C86.873,46.801,72.248,40.162,70.411,58.375C69.948,62.973,62.958,69.146,59.352,76.916C59.152,77.346,58.17,78.702,57.852,78.986C52.071,84.148,44.108,98.682,42.93,106.826C41.976,113.419,53.577,119.407,53.604,110.587C53.615,106.778,64.397,85.259,70.411,84.473C87.764,78.884,117.529,81.208,125.082,95.851C127.201,108.146,122.256,115.057,119.775,117.714C113.583,124.347,126.09,127.18,128.877,124.37C131.321,121.905,138.447,109.995,137.156,98.227ZM137.156,98.227"/>
</g>
  <g id="Medium-L" transform="matrix(1.0,0.0,0.0,1.0,1663.3666267570864,1436.2966462883364)">  <path stroke-dasharray="none" version="1.1" xmlns:xlink="http://www.w3.org/1999/xlink" xml:space="preserve" stroke="none" stroke-linejoin="round" stroke-linecap="butt" fill-opacity="1" xmlns:serif="http://www.serif.com/" stroke-opacity="1" fill-rule="evenodd" stroke-miterlimit="2" fill="#000000" stroke-width="1px" clip-rule="evenodd" d="M137.156,98.227C142.352,93.204,155.267,82.932,159.372,86.87L156.733,146.676C156.733,146.676,89.315,168.211,19.463,142.584C19.463,142.584,3.416,140.47,12.204,126.613C12.204,126.613,10.717,66.779,70.807,14.422C70.807,14.422,82.525,9.62,111.46,26.829C113.836,30.292,119.417,51.071,96.979,55.318C96.34,55.439,90.314,55.556,89.94,54.603C86.873,46.801,72.248,40.162,70.411,58.375C69.948,62.973,62.958,69.146,59.352,76.916C59.152,77.346,58.17,78.702,57.852,78.986C52.071,84.148,44.108,98.682,42.93,106.826C41.976,113.419,53.577,119.407,53.604,110.587C53.615,106.778,64.397,85.259,70.411,84.473C87.764,78.884,117.529,81.208,125.082,95.851C127.201,108.146,122.256,115.057,119.775,117.714C113.583,124.347,126.09,127.18,128.877,124.37C131.321,121.905,138.447,109.995,137.156,98.227ZM137.156,98.227"/>
</g>
  <g id="Regular-L" transform="matrix(1.0,0.0,0.0,1.0,1366.6566267570863,1436.2966462883364)">  <path xmlns:serif="http://www.serif.com/" xml:space="preserve" fill="#000000" stroke-opacity="1" version="1.1" stroke-dasharray="none" fill-opacity="1" stroke-width="1px" stroke="none" xmlns:xlink="http://www.w3.org/1999/xlink" clip-rule="evenodd" stroke-linecap="butt" fill-rule="evenodd" stroke-linejoin="round" stroke-miterlimit="2" d="M137.156,98.227C142.352,93.204,155.267,82.932,159.372,86.87L156.733,146.676C156.733,146.676,89.315,168.211,19.463,142.584C19.463,142.584,3.416,140.47,12.204,126.613C12.204,126.613,10.717,66.779,70.807,14.422C70.807,14.422,82.525,9.62,111.46,26.829C113.836,30.292,119.417,51.071,96.979,55.318C96.34,55.439,90.314,55.556,89.94,54.603C86.873,46.801,72.248,40.162,70.411,58.375C69.948,62.973,62.958,69.146,59.352,76.916C59.152,77.346,58.17,78.702,57.852,78.986C52.071,84.148,44.108,98.682,42.93,106.826C41.976,113.419,53.577,119.407,53.604,110.587C53.615,106.778,64.397,85.259,70.411,84.473C87.764,78.884,117.529,81.208,125.082,95.851C127.201,108.146,122.256,115.057,119.775,117.714C113.583,124.347,126.09,127.18,128.877,124.37C131.321,121.905,138.447,109.995,137.156,98.227ZM137.156,98.227"/>
</g>
  <g id="Light-L" transform="matrix(1.0,0.0,0.0,1.0,1069.9466267570865,1436.2966462883364)">  <path clip-rule="evenodd" stroke-width="1px" xmlns:xlink="http://www.w3.org/1999/xlink" stroke-linecap="butt" stroke-dasharray="none" fill="#000000" stroke-opacity="1" xmlns:serif="http://www.serif.com/" stroke-linejoin="round" version="1.1" stroke="none" fill-rule="evenodd" xml:space="preserve" stroke-miterlimit="2" fill-opacity="1" d="M137.156,98.227C142.352,93.204,155.267,82.932,159.372,86.87L156.733,146.676C156.733,146.676,89.315,168.211,19.463,142.584C19.463,142.584,3.416,140.47,12.204,126.613C12.204,126.613,10.717,66.779,70.807,14.422C70.807,14.422,82.525,9.62,111.46,26.829C113.836,30.292,119.417,51.071,96.979,55.318C96.34,55.439,90.314,55.556,89.94,54.603C86.873,46.801,72.248,40.162,70.411,58.375C69.948,62.973,62.958,69.146,59.352,76.916C59.152,77.346,58.17,78.702,57.852,78.986C52.071,84.148,44.108,98.682,42.93,106.826C41.976,113.419,53.577,119.407,53.604,110.587C53.615,106.778,64.397,85.259,70.411,84.473C87.764,78.884,117.529,81.208,125.082,95.851C127.201,108.146,122.256,115.057,119.775,117.714C113.583,124.347,126.09,127.18,128.877,124.37C131.321,121.905,138.447,109.995,137.156,98.227ZM137.156,98.227"/>
</g>
  <g id="Thin-L" transform="matrix(1.0,0.0,0.0,1.0,773.2366267570865,1436.2966462883364)">  <path fill-opacity="1" fill-rule="evenodd" xmlns:serif="http://www.serif.com/" stroke-opacity="1" stroke-dasharray="none" stroke-miterlimit="2" xml:space="preserve" stroke="none" stroke-width="1px" fill="#000000" clip-rule="evenodd" stroke-linejoin="round" xmlns:xlink="http://www.w3.org/1999/xlink" stroke-linecap="butt" version="1.1" d="M137.156,98.227C142.352,93.204,155.267,82.932,159.372,86.87L156.733,146.676C156.733,146.676,89.315,168.211,19.463,142.584C19.463,142.584,3.416,140.47,12.204,126.613C12.204,126.613,10.717,66.779,70.807,14.422C70.807,14.422,82.525,9.62,111.46,26.829C113.836,30.292,119.417,51.071,96.979,55.318C96.34,55.439,90.314,55.556,89.94,54.603C86.873,46.801,72.248,40.162,70.411,58.375C69.948,62.973,62.958,69.146,59.352,76.916C59.152,77.346,58.17,78.702,57.852,78.986C52.071,84.148,44.108,98.682,42.93,106.826C41.976,113.419,53.577,119.407,53.604,110.587C53.615,106.778,64.397,85.259,70.411,84.473C87.764,78.884,117.529,81.208,125.082,95.851C127.201,108.146,122.256,115.057,119.775,117.714C113.583,124.347,126.09,127.18,128.877,124.37C131.321,121.905,138.447,109.995,137.156,98.227ZM137.156,98.227"/>
</g>
  <g id="Ultralight-L" transform="matrix(1.0,0.0,0.0,1.0,476.52662675708643,1436.2966462883364)">  <path clip-rule="evenodd" stroke="none" stroke-linejoin="round" version="1.1" fill-opacity="1" fill="#000000" xmlns:serif="http://www.serif.com/" xmlns:xlink="http://www.w3.org/1999/xlink" fill-rule="evenodd" stroke-opacity="1" stroke-width="1px" stroke-linecap="butt" xml:space="preserve" stroke-dasharray="none" stroke-miterlimit="2" d="M137.156,98.227C142.352,93.204,155.267,82.932,159.372,86.87L156.733,146.676C156.733,146.676,89.315,168.211,19.463,142.584C19.463,142.584,3.416,140.47,12.204,126.613C12.204,126.613,10.717,66.779,70.807,14.422C70.807,14.422,82.525,9.62,111.46,26.829C113.836,30.292,119.417,51.071,96.979,55.318C96.34,55.439,90.314,55.556,89.94,54.603C86.873,46.801,72.248,40.162,70.411,58.375C69.948,62.973,62.958,69.146,59.352,76.916C59.152,77.346,58.17,78.702,57.852,78.986C52.071,84.148,44.108,98.682,42.93,106.826C41.976,113.419,53.577,119.407,53.604,110.587C53.615,106.778,64.397,85.259,70.411,84.473C87.764,78.884,117.529,81.208,125.082,95.851C127.201,108.146,122.256,115.057,119.775,117.714C113.583,124.347,126.09,127.18,128.877,124.37C131.321,121.905,138.447,109.995,137.156,98.227ZM137.156,98.227"/>
</g>
  <g id="Black-M" transform="matrix(1.0,0.0,0.0,1.0,2869.1967649279736,1025.286784459224)">  <path fill-opacity="1" fill="#000000" stroke-opacity="1" xml:space="preserve" stroke-linejoin="round" stroke="none" stroke-dasharray="none" fill-rule="evenodd" stroke-miterlimit="2" stroke-width="1px" stroke-linecap="butt" xmlns:xlink="http://www.w3.org/1999/xlink" version="1.1" clip-rule="evenodd" xmlns:serif="http://www.serif.com/" d="M106.322,76.145C110.351,72.251,120.362,64.288,123.544,67.341L121.498,113.702C121.498,113.702,69.236,130.396,15.088,110.53C15.088,110.53,2.648,108.891,9.46,98.15C9.46,98.15,8.307,51.767,54.889,11.18C54.889,11.18,63.973,7.457,86.403,20.798C88.245,23.482,92.572,39.59,75.178,42.882C74.682,42.976,70.011,43.066,69.721,42.328C67.343,36.28,56.006,31.133,54.582,45.252C54.223,48.816,48.804,53.602,46.009,59.625C45.854,59.959,45.093,61.009,44.847,61.23C40.365,65.231,34.192,76.498,33.279,82.811C32.54,87.922,41.532,92.564,41.553,85.726C41.562,82.774,49.92,66.092,54.582,65.483C68.034,61.15,91.108,62.952,96.963,74.303C98.606,83.834,94.772,89.191,92.849,91.251C88.049,96.393,97.744,98.589,99.904,96.411C101.799,94.5,107.323,85.268,106.322,76.145ZM106.322,76.145"/>
</g>
  <g id="Heavy-M" transform="matrix(1.0,0.0,0.0,1.0,2572.4867649279736,1025.286784459224)">  <path stroke-width="1px" clip-rule="evenodd" xmlns:xlink="http://www.w3.org/1999/xlink" stroke-linecap="butt" fill="#000000" fill-opacity="1" stroke-dasharray="none" xmlns:serif="http://www.serif.com/" xml:space="preserve" stroke-opacity="1" fill-rule="evenodd" stroke-linejoin="round" version="1.1" stroke="none" stroke-miterlimit="2" d="M106.322,76.145C110.351,72.251,120.362,64.288,123.544,67.341L121.498,113.702C121.498,113.702,69.236,130.396,15.088,110.53C15.088,110.53,2.648,108.891,9.46,98.15C9.46,98.15,8.307,51.767,54.889,11.18C54.889,11.18,63.973,7.457,86.403,20.798C88.245,23.482,92.572,39.59,75.178,42.882C74.682,42.976,70.011,43.066,69.721,42.328C67.343,36.28,56.006,31.133,54.582,45.252C54.223,48.816,48.804,53.602,46.009,59.625C45.854,59.959,45.093,61.009,44.847,61.23C40.365,65.231,34.192,76.498,33.279,82.811C32.54,87.922,41.532,92.564,41.553,85.726C41.562,82.774,49.92,66.092,54.582,65.483C68.034,61.15,91.108,62.952,96.963,74.303C98.606,83.834,94.772,89.191,92.849,91.251C88.049,96.393,97.744,98.589,99.904,96.411C101.799,94.5,107.323,85.268,106.322,76.145ZM106.322,76.145"/>
</g>
  <g id="Bold-M" transform="matrix(1.0,0.0,0.0,1.0,2275.7767649279735,1025.286784459224)">  <path xml:space="preserve" stroke-opacity="1" fill="#000000" xmlns:serif="http://www.serif.com/" stroke-miterlimit="2" clip-rule="evenodd" fill-rule="evenodd" stroke-dasharray="none" fill-opacity="1" version="1.1" stroke="none" stroke-width="1px" xmlns:xlink="http://www.w3.org/1999/xlink" stroke-linejoin="round" stroke-linecap="butt" d="M106.322,76.145C110.351,72.251,120.362,64.288,123.544,67.341L121.498,113.702C121.498,113.702,69.236,130.396,15.088,110.53C15.088,110.53,2.648,108.891,9.46,98.15C9.46,98.15,8.307,51.767,54.889,11.18C54.889,11.18,63.973,7.457,86.403,20.798C88.245,23.482,92.572,39.59,75.178,42.882C74.682,42.976,70.011,43.066,69.721,42.328C67.343,36.28,56.006,31.133,54.582,45.252C54.223,48.816,48.804,53.602,46.009,59.625C45.854,59.959,45.093,61.009,44.847,61.23C40.365,65.231,34.192,76.498,33.279,82.811C32.54,87.922,41.532,92.564,41.553,85.726C41.562,82.774,49.92,66.092,54.582,65.483C68.034,61.15,91.108,62.952,96.963,74.303C98.606,83.834,94.772,89.191,92.849,91.251C88.049,96.393,97.744,98.589,99.904,96.411C101.799,94.5,107.323,85.268,106.322,76.145ZM106.322,76.145"/>
</g>
  <g id="Semibold-M" transform="matrix(1.0,0.0,0.0,1.0,1979.066764927974,1025.286784459224)">  <path stroke-width="1px" xmlns:serif="http://www.serif.com/" fill="#000000" stroke-linejoin="round" stroke="none" stroke-miterlimit="2" fill-rule="evenodd" fill-opacity="1" stroke-opacity="1" xml:space="preserve" stroke-linecap="butt" version="1.1" clip-rule="evenodd" xmlns:xlink="http://www.w3.org/1999/xlink" stroke-dasharray="none" d="M106.322,76.145C110.351,72.251,120.362,64.288,123.544,67.341L121.498,113.702C121.498,113.702,69.236,130.396,15.088,110.53C15.088,110.53,2.648,108.891,9.46,98.15C9.46,98.15,8.307,51.767,54.889,11.18C54.889,11.18,63.973,7.457,86.403,20.798C88.245,23.482,92.572,39.59,75.178,42.882C74.682,42.976,70.011,43.066,69.721,42.328C67.343,36.28,56.006,31.133,54.582,45.252C54.223,48.816,48.804,53.602,46.009,59.625C45.854,59.959,45.093,61.009,44.847,61.23C40.365,65.231,34.192,76.498,33.279,82.811C32.54,87.922,41.532,92.564,41.553,85.726C41.562,82.774,49.92,66.092,54.582,65.483C68.034,61.15,91.108,62.952,96.963,74.303C98.606,83.834,94.772,89.191,92.849,91.251C88.049,96.393,97.744,98.589,99.904,96.411C101.799,94.5,107.323,85.268,106.322,76.145ZM106.322,76.145"/>
</g>
  <g id="Medium-M" transform="matrix(1.0,0.0,0.0,1.0,1682.356764927974,1025.286784459224)">  <path stroke-dasharray="none" version="1.1" xmlns:xlink="http://www.w3.org/1999/xlink" xml:space="preserve" stroke="none" stroke-linejoin="round" stroke-linecap="butt" fill-opacity="1" xmlns:serif="http://www.serif.com/" stroke-opacity="1" fill-rule="evenodd" stroke-miterlimit="2" fill="#000000" stroke-width="1px" clip-rule="evenodd" d="M106.322,76.145C110.351,72.251,120.362,64.288,123.544,67.341L121.498,113.702C121.498,113.702,69.236,130.396,15.088,110.53C15.088,110.53,2.648,108.891,9.46,98.15C9.46,98.15,8.307,51.767,54.889,11.18C54.889,11.18,63.973,7.457,86.403,20.798C88.245,23.482,92.572,39.59,75.178,42.882C74.682,42.976,70.011,43.066,69.721,42.328C67.343,36.28,56.006,31.133,54.582,45.252C54.223,48.816,48.804,53.602,46.009,59.625C45.854,59.959,45.093,61.009,44.847,61.23C40.365,65.231,34.192,76.498,33.279,82.811C32.54,87.922,41.532,92.564,41.553,85.726C41.562,82.774,49.92,66.092,54.582,65.483C68.034,61.15,91.108,62.952,96.963,74.303C98.606,83.834,94.772,89.191,92.849,91.251C88.049,96.393,97.744,98.589,99.904,96.411C101.799,94.5,107.323,85.268,106.322,76.145ZM106.322,76.145"/>
</g>
  <g id="Regular-M" transform="matrix(1.0,0.0,0.0,1.0,1385.646764927974,1025.286784459224)">  <path xmlns:serif="http://www.serif.com/" xml:space="preserve" fill="#000000" stroke-opacity="1" version="1.1" stroke-dasharray="none" fill-opacity="1" stroke-width="1px" stroke="none" xmlns:xlink="http://www.w3.org/1999/xlink" clip-rule="evenodd" stroke-linecap="butt" fill-rule="evenodd" stroke-linejoin="round" stroke-miterlimit="2" d="M106.322,76.145C110.351,72.251,120.362,64.288,123.544,67.341L121.498,113.702C121.498,113.702,69.236,130.396,15.088,110.53C15.088,110.53,2.648,108.891,9.46,98.15C9.46,98.15,8.307,51.767,54.889,11.18C54.889,11.18,63.973,7.457,86.403,20.798C88.245,23.482,92.572,39.59,75.178,42.882C74.682,42.976,70.011,43.066,69.721,42.328C67.343,36.28,56.006,31.133,54.582,45.252C54.223,48.816,48.804,53.602,46.009,59.625C45.854,59.959,45.093,61.009,44.847,61.23C40.365,65.231,34.192,76.498,33.279,82.811C32.54,87.922,41.532,92.564,41.553,85.726C41.562,82.774,49.92,66.092,54.582,65.483C68.034,61.15,91.108,62.952,96.963,74.303C98.606,83.834,94.772,89.191,92.849,91.251C88.049,96.393,97.744,98.589,99.904,96.411C101.799,94.5,107.323,85.268,106.322,76.145ZM106.322,76.145"/>
</g>
  <g id="Light-M" transform="matrix(1.0,0.0,0.0,1.0,1088.936764927974,1025.286784459224)">  <path clip-rule="evenodd" stroke-width="1px" xmlns:xlink="http://www.w3.org/1999/xlink" stroke-linecap="butt" stroke-dasharray="none" fill="#000000" stroke-opacity="1" xmlns:serif="http://www.serif.com/" stroke-linejoin="round" version="1.1" stroke="none" fill-rule="evenodd" xml:space="preserve" stroke-miterlimit="2" fill-opacity="1" d="M106.322,76.145C110.351,72.251,120.362,64.288,123.544,67.341L121.498,113.702C121.498,113.702,69.236,130.396,15.088,110.53C15.088,110.53,2.648,108.891,9.46,98.15C9.46,98.15,8.307,51.767,54.889,11.18C54.889,11.18,63.973,7.457,86.403,20.798C88.245,23.482,92.572,39.59,75.178,42.882C74.682,42.976,70.011,43.066,69.721,42.328C67.343,36.28,56.006,31.133,54.582,45.252C54.223,48.816,48.804,53.602,46.009,59.625C45.854,59.959,45.093,61.009,44.847,61.23C40.365,65.231,34.192,76.498,33.279,82.811C32.54,87.922,41.532,92.564,41.553,85.726C41.562,82.774,49.92,66.092,54.582,65.483C68.034,61.15,91.108,62.952,96.963,74.303C98.606,83.834,94.772,89.191,92.849,91.251C88.049,96.393,97.744,98.589,99.904,96.411C101.799,94.5,107.323,85.268,106.322,76.145ZM106.322,76.145"/>
</g>
  <g id="Thin-M" transform="matrix(1.0,0.0,0.0,1.0,792.226764927974,1025.286784459224)">  <path fill-opacity="1" fill-rule="evenodd" xmlns:serif="http://www.serif.com/" stroke-opacity="1" stroke-dasharray="none" stroke-miterlimit="2" xml:space="preserve" stroke="none" stroke-width="1px" fill="#000000" clip-rule="evenodd" stroke-linejoin="round" xmlns:xlink="http://www.w3.org/1999/xlink" stroke-linecap="butt" version="1.1" d="M106.322,76.145C110.351,72.251,120.362,64.288,123.544,67.341L121.498,113.702C121.498,113.702,69.236,130.396,15.088,110.53C15.088,110.53,2.648,108.891,9.46,98.15C9.46,98.15,8.307,51.767,54.889,11.18C54.889,11.18,63.973,7.457,86.403,20.798C88.245,23.482,92.572,39.59,75.178,42.882C74.682,42.976,70.011,43.066,69.721,42.328C67.343,36.28,56.006,31.133,54.582,45.252C54.223,48.816,48.804,53.602,46.009,59.625C45.854,59.959,45.093,61.009,44.847,61.23C40.365,65.231,34.192,76.498,33.279,82.811C32.54,87.922,41.532,92.564,41.553,85.726C41.562,82.774,49.92,66.092,54.582,65.483C68.034,61.15,91.108,62.952,96.963,74.303C98.606,83.834,94.772,89.191,92.849,91.251C88.049,96.393,97.744,98.589,99.904,96.411C101.799,94.5,107.323,85.268,106.322,76.145ZM106.322,76.145"/>
</g>
  <g id="Ultralight-M" transform="matrix(1.0,0.0,0.0,1.0,495.516764927974,1025.286784459224)">  <path clip-rule="evenodd" stroke="none" stroke-linejoin="round" version="1.1" fill-opacity="1" fill="#000000" xmlns:serif="http://www.serif.com/" xmlns:xlink="http://www.w3.org/1999/xlink" fill-rule="evenodd" stroke-opacity="1" stroke-width="1px" stroke-linecap="butt" xml:space="preserve" stroke-dasharray="none" stroke-miterlimit="2" d="M106.322,76.145C110.351,72.251,120.362,64.288,123.544,67.341L121.498,113.702C121.498,113.702,69.236,130.396,15.088,110.53C15.088,110.53,2.648,108.891,9.46,98.15C9.46,98.15,8.307,51.767,54.889,11.18C54.889,11.18,63.973,7.457,86.403,20.798C88.245,23.482,92.572,39.59,75.178,42.882C74.682,42.976,70.011,43.066,69.721,42.328C67.343,36.28,56.006,31.133,54.582,45.252C54.223,48.816,48.804,53.602,46.009,59.625C45.854,59.959,45.093,61.009,44.847,61.23C40.365,65.231,34.192,76.498,33.279,82.811C32.54,87.922,41.532,92.564,41.553,85.726C41.562,82.774,49.92,66.092,54.582,65.483C68.034,61.15,91.108,62.952,96.963,74.303C98.606,83.834,94.772,89.191,92.849,91.251C88.049,96.393,97.744,98.589,99.904,96.411C101.799,94.5,107.323,85.268,106.322,76.145ZM106.322,76.145"/>
</g>
  <g id="Black-S" transform="matrix(1.0,0.0,0.0,1.0,2883.4066269386035,609.4966464698537)">  <path fill-opacity="1" fill="#000000" stroke-opacity="1" xml:space="preserve" stroke-linejoin="round" stroke="none" stroke-dasharray="none" fill-rule="evenodd" stroke-miterlimit="2" stroke-width="1px" stroke-linecap="butt" xmlns:xlink="http://www.w3.org/1999/xlink" version="1.1" clip-rule="evenodd" xmlns:serif="http://www.serif.com/" d="M83.25,59.621C86.405,56.573,94.243,50.338,96.735,52.728L95.133,89.029C95.133,89.029,54.212,102.1,11.814,86.545C11.814,86.545,2.073,85.262,7.407,76.851C7.407,76.851,6.505,40.533,42.978,8.754C42.978,8.754,50.091,5.839,67.654,16.285C69.096,18.387,72.483,30.999,58.864,33.577C58.476,33.65,54.819,33.721,54.591,33.143C52.73,28.407,43.853,24.377,42.738,35.432C42.457,38.223,38.214,41.97,36.025,46.686C35.904,46.948,35.308,47.77,35.115,47.943C31.606,51.076,26.773,59.898,26.058,64.841C25.479,68.843,32.52,72.477,32.536,67.123C32.543,64.812,39.088,51.75,42.738,51.273C53.271,47.881,71.337,49.291,75.922,58.179C77.208,65.642,74.207,69.837,72.701,71.45C68.942,75.475,76.533,77.195,78.225,75.489C79.709,73.993,84.034,66.765,83.25,59.621ZM83.25,59.621"/>
</g>
  <g id="Heavy-S" transform="matrix(1.0,0.0,0.0,1.0,2586.6966269386035,609.4966464698537)">  <path stroke-width="1px" clip-rule="evenodd" xmlns:xlink="http://www.w3.org/1999/xlink" stroke-linecap="butt" fill="#000000" fill-opacity="1" stroke-dasharray="none" xmlns:serif="http://www.serif.com/" xml:space="preserve" stroke-opacity="1" fill-rule="evenodd" stroke-linejoin="round" version="1.1" stroke="none" stroke-miterlimit="2" d="M83.25,59.621C86.405,56.573,94.243,50.338,96.735,52.728L95.133,89.029C95.133,89.029,54.212,102.1,11.814,86.545C11.814,86.545,2.073,85.262,7.407,76.851C7.407,76.851,6.505,40.533,42.978,8.754C42.978,8.754,50.091,5.839,67.654,16.285C69.096,18.387,72.483,30.999,58.864,33.577C58.476,33.65,54.819,33.721,54.591,33.143C52.73,28.407,43.853,24.377,42.738,35.432C42.457,38.223,38.214,41.97,36.025,46.686C35.904,46.948,35.308,47.77,35.115,47.943C31.606,51.076,26.773,59.898,26.058,64.841C25.479,68.843,32.52,72.477,32.536,67.123C32.543,64.812,39.088,51.75,42.738,51.273C53.271,47.881,71.337,49.291,75.922,58.179C77.208,65.642,74.207,69.837,72.701,71.45C68.942,75.475,76.533,77.195,78.225,75.489C79.709,73.993,84.034,66.765,83.25,59.621ZM83.25,59.621"/>
</g>
  <g id="Bold-S" transform="matrix(1.0,0.0,0.0,1.0,2289.9866269386034,609.4966464698537)">  <path xml:space="preserve" stroke-opacity="1" fill="#000000" xmlns:serif="http://www.serif.com/" stroke-miterlimit="2" clip-rule="evenodd" fill-rule="evenodd" stroke-dasharray="none" fill-opacity="1" version="1.1" stroke="none" stroke-width="1px" xmlns:xlink="http://www.w3.org/1999/xlink" stroke-linejoin="round" stroke-linecap="butt" d="M83.25,59.621C86.405,56.573,94.243,50.338,96.735,52.728L95.133,89.029C95.133,89.029,54.212,102.1,11.814,86.545C11.814,86.545,2.073,85.262,7.407,76.851C7.407,76.851,6.505,40.533,42.978,8.754C42.978,8.754,50.091,5.839,67.654,16.285C69.096,18.387,72.483,30.999,58.864,33.577C58.476,33.65,54.819,33.721,54.591,33.143C52.73,28.407,43.853,24.377,42.738,35.432C42.457,38.223,38.214,41.97,36.025,46.686C35.904,46.948,35.308,47.77,35.115,47.943C31.606,51.076,26.773,59.898,26.058,64.841C25.479,68.843,32.52,72.477,32.536,67.123C32.543,64.812,39.088,51.75,42.738,51.273C53.271,47.881,71.337,49.291,75.922,58.179C77.208,65.642,74.207,69.837,72.701,71.45C68.942,75.475,76.533,77.195,78.225,75.489C79.709,73.993,84.034,66.765,83.25,59.621ZM83.25,59.621"/>
</g>
  <g id="Semibold-S" transform="matrix(1.0,0.0,0.0,1.0,1993.2766269386036,609.4966464698537)">  <path stroke-width="1px" xmlns:serif="http://www.serif.com/" fill="#000000" stroke-linejoin="round" stroke="none" stroke-miterlimit="2" fill-rule="evenodd" fill-opacity="1" stroke-opacity="1" xml:space="preserve" stroke-linecap="butt" version="1.1" clip-rule="evenodd" xmlns:xlink="http://www.w3.org/1999/xlink" stroke-dasharray="none" d="M83.25,59.621C86.405,56.573,94.243,50.338,96.735,52.728L95.133,89.029C95.133,89.029,54.212,102.1,11.814,86.545C11.814,86.545,2.073,85.262,7.407,76.851C7.407,76.851,6.505,40.533,42.978,8.754C42.978,8.754,50.091,5.839,67.654,16.285C69.096,18.387,72.483,30.999,58.864,33.577C58.476,33.65,54.819,33.721,54.591,33.143C52.73,28.407,43.853,24.377,42.738,35.432C42.457,38.223,38.214,41.97,36.025,46.686C35.904,46.948,35.308,47.77,35.115,47.943C31.606,51.076,26.773,59.898,26.058,64.841C25.479,68.843,32.52,72.477,32.536,67.123C32.543,64.812,39.088,51.75,42.738,51.273C53.271,47.881,71.337,49.291,75.922,58.179C77.208,65.642,74.207,69.837,72.701,71.45C68.942,75.475,76.533,77.195,78.225,75.489C79.709,73.993,84.034,66.765,83.25,59.621ZM83.25,59.621"/>
</g>
  <g id="Medium-S" transform="matrix(1.0,0.0,0.0,1.0,1696.5666269386036,609.4966464698537)">  <path stroke-dasharray="none" version="1.1" xmlns:xlink="http://www.w3.org/1999/xlink" xml:space="preserve" stroke="none" stroke-linejoin="round" stroke-linecap="butt" fill-opacity="1" xmlns:serif="http://www.serif.com/" stroke-opacity="1" fill-rule="evenodd" stroke-miterlimit="2" fill="#000000" stroke-width="1px" clip-rule="evenodd" d="M83.25,59.621C86.405,56.573,94.243,50.338,96.735,52.728L95.133,89.029C95.133,89.029,54.212,102.1,11.814,86.545C11.814,86.545,2.073,85.262,7.407,76.851C7.407,76.851,6.505,40.533,42.978,8.754C42.978,8.754,50.091,5.839,67.654,16.285C69.096,18.387,72.483,30.999,58.864,33.577C58.476,33.65,54.819,33.721,54.591,33.143C52.73,28.407,43.853,24.377,42.738,35.432C42.457,38.223,38.214,41.97,36.025,46.686C35.904,46.948,35.308,47.77,35.115,47.943C31.606,51.076,26.773,59.898,26.058,64.841C25.479,68.843,32.52,72.477,32.536,67.123C32.543,64.812,39.088,51.75,42.738,51.273C53.271,47.881,71.337,49.291,75.922,58.179C77.208,65.642,74.207,69.837,72.701,71.45C68.942,75.475,76.533,77.195,78.225,75.489C79.709,73.993,84.034,66.765,83.25,59.621ZM83.25,59.621"/>
</g>
  <g id="Regular-S" transform="matrix(1.0,0.0,0.0,1.0,1399.8566269386035,609.4966464698537)">  <path xmlns:serif="http://www.serif.com/" xml:space="preserve" fill="#000000" stroke-opacity="1" version="1.1" stroke-dasharray="none" fill-opacity="1" stroke-width="1px" stroke="none" xmlns:xlink="http://www.w3.org/1999/xlink" clip-rule="evenodd" stroke-linecap="butt" fill-rule="evenodd" stroke-linejoin="round" stroke-miterlimit="2" d="M83.25,59.621C86.405,56.573,94.243,50.338,96.735,52.728L95.133,89.029C95.133,89.029,54.212,102.1,11.814,86.545C11.814,86.545,2.073,85.262,7.407,76.851C7.407,76.851,6.505,40.533,42.978,8.754C42.978,8.754,50.091,5.839,67.654,16.285C69.096,18.387,72.483,30.999,58.864,33.577C58.476,33.65,54.819,33.721,54.591,33.143C52.73,28.407,43.853,24.377,42.738,35.432C42.457,38.223,38.214,41.97,36.025,46.686C35.904,46.948,35.308,47.77,35.115,47.943C31.606,51.076,26.773,59.898,26.058,64.841C25.479,68.843,32.52,72.477,32.536,67.123C32.543,64.812,39.088,51.75,42.738,51.273C53.271,47.881,71.337,49.291,75.922,58.179C77.208,65.642,74.207,69.837,72.701,71.45C68.942,75.475,76.533,77.195,78.225,75.489C79.709,73.993,84.034,66.765,83.25,59.621ZM83.25,59.621"/>
</g>
  <g id="Light-S" transform="matrix(1.0,0.0,0.0,1.0,1103.1466269386037,609.4966464698537)">  <path clip-rule="evenodd" stroke-width="1px" xmlns:xlink="http://www.w3.org/1999/xlink" stroke-linecap="butt" stroke-dasharray="none" fill="#000000" stroke-opacity="1" xmlns:serif="http://www.serif.com/" stroke-linejoin="round" version="1.1" stroke="none" fill-rule="evenodd" xml:space="preserve" stroke-miterlimit="2" fill-opacity="1" d="M83.25,59.621C86.405,56.573,94.243,50.338,96.735,52.728L95.133,89.029C95.133,89.029,54.212,102.1,11.814,86.545C11.814,86.545,2.073,85.262,7.407,76.851C7.407,76.851,6.505,40.533,42.978,8.754C42.978,8.754,50.091,5.839,67.654,16.285C69.096,18.387,72.483,30.999,58.864,33.577C58.476,33.65,54.819,33.721,54.591,33.143C52.73,28.407,43.853,24.377,42.738,35.432C42.457,38.223,38.214,41.97,36.025,46.686C35.904,46.948,35.308,47.77,35.115,47.943C31.606,51.076,26.773,59.898,26.058,64.841C25.479,68.843,32.52,72.477,32.536,67.123C32.543,64.812,39.088,51.75,42.738,51.273C53.271,47.881,71.337,49.291,75.922,58.179C77.208,65.642,74.207,69.837,72.701,71.45C68.942,75.475,76.533,77.195,78.225,75.489C79.709,73.993,84.034,66.765,83.25,59.621ZM83.25,59.621"/>
</g>
  <g id="Thin-S" transform="matrix(1.0,0.0,0.0,1.0,806.4366269386037,609.4966464698537)">  <path fill-opacity="1" fill-rule="evenodd" xmlns:serif="http://www.serif.com/" stroke-opacity="1" stroke-dasharray="none" stroke-miterlimit="2" xml:space="preserve" stroke="none" stroke-width="1px" fill="#000000" clip-rule="evenodd" stroke-linejoin="round" xmlns:xlink="http://www.w3.org/1999/xlink" stroke-linecap="butt" version="1.1" d="M83.25,59.621C86.405,56.573,94.243,50.338,96.735,52.728L95.133,89.029C95.133,89.029,54.212,102.1,11.814,86.545C11.814,86.545,2.073,85.262,7.407,76.851C7.407,76.851,6.505,40.533,42.978,8.754C42.978,8.754,50.091,5.839,67.654,16.285C69.096,18.387,72.483,30.999,58.864,33.577C58.476,33.65,54.819,33.721,54.591,33.143C52.73,28.407,43.853,24.377,42.738,35.432C42.457,38.223,38.214,41.97,36.025,46.686C35.904,46.948,35.308,47.77,35.115,47.943C31.606,51.076,26.773,59.898,26.058,64.841C25.479,68.843,32.52,72.477,32.536,67.123C32.543,64.812,39.088,51.75,42.738,51.273C53.271,47.881,71.337,49.291,75.922,58.179C77.208,65.642,74.207,69.837,72.701,71.45C68.942,75.475,76.533,77.195,78.225,75.489C79.709,73.993,84.034,66.765,83.25,59.621ZM83.25,59.621"/>
</g>
  <g id="Ultralight-S" transform="matrix(1.0,0.0,0.0,1.0,509.7266269386036,609.4966464698537)">  <path clip-rule="evenodd" stroke="none" stroke-linejoin="round" version="1.1" fill-opacity="1" fill="#000000" xmlns:serif="http://www.serif.com/" xmlns:xlink="http://www.w3.org/1999/xlink" fill-rule="evenodd" stroke-opacity="1" stroke-width="1px" stroke-linecap="butt" xml:space="preserve" stroke-dasharray="none" stroke-miterlimit="2" d="M83.25,59.621C86.405,56.573,94.243,50.338,96.735,52.728L95.133,89.029C95.133,89.029,54.212,102.1,11.814,86.545C11.814,86.545,2.073,85.262,7.407,76.851C7.407,76.851,6.505,40.533,42.978,8.754C42.978,8.754,50.091,5.839,67.654,16.285C69.096,18.387,72.483,30.999,58.864,33.577C58.476,33.65,54.819,33.721,54.591,33.143C52.73,28.407,43.853,24.377,42.738,35.432C42.457,38.223,38.214,41.97,36.025,46.686C35.904,46.948,35.308,47.77,35.115,47.943C31.606,51.076,26.773,59.898,26.058,64.841C25.479,68.843,32.52,72.477,32.536,67.123C32.543,64.812,39.088,51.75,42.738,51.273C53.271,47.881,71.337,49.291,75.922,58.179C77.208,65.642,74.207,69.837,72.701,71.45C68.942,75.475,76.533,77.195,78.225,75.489C79.709,73.993,84.034,66.765,83.25,59.621ZM83.25,59.621"/>
</g>
 </g>
</svg>
